<?xml version="1.0" encoding="UTF-8"?>
<!DOCTYPE svg PUBLIC "-//W3C//DTD SVG 1.1//EN" "http://www.w3.org/Graphics/SVG/1.1/DTD/svg11.dtd">
<svg xmlns="http://www.w3.org/2000/svg" version="1.1" width="203px" height="329px" style="shape-rendering:geometricPrecision; text-rendering:geometricPrecision; image-rendering:optimizeQuality; fill-rule:evenodd; clip-rule:evenodd" xmlns:xlink="http://www.w3.org/1999/xlink">
<g><path style="opacity:1" fill="#75b0d0" d="M 82.5,0.5 C 85.0593,0.198448 87.3926,0.531782 89.5,1.5C 87.0314,2.3171 84.3647,2.8171 81.5,3C 71.8391,3.4998 62.1724,3.66647 52.5,3.5C 50.0065,3.86932 49.3398,3.20266 50.5,1.5C 61.085,0.524195 71.7517,0.190862 82.5,0.5 Z"/></g>
<g><path style="opacity:1" fill="#75afcf" d="M 50.5,1.5 C 49.3398,3.20266 50.0065,3.86932 52.5,3.5C 50.7499,4.47317 49.2499,5.8065 48,7.5C 47.0863,13.0298 47.753,18.3631 50,23.5C 60.4178,40.0041 71.0845,56.3375 82,72.5C 85.2663,79.2353 87.7663,86.2353 89.5,93.5C 87.7973,92.3398 87.1307,93.0065 87.5,95.5C 85.6246,88.716 83.1246,82.0493 80,75.5C 70,60.8333 60,46.1667 50,31.5C 48.3178,28.1356 46.6511,24.8022 45,21.5C 38.2475,25.46 31.4142,29.2934 24.5,33C 18.1291,37.8687 15.9624,44.0354 18,51.5C 27.9175,57.5416 37.7509,63.7082 47.5,70C 52.4575,76.6263 57.7908,82.9596 63.5,89C 70.4275,93.1381 77.7608,95.9714 85.5,97.5C 83.4727,97.3379 81.4727,97.5045 79.5,98C 80.7375,98.2321 81.7375,98.7321 82.5,99.5C 71.8861,98.1931 62.8861,93.6931 55.5,86C 52.5,85.3333 49.5,85.3333 46.5,86C 34.2149,91.5362 21.8815,96.8695 9.5,102C 2.54058,108.006 0.707249,115.172 4,123.5C 8.76574,117.205 14.9324,113.038 22.5,111C 33.1361,111.996 43.8028,112.662 54.5,113C 62.3958,110.716 70.0625,107.882 77.5,104.5C 78.9002,105.1 79.9002,106.1 80.5,107.5C 73.0983,109.696 65.765,112.196 58.5,115C 46.4494,115.521 34.4494,115.188 22.5,114C 16.1577,116.173 10.8243,119.84 6.5,125C 3.34115,126.084 1.00782,125.25 -0.5,122.5C -0.5,118.5 -0.5,114.5 -0.5,110.5C 1.50325,105.358 4.83658,101.191 9.5,98C 16.5383,94.5426 23.8716,91.8759 31.5,90C 38.051,85.9212 45.051,83.0879 52.5,81.5C 49.3555,76.522 45.3555,72.3553 40.5,69C 31.4041,64.372 22.9041,58.872 15,52.5C 12.7184,44.6622 14.5518,37.8289 20.5,32C 27.9684,27.182 35.8017,23.0153 44,19.5C 44.4986,16.9783 44.3319,14.4783 43.5,12C 43.3122,6.70772 45.6456,3.20772 50.5,1.5 Z"/></g>
<g><path style="opacity:1" fill="#74aece" d="M 82.5,0.5 C 82.5,0.166667 82.5,-0.166667 82.5,-0.5C 90.1667,-0.5 97.8333,-0.5 105.5,-0.5C 118.227,3.61292 123.227,12.2796 120.5,25.5C 135.893,24.8694 145.559,32.0361 149.5,47C 148.896,49.5838 148.063,52.0838 147,54.5C 141.287,59.9366 135.12,64.7699 128.5,69C 125.601,71.7291 122.934,74.5624 120.5,77.5C 120.44,76.9569 120.107,76.6236 119.5,76.5C 118.482,77.1925 117.482,77.8592 116.5,78.5C 121.704,69.4655 129.037,62.6322 138.5,58C 142.371,55.1404 145.038,51.4737 146.5,47C 142.739,33.9533 134.072,27.4533 120.5,27.5C 112.498,49.5064 105.498,71.8397 99.5,94.5C 98.1667,94.8333 98.1667,95.1667 99.5,95.5C 99.44,96.0431 99.1067,96.3764 98.5,96.5C 97.8243,95.3984 97.1577,94.3984 96.5,93.5C 101.493,73.0202 107.993,53.0202 116,33.5C 119.08,25.4326 119.08,17.4326 116,9.5C 108.353,3.26124 99.5201,0.594575 89.5,1.5C 87.3926,0.531782 85.0593,0.198448 82.5,0.5 Z"/></g>
<g><path style="opacity:1" fill="#76b0d1" d="M 120.5,77.5 C 119.763,79.3046 118.763,80.9713 117.5,82.5C 118,82.8333 118.5,83.1667 119,83.5C 127.36,79.2002 136.193,77.3669 145.5,78C 151.258,79.7515 155.925,83.0849 159.5,88C 165.07,88.691 170.57,89.5244 176,90.5C 176.798,92.2588 176.631,93.9255 175.5,95.5C 169.803,98.0171 164.136,100.517 158.5,103C 148.968,103.574 139.634,103.074 130.5,101.5C 135.305,100.513 140.305,100.179 145.5,100.5C 150.913,100.771 156.246,100.271 161.5,99C 165.453,96.1901 169.787,94.1901 174.5,93C 169.231,91.8938 163.897,91.2272 158.5,91C 155.203,88.7046 152.203,86.038 149.5,83C 145.405,80.7798 141.072,80.1131 136.5,81C 128.363,83.2678 120.363,85.9344 112.5,89C 110.833,90.6667 109.167,92.3333 107.5,94C 110.036,94.1862 112.369,94.6862 114.5,95.5C 110.587,95.8132 106.921,95.1466 103.5,93.5C 108.236,88.7701 112.569,83.7701 116.5,78.5C 117.482,77.8592 118.482,77.1925 119.5,76.5C 120.107,76.6236 120.44,76.9569 120.5,77.5 Z"/></g>
<g><path style="opacity:1" fill="#7bb9de" d="M 89.5,93.5 C 90.4286,94.9361 91.5952,96.2695 93,97.5C 94.4048,96.2695 95.5714,94.9361 96.5,93.5C 97.1577,94.3984 97.8243,95.3984 98.5,96.5C 99.1067,96.3764 99.44,96.0431 99.5,95.5C 99.5,95.1667 99.5,94.8333 99.5,94.5C 100.833,94.1667 102.167,93.8333 103.5,93.5C 106.921,95.1466 110.587,95.8132 114.5,95.5C 111.5,96.1667 108.5,96.8333 105.5,97.5C 101.254,101.647 99.2545,106.814 99.5,113C 100.074,116.312 101.074,119.478 102.5,122.5C 100.797,121.34 100.131,122.007 100.5,124.5C 95.6477,116.644 88.981,110.977 80.5,107.5C 79.9002,106.1 78.9002,105.1 77.5,104.5C 80.0236,103.073 82.6902,101.906 85.5,101C 84.4734,100.487 83.4734,99.9867 82.5,99.5C 81.7375,98.7321 80.7375,98.2321 79.5,98C 81.4727,97.5045 83.4727,97.3379 85.5,97.5C 86.8333,97.5 87.5,96.8333 87.5,95.5C 87.1307,93.0065 87.7973,92.3398 89.5,93.5 Z"/></g>
<g><path style="opacity:1" fill="#74adcb" d="M 114.5,95.5 C 124.726,98.5991 135.06,100.266 145.5,100.5C 140.305,100.179 135.305,100.513 130.5,101.5C 122.237,99.7462 113.904,98.4129 105.5,97.5C 108.5,96.8333 111.5,96.1667 114.5,95.5 Z"/></g>
<g><path style="opacity:1" fill="#74adcc" d="M 126.5,142.5 C 126.294,139.762 125.294,137.428 123.5,135.5C 123.792,130.455 124.459,125.455 125.5,120.5C 124.976,117.604 123.476,116.937 121,118.5C 120.015,120.366 119.515,122.366 119.5,124.5C 120.428,129.473 121.095,134.473 121.5,139.5C 120.833,139.5 120.167,139.5 119.5,139.5C 117.818,133.596 116.985,127.596 117,121.5C 117.842,116.04 121.008,114.04 126.5,115.5C 127.174,110.849 129.841,109.349 134.5,111C 138.963,112.501 140.963,115.667 140.5,120.5C 140.378,123.698 139.545,126.698 138,129.5C 133.498,133.486 129.665,137.819 126.5,142.5 Z M 129.5,113.5 C 136.369,113.538 138.869,116.871 137,123.5C 134.804,129.034 131.137,133.367 126,136.5C 126.646,128.818 127.812,121.151 129.5,113.5 Z M 123.5,135.5 C 122.833,136.833 122.167,138.167 121.5,139.5C 121.095,134.473 120.428,129.473 119.5,124.5C 119.515,122.366 120.015,120.366 121,118.5C 123.476,116.937 124.976,117.604 125.5,120.5C 124.459,125.455 123.792,130.455 123.5,135.5 Z"/></g>
<g><path style="opacity:1" fill="#77b3d5" d="M 102.5,122.5 C 107.857,132.905 111.857,143.905 114.5,155.5C 117.592,150.512 119.259,145.178 119.5,139.5C 120.167,139.5 120.833,139.5 121.5,139.5C 122.167,138.167 122.833,136.833 123.5,135.5C 125.294,137.428 126.294,139.762 126.5,142.5C 117.977,151.071 114.644,161.404 116.5,173.5C 116.226,178.392 116.893,183.059 118.5,187.5C 120.444,202.146 120.777,216.813 119.5,231.5C 118.853,232.274 118.52,233.274 118.5,234.5C 118.558,236.619 119.225,237.952 120.5,238.5C 118.487,248.667 117.487,259 117.5,269.5C 116.836,272.146 116.502,274.979 116.5,278C 116.672,281.682 117.339,285.182 118.5,288.5C 118.5,296.5 118.5,304.5 118.5,312.5C 118.813,316.042 118.479,319.375 117.5,322.5C 115.391,302.911 114.057,283.244 113.5,263.5C 115.318,259.827 115.984,255.827 115.5,251.5C 115.636,240.467 116.302,229.467 117.5,218.5C 117.377,217.075 117.043,215.742 116.5,214.5C 117.736,210.035 117.736,205.701 116.5,201.5C 115.566,193.163 114.566,184.83 113.5,176.5C 114.686,175.039 114.686,173.705 113.5,172.5C 113.5,171.833 113.167,171.5 112.5,171.5C 110.78,155.23 106.78,139.563 100.5,124.5C 100.131,122.007 100.797,121.34 102.5,122.5 Z"/></g>
<g><path style="opacity:1" fill="#75aece" d="M 112.5,171.5 C 112.461,173.224 112.794,173.557 113.5,172.5C 114.686,173.705 114.686,175.039 113.5,176.5C 109.289,172.123 104.622,168.29 99.5,165C 89.5648,160.081 80.3981,153.914 72,146.5C 70.8591,143.938 70.0257,141.272 69.5,138.5C 72.2292,133.794 74.2292,128.794 75.5,123.5C 86.4685,121.737 93.9685,126.07 98,136.5C 98.6984,142.524 98.5318,148.524 97.5,154.5C 97.6922,156.577 98.1922,158.577 99,160.5C 103.374,164.379 107.874,168.046 112.5,171.5 Z M 77.5,125.5 C 94.1229,128.423 99.6229,137.757 94,153.5C 89.3767,147.208 84.3767,141.208 79,135.5C 76.8676,132.303 76.3676,128.969 77.5,125.5 Z M 73.5,134.5 C 78.3465,140.858 83.8465,146.858 90,152.5C 90.9819,153.759 91.3152,155.092 91,156.5C 84.6317,153.484 78.9651,149.484 74,144.5C 72.3837,141.176 72.217,137.843 73.5,134.5 Z"/></g>
<g><path style="opacity:1" fill="#75afcf" d="M 118.5,187.5 C 116.893,183.059 116.226,178.392 116.5,173.5C 117.302,174.952 117.802,176.618 118,178.5C 119.766,166.512 124.599,156.012 132.5,147C 145.095,140.065 157.428,132.731 169.5,125C 172.833,124.333 176.167,124.333 179.5,125C 181.984,127.284 182.151,129.784 180,132.5C 176.133,136.702 171.967,140.535 167.5,144C 153.331,152.586 138.997,160.919 124.5,169C 122.37,175.222 120.37,181.389 118.5,187.5 Z M 173.5,126.5 C 175.484,126.383 177.15,127.05 178.5,128.5C 172.564,135.94 165.564,142.107 157.5,147C 147.673,152.08 138.006,157.413 128.5,163C 127.668,163.688 127.002,163.521 126.5,162.5C 128.384,157.226 131.384,152.726 135.5,149C 148.427,141.712 161.094,134.212 173.5,126.5 Z"/></g>
<g><path style="opacity:1" fill="#79b6d9" d="M 202.5,173.5 C 202.5,174.833 202.5,176.167 202.5,177.5C 202.167,177.5 201.833,177.5 201.5,177.5C 200.463,175.317 198.963,174.984 197,176.5C 195.238,176.056 195.405,175.556 197.5,175C 194.657,175.257 191.99,175.09 189.5,174.5C 193.635,172.444 197.968,172.111 202.5,173.5 Z"/></g>
<g><path style="opacity:1" fill="#74aecd" d="M 116.5,201.5 C 117.736,205.701 117.736,210.035 116.5,214.5C 94.2073,198.041 74.7073,178.708 58,156.5C 55.6921,151.636 54.8587,146.636 55.5,141.5C 56.365,140.417 57.365,140.251 58.5,141C 66.5988,151.102 75.4321,160.602 85,169.5C 91.8227,177.478 96.8227,186.478 100,196.5C 105.521,200.931 110.854,205.598 116,210.5C 116.498,207.518 116.665,204.518 116.5,201.5 Z M 95.5,192.5 C 83.8595,182.024 73.0262,170.691 63,158.5C 59.8747,153.932 58.208,148.932 58,143.5C 60.0624,145.901 61.7291,148.567 63,151.5C 71.0311,159.197 78.6978,167.197 86,175.5C 90.2047,180.575 93.3714,186.242 95.5,192.5 Z"/></g>
<g><path style="opacity:1" fill="#74adcc" d="M 189.5,174.5 C 191.99,175.09 194.657,175.257 197.5,175C 195.405,175.556 195.238,176.056 197,176.5C 198.963,174.984 200.463,175.317 201.5,177.5C 199.074,180.755 196.074,183.588 192.5,186C 188.311,190.221 184.478,194.721 181,199.5C 178.131,202.704 174.965,205.537 171.5,208C 161.209,213.979 150.542,219.146 139.5,223.5C 139.929,220.853 141.262,218.853 143.5,217.5C 143.833,218.833 144.167,218.833 144.5,217.5C 155.2,213.65 165.2,208.484 174.5,202C 180.795,193.371 188.128,185.705 196.5,179C 196.167,178.833 195.833,178.667 195.5,178.5C 180.815,189.524 166.148,200.524 151.5,211.5C 151.423,210.25 150.756,209.417 149.5,209C 150.066,208.005 150.733,207.172 151.5,206.5C 151.833,207.833 152.167,207.833 152.5,206.5C 153.167,206.5 153.5,206.167 153.5,205.5C 154.167,205.5 154.5,205.167 154.5,204.5C 154.167,204.5 153.833,204.5 153.5,204.5C 153.631,203.761 153.464,203.094 153,202.5C 152.292,203.381 151.458,204.047 150.5,204.5C 157.644,195.19 165.978,187.023 175.5,180C 179.863,177.316 184.53,175.482 189.5,174.5 Z M 154.5,204.5 C 163.929,191.213 176.262,182.046 191.5,177C 179.821,187.16 167.487,196.326 154.5,204.5 Z"/></g>
<g><path style="opacity:1" fill="#79b5d8" d="M 153.5,204.5 C 153.5,204.833 153.5,205.167 153.5,205.5C 152.833,205.5 152.5,205.833 152.5,206.5C 152.167,206.5 151.833,206.5 151.5,206.5C 150.733,207.172 150.066,208.005 149.5,209C 150.756,209.417 151.423,210.25 151.5,211.5C 149.142,213.529 146.808,215.529 144.5,217.5C 144.167,217.5 143.833,217.5 143.5,217.5C 141.262,218.853 139.929,220.853 139.5,223.5C 138.791,224.404 137.791,224.737 136.5,224.5C 136.082,223.778 135.416,223.278 134.5,223C 135.71,221.961 136.71,220.794 137.5,219.5C 141.489,214.179 145.822,209.179 150.5,204.5C 151.458,204.047 152.292,203.381 153,202.5C 153.464,203.094 153.631,203.761 153.5,204.5 Z"/></g>
<g><path style="opacity:0.918" fill="#73aac8" d="M 137.5,219.5 C 136.71,220.794 135.71,221.961 134.5,223C 135.416,223.278 136.082,223.778 136.5,224.5C 130.247,228.084 124.914,232.751 120.5,238.5C 119.225,237.952 118.558,236.619 118.5,234.5C 118.52,233.274 118.853,232.274 119.5,231.5C 119.351,232.552 119.517,233.552 120,234.5C 125.086,228.577 130.919,223.577 137.5,219.5 Z"/></g>
<g><path style="opacity:0.988" fill="#74aecd" d="M 136.5,279.5 C 134.708,278.691 132.708,278.191 130.5,278C 131.244,276.961 132.244,276.461 133.5,276.5C 145.431,278.287 154.598,273.954 161,263.5C 164.267,258.3 166.934,252.966 169,247.5C 160.67,260.338 149.504,269.671 135.5,275.5C 135.5,273.5 134.5,272.5 132.5,272.5C 144.294,262.208 155.627,251.374 166.5,240C 169.833,238 173.167,236 176.5,234C 178.289,233.48 179.956,233.813 181.5,235C 173.75,247.835 165.75,260.502 157.5,273C 151.221,277.482 144.221,279.649 136.5,279.5 Z M 164.5,246.5 C 159.833,255.833 152.833,262.833 143.5,267.5C 150.167,260.167 157.167,253.167 164.5,246.5 Z"/></g>
<g><path style="opacity:1" fill="#76b0d0" d="M 115.5,251.5 C 115.984,255.827 115.318,259.827 113.5,263.5C 110.732,260.229 107.732,257.062 104.5,254C 93.6753,248.757 83.342,242.757 73.5,236C 65.4666,228.638 58.9666,220.138 54,210.5C 53.51,209.207 53.3433,207.873 53.5,206.5C 59.3392,208.14 64.3392,211.307 68.5,216C 79.4543,221.62 89.2877,228.787 98,237.5C 101.216,241.376 103.549,245.709 105,250.5C 108.917,252.996 111.917,256.33 114,260.5C 114.181,257.305 114.681,254.305 115.5,251.5 Z M 74.5,224.5 C 85.9328,228.602 94.5995,235.936 100.5,246.5C 91.5149,239.513 82.8483,232.179 74.5,224.5 Z M 68.5,224.5 C 74.489,229.157 80.1557,234.157 85.5,239.5C 78.2728,236.273 72.6061,231.273 68.5,224.5 Z"/></g>
<g><path style="opacity:1" fill="#7ab8dc" d="M 132.5,272.5 C 134.5,272.5 135.5,273.5 135.5,275.5C 135.158,276.338 134.492,276.672 133.5,276.5C 132.244,276.461 131.244,276.961 130.5,278C 132.708,278.191 134.708,278.691 136.5,279.5C 133.609,280.403 130.609,280.736 127.5,280.5C 123.36,281.044 122.693,280.044 125.5,277.5C 127.55,275.453 129.883,273.786 132.5,272.5 Z"/></g>
<g><path style="opacity:0.953" fill="#72a9c7" d="M 117.5,269.5 C 117.334,274.844 117.501,280.177 118,285.5C 119.385,281.687 121.885,279.021 125.5,277.5C 122.693,280.044 123.36,281.044 127.5,280.5C 123.903,282.426 120.903,285.093 118.5,288.5C 117.339,285.182 116.672,281.682 116.5,278C 116.502,274.979 116.836,272.146 117.5,269.5 Z"/></g>
<g><path style="opacity:0.784" fill="#6b9fb7" d="M 118.5,312.5 C 119.488,317.64 119.821,322.974 119.5,328.5C 119.167,328.5 118.833,328.5 118.5,328.5C 117.659,326.621 117.325,324.621 117.5,322.5C 118.479,319.375 118.813,316.042 118.5,312.5 Z"/></g>
</svg>
