<?xml version="1.0" encoding="UTF-8"?>
<!DOCTYPE svg PUBLIC "-//W3C//DTD SVG 1.1//EN" "http://www.w3.org/Graphics/SVG/1.1/DTD/svg11.dtd">
<svg xmlns="http://www.w3.org/2000/svg" version="1.1" width="310px" height="397px" style="shape-rendering:geometricPrecision; text-rendering:geometricPrecision; image-rendering:optimizeQuality; fill-rule:evenodd; clip-rule:evenodd" xmlns:xlink="http://www.w3.org/1999/xlink">
<g><path style="opacity:0.785" fill="#eae8e1" d="M 219.5,121.5 C 218.5,121.5 217.5,121.5 216.5,121.5C 219.181,117.472 221.347,113.139 223,108.5C 225.435,97.5378 221.602,89.7045 211.5,85C 207.548,84.0885 203.881,84.7552 200.5,87C 196.557,93.6444 192.89,100.478 189.5,107.5C 187.641,109.192 185.641,110.692 183.5,112C 176.492,112.551 170.659,115.384 166,120.5C 165.333,122.5 165.333,124.5 166,126.5C 175.667,135.616 186.833,137.95 199.5,133.5C 199.5,134.167 199.5,134.833 199.5,135.5C 194.96,137.309 190.126,138.309 185,138.5C 179.818,137.726 174.652,137.226 169.5,137C 156.819,145.784 142.819,149.451 127.5,148C 124.461,146.969 121.961,145.135 120,142.5C 119.695,131.241 115.695,121.574 108,113.5C 105.673,108.141 106.839,103.641 111.5,100C 114.795,97.566 118.462,95.8993 122.5,95C 113.956,89.4038 110.789,81.5705 113,71.5C 114.061,68.4384 115.894,65.9384 118.5,64C 123.633,61.3459 128.133,57.8459 132,53.5C 136.749,35.5836 147.249,31.0836 163.5,40C 169.135,44.6287 173.635,50.1287 177,56.5C 178.345,50.1336 180.679,44.1336 184,38.5C 191.951,30.6742 200.117,30.5076 208.5,38C 212.749,39.1256 217.082,39.7923 221.5,40C 222.931,40.4652 224.097,41.2986 225,42.5C 230.942,57.9007 229.775,72.9007 221.5,87.5C 228.643,99.3072 227.976,110.641 219.5,121.5 Z M 145.5,38.5 C 150.947,37.8256 155.947,38.9922 160.5,42C 167.518,47.6773 173.018,54.5106 177,62.5C 177.962,71.5147 179.795,80.348 182.5,89C 182.37,90.0588 181.87,90.8921 181,91.5C 177.46,86.9232 174.294,82.0898 171.5,77C 174.815,72.5349 173.981,69.3682 169,67.5C 162.818,71.4457 163.151,74.779 170,77.5C 172.203,82.7443 175.036,87.5777 178.5,92C 176.833,92.8333 175.167,93.6667 173.5,94.5C 163.874,87.8744 155.54,79.8744 148.5,70.5C 150.041,65.0854 148.041,62.9188 142.5,64C 138.398,68.3257 139.232,71.4924 145,73.5C 145.873,73.2645 146.707,72.9312 147.5,72.5C 153.69,82.1899 161.69,90.0233 171.5,96C 172.406,97.6995 172.739,99.5328 172.5,101.5C 168.842,100.68 166.509,102.013 165.5,105.5C 151.531,103.841 138.198,100.008 125.5,94C 115.674,87.8675 113.174,79.7008 118,69.5C 123.333,65.5 128.667,61.5 134,57.5C 136.381,53.0317 138.381,48.365 140,43.5C 141.73,41.5981 143.563,39.9314 145.5,38.5 Z M 191.5,35.5 C 194.607,35.3512 197.607,35.8512 200.5,37C 202.901,39.0624 205.567,40.7291 208.5,42C 212.99,43.2742 217.323,44.9409 221.5,47C 223.041,48.5793 224.208,50.4127 225,52.5C 227.164,64.1462 225.164,75.1462 219,85.5C 213.947,80.8913 208.113,79.3913 201.5,81C 203.207,74.9929 203.874,68.8262 203.5,62.5C 208.151,61.8258 209.651,59.1592 208,54.5C 205.084,52.9865 202.418,53.3199 200,55.5C 200.15,59.4994 200.65,63.4994 201.5,67.5C 201.426,74.3053 199.759,80.6386 196.5,86.5C 194.314,87.2208 192.147,87.8875 190,88.5C 190.308,84.1385 190.141,79.8052 189.5,75.5C 191.192,73.7952 192.525,71.7952 193.5,69.5C 192.165,65.996 189.832,64.996 186.5,66.5C 185.359,68.4213 185.192,70.4213 186,72.5C 187.698,73.5289 188.532,75.0289 188.5,77C 187.671,81.1263 187.337,85.2929 187.5,89.5C 186.5,89.5 185.5,89.5 184.5,89.5C 183.337,83.5129 182.171,77.5129 181,71.5C 179.662,61.8711 180.662,52.5377 184,43.5C 186.028,40.3078 188.528,37.6411 191.5,35.5 Z M 203.5,55.5 C 207.276,56.6649 207.443,58.3315 204,60.5C 202.212,58.9769 202.045,57.3102 203.5,55.5 Z M 144.5,65.5 C 146.213,66.6354 146.88,68.302 146.5,70.5C 142.189,70.2153 141.522,68.5487 144.5,65.5 Z M 187.5,68.5 C 190.548,68.494 191.048,69.494 189,71.5C 187.961,70.7562 187.461,69.7562 187.5,68.5 Z M 168.5,70.5 C 171.861,71.2032 172.194,72.5365 169.5,74.5C 167.358,73.5629 167.024,72.2296 168.5,70.5 Z M 172.5,111.5 C 171.419,109.236 170.085,107.069 168.5,105C 169.025,104.308 169.692,103.808 170.5,103.5C 172.323,104.747 174.323,105.414 176.5,105.5C 175.859,102.779 175.359,100.112 175,97.5C 175.739,96.4258 176.739,95.7591 178,95.5C 179.567,96.8561 181.4,97.5228 183.5,97.5C 183.5,95.8333 183.5,94.1667 183.5,92.5C 185.638,92.703 187.305,93.703 188.5,95.5C 189.406,93.6136 190.406,91.7803 191.5,90C 192.6,89.5683 193.267,90.0683 193.5,91.5C 190.968,103.036 183.968,109.703 172.5,111.5 Z M 124.5,96.5 C 137.947,103.28 152.28,107.113 167.5,108C 164.894,108.45 163.561,109.95 163.5,112.5C 158.453,112.663 153.453,112.329 148.5,111.5C 148.183,107.835 146.183,106.335 142.5,107C 138.959,109.282 138.626,111.949 141.5,115C 144.418,115.716 147.085,115.216 149.5,113.5C 154.838,114.072 160.171,114.739 165.5,115.5C 164.078,118.53 161.745,120.364 158.5,121C 150.49,121.442 142.49,121.942 134.5,122.5C 134.67,121.178 134.337,120.011 133.5,119C 127.333,117.167 125.167,119.333 127,125.5C 129.672,127.687 132.172,127.354 134.5,124.5C 143.482,123.335 152.482,123.168 161.5,124C 162.635,128.141 164.969,131.475 168.5,134C 158.55,140.818 147.55,144.985 135.5,146.5C 129.356,146.514 124.856,143.848 122,138.5C 120.893,133.523 119.893,128.523 119,123.5C 115.425,118.927 112.258,114.093 109.5,109C 110.321,106.357 111.654,104.024 113.5,102C 117.017,99.6738 120.683,97.8405 124.5,96.5 Z M 143.5,109.5 C 146.714,110.794 146.881,112.128 144,113.5C 142.232,112.318 142.065,110.985 143.5,109.5 Z M 172.5,111.5 C 170.274,113.525 167.941,113.691 165.5,112C 166.108,111.13 166.941,110.63 168,110.5C 169.44,111.148 170.94,111.481 172.5,111.5 Z M 129.5,120.5 C 132.861,121.203 133.194,122.537 130.5,124.5C 128.358,123.563 128.024,122.23 129.5,120.5 Z"/></g>
<g><path style="opacity:0.82" fill="#eae8e1" d="M 309.5,122.5 C 309.5,123.167 309.5,123.833 309.5,124.5C 289.039,120.82 271.706,126.654 257.5,142C 275.231,140.153 292.564,136.32 309.5,130.5C 309.5,131.5 309.5,132.5 309.5,133.5C 292.473,138.507 275.139,142.34 257.5,145C 266.508,146.88 275.508,146.88 284.5,145C 293.264,142.913 301.597,139.746 309.5,135.5C 309.5,136.5 309.5,137.5 309.5,138.5C 291.054,149.076 271.554,151.743 251,146.5C 242.363,151.237 234.53,157.07 227.5,164C 249.994,160.931 271.327,164.764 291.5,175.5C 288.022,178.234 284.022,179.9 279.5,180.5C 279.167,179.833 278.833,179.167 278.5,178.5C 279.922,178.291 281.255,177.791 282.5,177C 266.184,175.688 249.85,175.355 233.5,176C 231.739,179.466 232.739,181.633 236.5,182.5C 240.097,181.199 243.764,180.199 247.5,179.5C 248.492,179.328 249.158,179.662 249.5,180.5C 242.823,182.341 236.99,185.674 232,190.5C 229.681,196.472 226.847,202.139 223.5,207.5C 222.833,207.167 222.167,206.833 221.5,206.5C 224.873,200.419 227.707,194.086 230,187.5C 231.412,178.974 227.912,173.974 219.5,172.5C 215.636,173.028 211.803,173.695 208,174.5C 193.822,166.837 186.322,171.004 185.5,187C 186.297,198.225 189.963,208.392 196.5,217.5C 195.5,217.833 194.833,218.5 194.5,219.5C 181.642,204.748 179.142,188.415 187,170.5C 193.172,165.737 199.506,165.737 206,170.5C 205.745,160.79 204.745,151.123 203,141.5C 202.647,138.848 201.48,136.848 199.5,135.5C 199.5,134.833 199.5,134.167 199.5,133.5C 205.7,130.307 211.367,126.307 216.5,121.5C 217.5,121.5 218.5,121.5 219.5,121.5C 214.794,126.695 209.461,131.195 203.5,135C 207.062,146.538 209.062,158.371 209.5,170.5C 212.518,170.665 215.518,170.498 218.5,170C 219.304,168.229 220.471,166.729 222,165.5C 221.333,150.503 225.666,137.17 235,125.5C 238.982,120.351 243.482,115.685 248.5,111.5C 250.21,126.158 246.544,139.325 237.5,151C 242.054,149.309 246.554,147.143 251,144.5C 253.106,124.383 263.606,110.549 282.5,103C 287.586,100.582 292.919,99.082 298.5,98.5C 296.556,106.556 292.889,113.722 287.5,120C 294.986,120.035 302.32,120.868 309.5,122.5 Z M 245.5,124.5 C 244.35,136.804 239.017,146.804 229.5,154.5C 234.328,144.175 239.661,134.175 245.5,124.5 Z M 243.5,118.5 C 244.043,118.56 244.376,118.893 244.5,119.5C 240.856,127.455 236.689,135.121 232,142.5C 229.667,147.833 227.333,153.167 225,158.5C 225.434,149.528 228.101,141.195 233,133.5C 236.72,128.62 240.22,123.62 243.5,118.5 Z M 264.5,131.5 C 268.233,126.26 272.566,121.426 277.5,117C 283.61,112.524 289.443,107.691 295,102.5C 292.777,110.082 288.61,116.582 282.5,122C 276.003,124.413 270.003,127.58 264.5,131.5 Z M 291.5,102.5 C 277.236,112.263 265.069,124.263 255,138.5C 259.609,119.059 271.775,107.059 291.5,102.5 Z M 235.5,164.5 C 251.827,164.331 267.494,167.498 282.5,174C 264.87,172.495 247.204,172.162 229.5,173C 227.779,171.473 225.779,170.473 223.5,170C 227.227,167.299 231.227,165.465 235.5,164.5 Z M 278.5,178.5 C 270.014,180.267 261.68,180.267 253.5,178.5C 251.304,178.505 249.304,178.838 247.5,179.5C 243.764,180.199 240.097,181.199 236.5,182.5C 232.739,181.633 231.739,179.466 233.5,176C 249.85,175.355 266.184,175.688 282.5,177C 281.255,177.791 279.922,178.291 278.5,178.5 Z M 196.5,190.5 C 199.166,190.066 200.333,191.066 200,193.5C 198.817,194.731 197.651,194.731 196.5,193.5C 195.209,192.473 195.209,191.473 196.5,190.5 Z M 219.5,183.5 C 222.001,183.511 222.168,184.178 220,185.5C 219.536,184.906 219.369,184.239 219.5,183.5 Z"/></g>
<g><path style="opacity:0.796" fill="#ebe9e2" d="M 188.5,245.5 C 187.5,245.5 186.5,245.5 185.5,245.5C 181.554,240.543 177.554,235.543 173.5,230.5C 156.417,222.28 138.417,219.113 119.5,221C 129.244,223.303 138.577,226.469 147.5,230.5C 147.167,231.167 146.833,231.833 146.5,232.5C 137.454,228.539 128.12,225.705 118.5,224C 123.04,228.046 127.707,231.879 132.5,235.5C 132.443,236.609 132.11,237.609 131.5,238.5C 124.872,233.042 118.372,227.376 112,221.5C 111.517,220.552 111.351,219.552 111.5,218.5C 131.455,216.261 150.789,218.427 169.5,225C 160.454,214.076 150.62,203.91 140,194.5C 132.798,202.459 123.798,206.126 113,205.5C 97.7814,204.315 83.2814,200.482 69.5,194C 79.3535,188.159 90.0202,184.493 101.5,183C 90.6584,172.751 81.6584,161.251 74.5,148.5C 95.949,149.476 114.782,156.81 131,170.5C 136.532,177.233 140.199,184.899 142,193.5C 147.635,198.133 152.968,203.133 158,208.5C 150.83,191.45 149.163,173.783 153,155.5C 153.419,154.328 154.085,153.328 155,152.5C 167.837,168.013 175.003,185.847 176.5,206C 175.657,212.56 174.824,219.06 174,225.5C 179.087,232.019 183.921,238.686 188.5,245.5 Z M 157.5,159.5 C 167.099,173.289 172.766,188.622 174.5,205.5C 173.748,210.511 172.915,215.511 172,220.5C 166.063,200.42 161.23,180.086 157.5,159.5 Z M 154.5,159.5 C 158.362,178.951 162.862,198.284 168,217.5C 155.798,199.992 151.298,180.659 154.5,159.5 Z M 88.5,153.5 C 110.963,156.214 127.296,167.548 137.5,187.5C 137.167,187.833 136.833,188.167 136.5,188.5C 120.433,176.812 104.433,165.145 88.5,153.5 Z M 80.5,152.5 C 85.3053,155.071 89.9719,157.904 94.5,161C 107.322,170.91 120.322,180.577 133.5,190C 135.007,190.837 135.507,192.004 135,193.5C 131.156,196.736 126.99,197.236 122.5,195C 118.835,193.503 115.502,191.503 112.5,189C 100.112,178.127 89.4452,165.96 80.5,152.5 Z M 93.5,186.5 C 97.5138,186.334 101.514,186.501 105.5,187C 107.833,188.667 110.167,190.333 112.5,192C 101.852,191.854 91.1856,191.521 80.5,191C 84.9797,189.564 89.313,188.064 93.5,186.5 Z M 76.5,194.5 C 89.6228,193.55 102.789,193.55 116,194.5C 120.243,196.688 124.743,198.188 129.5,199C 121.472,202.274 113.138,203.274 104.5,202C 95.005,200 85.6717,197.5 76.5,194.5 Z"/></g>
<g><path style="opacity:0.804" fill="#ebe8e2" d="M 247.5,179.5 C 249.304,178.838 251.304,178.505 253.5,178.5C 261.68,180.267 270.014,180.267 278.5,178.5C 278.833,179.167 279.167,179.833 279.5,180.5C 275.215,181.208 270.882,181.708 266.5,182C 269.106,183.938 270.939,186.438 272,189.5C 272.966,194.934 274.299,200.268 276,205.5C 279.716,209.548 283.05,213.882 286,218.5C 287.094,223.983 285.594,228.65 281.5,232.5C 286.074,234.241 289.574,237.241 292,241.5C 293.417,247.002 291.75,251.335 287,254.5C 286.211,260.556 283.711,265.723 279.5,270C 269.286,272.158 259.786,270.324 251,264.5C 246.483,268.242 241.316,269.409 235.5,268C 229.784,266.309 224.451,263.809 219.5,260.5C 209.908,275.105 205.075,291.105 205,308.5C 206.773,321.03 209.439,333.364 213,345.5C 212.856,322.585 220.189,302.585 235,285.5C 235.772,285.645 236.439,285.978 237,286.5C 239.892,302.357 241.226,318.357 241,334.5C 250.46,326.384 260.96,319.884 272.5,315C 273.944,314.219 275.277,314.386 276.5,315.5C 270.726,327.381 265.226,339.381 260,351.5C 251.668,365.163 239.834,374.33 224.5,379C 227.536,384.568 229.869,390.402 231.5,396.5C 230.5,396.5 229.5,396.5 228.5,396.5C 223.978,386.272 219.644,375.939 215.5,365.5C 187.601,353.923 170.601,333.256 164.5,303.5C 174.549,308.03 183.716,314.03 192,321.5C 198.584,331.666 204.918,342 211,352.5C 203.981,325.362 199.981,297.695 199,269.5C 182.533,276.146 166.033,275.979 149.5,269C 137.037,263.934 125.037,258.101 113.5,251.5C 123.372,248.799 133.372,246.632 143.5,245C 139.313,243.075 135.313,240.908 131.5,238.5C 132.11,237.609 132.443,236.609 132.5,235.5C 143.007,242.877 154.674,246.377 167.5,246C 172.741,246.727 177.741,248.227 182.5,250.5C 183.696,250.154 183.696,249.654 182.5,249C 171.132,242.15 159.132,236.65 146.5,232.5C 146.833,231.833 147.167,231.167 147.5,230.5C 160.932,234.143 173.432,239.809 185,247.5C 185.464,246.906 185.631,246.239 185.5,245.5C 186.5,245.5 187.5,245.5 188.5,245.5C 192.49,250.804 195.99,256.47 199,262.5C 199.971,249.081 199.304,235.748 197,222.5C 195.955,221.627 195.122,220.627 194.5,219.5C 194.833,218.5 195.5,217.833 196.5,217.5C 197.222,217.918 197.722,218.584 198,219.5C 199.141,217.391 200.641,215.558 202.5,214C 199.996,209.155 198.496,203.988 198,198.5C 196.903,196.947 195.57,195.614 194,194.5C 193.878,188.247 196.545,186.58 202,189.5C 202.667,191.167 202.667,192.833 202,194.5C 200.302,195.529 199.468,197.029 199.5,199C 200.564,203.964 202.064,208.797 204,213.5C 206.333,212.123 208.833,211.123 211.5,210.5C 213.122,202.799 215.455,195.299 218.5,188C 215.201,182.971 216.534,180.638 222.5,181C 224.793,183.997 224.126,186.497 220.5,188.5C 217.171,195.812 215.504,203.478 215.5,211.5C 216.822,211.33 217.989,211.663 219,212.5C 220.135,210.63 220.968,208.63 221.5,206.5C 222.167,206.833 222.833,207.167 223.5,207.5C 220.264,214.098 221.431,215.431 227,211.5C 229.257,212.09 230.924,213.423 232,215.5C 234.28,211.553 236.947,207.887 240,204.5C 239.123,198.364 241.456,196.364 247,198.5C 248.544,202.812 247.044,204.978 242.5,205C 239.642,208.358 236.975,211.858 234.5,215.5C 235.747,217.323 236.414,219.323 236.5,221.5C 237.873,221.343 239.207,221.51 240.5,222C 241.113,224.147 241.779,226.314 242.5,228.5C 248.574,228.421 254.241,226.588 259.5,223C 259.621,218.211 261.954,216.544 266.5,218C 269.167,220.333 269.167,222.667 266.5,225C 264.432,225.687 262.432,225.52 260.5,224.5C 256.28,227.612 251.613,229.612 246.5,230.5C 246.335,232.827 245.669,234.993 244.5,237C 256.413,237.459 267.746,235.126 278.5,230C 282.671,226.146 283.504,221.646 281,216.5C 278,213.5 275,210.5 272,207.5C 271.932,201.006 270.932,194.673 269,188.5C 264.097,182.03 257.597,179.364 249.5,180.5C 249.158,179.662 248.492,179.328 247.5,179.5 Z M 196.5,190.5 C 195.209,191.473 195.209,192.473 196.5,193.5C 197.651,194.731 198.817,194.731 200,193.5C 200.333,191.066 199.166,190.066 196.5,190.5 Z M 219.5,183.5 C 219.369,184.239 219.536,184.906 220,185.5C 222.168,184.178 222.001,183.511 219.5,183.5 Z M 249.5,180.5 C 257.597,179.364 264.097,182.03 269,188.5C 270.932,194.673 271.932,201.006 272,207.5C 275,210.5 278,213.5 281,216.5C 283.504,221.646 282.671,226.146 278.5,230C 267.746,235.126 256.413,237.459 244.5,237C 245.669,234.993 246.335,232.827 246.5,230.5C 251.613,229.612 256.28,227.612 260.5,224.5C 262.432,225.52 264.432,225.687 266.5,225C 269.167,222.667 269.167,220.333 266.5,218C 261.954,216.544 259.621,218.211 259.5,223C 254.241,226.588 248.574,228.421 242.5,228.5C 241.779,226.314 241.113,224.147 240.5,222C 239.207,221.51 237.873,221.343 236.5,221.5C 236.414,219.323 235.747,217.323 234.5,215.5C 236.975,211.858 239.642,208.358 242.5,205C 247.044,204.978 248.544,202.812 247,198.5C 241.456,196.364 239.123,198.364 240,204.5C 236.947,207.887 234.28,211.553 232,215.5C 230.924,213.423 229.257,212.09 227,211.5C 221.431,215.431 220.264,214.098 223.5,207.5C 226.847,202.139 229.681,196.472 232,190.5C 236.99,185.674 242.823,182.341 249.5,180.5 Z M 242.5,199.5 C 245.674,199.952 246.007,200.952 243.5,202.5C 242.614,201.675 242.281,200.675 242.5,199.5 Z M 208.5,214.5 C 217.52,214.094 223.687,218.094 227,226.5C 227.993,232.169 230.493,237.002 234.5,241C 245.3,242.776 250.467,248.943 250,259.5C 248.065,263.802 244.732,265.802 240,265.5C 218.826,261.159 205.659,248.493 200.5,227.5C 200.432,221.271 203.099,216.938 208.5,214.5 Z M 225.5,214.5 C 228.5,214.167 229.833,215.5 229.5,218.5C 233.981,217.963 235.314,219.63 233.5,223.5C 235.5,223.5 237.5,223.5 239.5,223.5C 239.326,225.861 238.993,228.194 238.5,230.5C 244.811,230.779 245.811,233.113 241.5,237.5C 242.737,238.281 243.737,239.281 244.5,240.5C 241.227,241.037 238.061,240.37 235,238.5C 231.69,230.898 228.19,223.398 224.5,216C 225.056,215.617 225.389,215.117 225.5,214.5 Z M 263.5,219.5 C 265.625,220.368 265.791,221.368 264,222.5C 262.317,221.824 262.15,220.824 263.5,219.5 Z M 253.5,252.5 C 259.101,253.064 263.434,255.564 266.5,260C 271.498,261.33 273.664,259.496 273,254.5C 270.549,251.013 267.716,250.68 264.5,253.5C 260.461,252.098 256.461,250.598 252.5,249C 250.317,246.65 247.984,244.483 245.5,242.5C 246.09,241.201 247.09,240.368 248.5,240C 255.537,239.245 262.537,238.245 269.5,237C 276.963,232.279 283.13,233.779 288,241.5C 288.584,244.257 288.25,246.923 287,249.5C 284.203,255.24 281.036,260.74 277.5,266C 273.782,268.298 269.782,268.965 265.5,268C 261.281,266.891 257.281,265.225 253.5,263C 253.132,259.622 253.132,256.122 253.5,252.5 Z M 201.5,241.5 C 205.697,248.372 211.03,254.372 217.5,259.5C 211.387,268.394 206.887,278.061 204,288.5C 202.906,272.836 202.072,257.17 201.5,241.5 Z M 148.5,247.5 C 164.361,246.969 179.027,250.803 192.5,259C 194.657,260.981 196.324,263.314 197.5,266C 172.903,259.481 147.903,254.481 122.5,251C 131.301,249.758 139.968,248.591 148.5,247.5 Z M 126.5,254.5 C 146.808,256.163 166.808,259.663 186.5,265C 189.251,265.516 191.584,266.683 193.5,268.5C 192.088,269.806 190.421,270.64 188.5,271C 179.439,272.911 170.439,272.578 161.5,270C 149.272,265.882 137.606,260.715 126.5,254.5 Z M 267.5,254.5 C 268.5,254.5 269.5,254.5 270.5,254.5C 269.5,259.833 268.5,259.833 267.5,254.5 Z M 234.5,289.5 C 238.479,305.541 239.312,321.874 237,338.5C 231.783,344.053 227.783,350.386 225,357.5C 226.062,334.565 229.229,311.899 234.5,289.5 Z M 230.5,294.5 C 231.043,294.56 231.376,294.893 231.5,295.5C 225.055,319.723 221.889,344.389 222,369.5C 212.925,343.102 215.759,318.102 230.5,294.5 Z M 202.5,345.5 C 191.206,335.398 181.706,324.065 174,311.5C 187.635,319.307 197.135,330.64 202.5,345.5 Z M 210.5,359.5 C 196.346,353.182 185.513,343.182 178,329.5C 175.385,324.954 173.385,320.287 172,315.5C 183.924,330.927 196.758,345.593 210.5,359.5 Z M 266.5,321.5 C 251.36,337.805 237.526,355.138 225,373.5C 225.558,362.707 229.225,353.04 236,344.5C 244.089,334.043 254.256,326.376 266.5,321.5 Z M 268.5,324.5 C 263.771,341.133 255.105,355.3 242.5,367C 237.609,370.779 232.276,373.446 226.5,375C 238.492,356.527 252.492,339.693 268.5,324.5 Z"/></g>
</svg>
