<?xml version="1.0" encoding="UTF-8"?>
<!DOCTYPE svg PUBLIC "-//W3C//DTD SVG 1.1//EN" "http://www.w3.org/Graphics/SVG/1.1/DTD/svg11.dtd">
<svg xmlns="http://www.w3.org/2000/svg" version="1.1" width="291px" height="527px" style="shape-rendering:geometricPrecision; text-rendering:geometricPrecision; image-rendering:optimizeQuality; fill-rule:evenodd; clip-rule:evenodd" xmlns:xlink="http://www.w3.org/1999/xlink">
<g><path style="opacity:1" fill="#78909c" d="M 259.5,-0.5 C 261.833,-0.5 264.167,-0.5 266.5,-0.5C 267.551,11.3846 264.717,22.3846 258,32.5C 243.33,48.1703 227.996,63.1703 212,77.5C 208.628,84.4115 205.128,91.2449 201.5,98C 202.167,98.6667 202.833,98.6667 203.5,98C 226.049,78.236 252.382,68.9026 282.5,70C 285.648,70.7384 288.315,72.2384 290.5,74.5C 290.5,77.1667 290.5,79.8333 290.5,82.5C 287.489,85.6762 283.822,87.8428 279.5,89C 269.167,89.6667 258.833,89.6667 248.5,89C 241.523,88.9155 234.689,88.0822 228,86.5C 216.202,92.9611 205.535,100.961 196,110.5C 191.472,117.885 187.805,125.551 185,133.5C 189.955,129.846 195.455,127.346 201.5,126C 208.167,118 214.833,110 221.5,102C 224.614,99.1457 228.281,97.979 232.5,98.5C 232.65,105.203 229.65,110.036 223.5,113C 220.618,114.608 217.618,115.941 214.5,117C 211.931,119.479 209.598,122.146 207.5,125C 209.845,125.17 212.179,124.837 214.5,124C 227.63,118.769 240.964,114.102 254.5,110C 261.899,109.152 269.233,109.485 276.5,111C 281.738,114.529 281.738,117.863 276.5,121C 261.14,127.626 245.64,128.126 230,122.5C 215.827,126.919 201.66,131.419 187.5,136C 184.667,138.167 181.833,140.333 179,142.5C 170.453,159.594 162.453,176.927 155,194.5C 154.333,195.5 154.333,196.5 155,197.5C 161.414,193.043 167.914,188.709 174.5,184.5C 176.885,178.062 180.052,172.062 184,166.5C 189.864,160.301 196.031,154.468 202.5,149C 210.185,146.183 212.685,148.683 210,156.5C 207.183,163.302 203.016,169.135 197.5,174C 186.285,182.773 174.285,190.273 161.5,196.5C 160.711,196.783 160.044,197.283 159.5,198C 166.679,198.821 173.679,198.655 180.5,197.5C 185.803,192.172 192.137,188.339 199.5,186C 205.057,184.167 207.557,186 207,191.5C 200.561,196.986 193.061,200.152 184.5,201C 175.146,201.442 165.812,201.442 156.5,201C 154.714,201.785 153.214,202.951 152,204.5C 147.801,215.263 144.301,226.263 141.5,237.5C 141.833,238.167 142.167,238.833 142.5,239.5C 148.677,234.908 155.344,231.075 162.5,228C 171.997,224.39 181.331,220.39 190.5,216C 200.491,212.057 210.825,210.39 221.5,211C 228.059,215.245 228.059,219.578 221.5,224C 218.052,225.927 214.385,227.261 210.5,228C 198.491,228.289 186.491,228.289 174.5,228C 169.42,229.804 164.42,231.804 159.5,234C 169.519,233.338 179.186,235.005 188.5,239C 193.738,242.529 193.738,245.863 188.5,249C 181.923,251.13 177.756,248.964 176,242.5C 172.39,238.093 167.723,236.427 162,237.5C 152.291,236.854 144.624,240.521 139,248.5C 132.015,272.759 127.348,297.425 125,322.5C 129.977,316.022 135.144,309.688 140.5,303.5C 140.568,287.482 143.234,271.816 148.5,256.5C 151.716,253.68 154.549,254.013 157,257.5C 158.791,271.877 156.458,285.544 150,298.5C 143.142,307.538 135.808,316.204 128,324.5C 125.938,326.901 124.271,329.567 123,332.5C 119.671,355.796 117.004,379.129 115,402.5C 118.433,397.403 121.433,392.069 124,386.5C 125.919,374.566 127.252,362.566 128,350.5C 128.234,344.714 130.067,339.547 133.5,335C 138.23,333.396 140.23,335.063 139.5,340C 138.821,347.192 136.321,353.692 132,359.5C 130.99,366.921 129.99,374.254 129,381.5C 131.583,378.003 133.916,374.336 136,370.5C 143.525,343.938 156.359,320.438 174.5,300C 177.614,297.146 181.281,295.979 185.5,296.5C 185.959,303.291 184.459,309.624 181,315.5C 172.264,328.24 162.764,340.406 152.5,352C 149.751,353.123 147.251,354.623 145,356.5C 142.454,364.358 139.454,372.024 136,379.5C 125.89,391.114 118.056,404.114 112.5,418.5C 111.174,432.672 111.174,447.006 112.5,461.5C 113.107,461.376 113.44,461.043 113.5,460.5C 123.928,449.238 133.428,437.238 142,424.5C 162.079,386.008 182.412,347.675 203,309.5C 206.813,303.68 211.813,299.346 218,296.5C 220.5,296.333 221.667,297.5 221.5,300C 220.632,303.458 219.299,306.624 217.5,309.5C 217.232,306.881 217.565,304.381 218.5,302C 217.333,301.5 216.5,300.667 216,299.5C 213.96,301.37 212.127,303.37 210.5,305.5C 210.5,305.833 210.5,306.167 210.5,306.5C 209.833,306.5 209.5,306.833 209.5,307.5C 208.662,307.842 208.328,308.508 208.5,309.5C 207.833,309.5 207.5,309.833 207.5,310.5C 203.805,314.715 200.639,319.382 198,324.5C 182.089,355.99 165.922,387.323 149.5,418.5C 149.846,419.696 150.346,419.696 151,418.5C 161.202,403.427 170.369,387.761 178.5,371.5C 179.5,371.833 180.167,372.5 180.5,373.5C 170.244,395.903 157.744,416.903 143,436.5C 138.5,441 134,445.5 129.5,450C 143.489,445.232 155.322,437.066 165,425.5C 175.026,413.112 183.026,399.445 189,384.5C 194.176,367.787 199.342,351.12 204.5,334.5C 205.461,336.265 205.795,338.265 205.5,340.5C 200.662,365.518 192.162,389.185 180,411.5C 176.053,417.943 171.553,423.943 166.5,429.5C 165.833,429.5 165.5,429.833 165.5,430.5C 161.613,433.73 161.947,434.064 166.5,431.5C 167.298,431.957 167.631,432.624 167.5,433.5C 157.191,440.933 146.191,447.433 134.5,453C 149.448,450.36 162.781,444.193 174.5,434.5C 178.737,431.772 182.571,428.439 186,424.5C 186.464,425.094 186.631,425.761 186.5,426.5C 170.676,445.583 150.342,456.583 125.5,459.5C 123.345,459.372 121.345,459.872 119.5,461C 128.676,461.824 137.676,461.657 146.5,460.5C 163.936,457.951 178.269,449.951 189.5,436.5C 190.458,436.047 191.292,435.381 192,434.5C 192.464,435.094 192.631,435.761 192.5,436.5C 182.362,451.412 168.362,460.579 150.5,464C 138.171,464.5 125.838,464.667 113.5,464.5C 113.34,469.566 113.84,474.566 115,479.5C 119.072,495.213 123.239,510.879 127.5,526.5C 126.5,526.5 125.5,526.5 124.5,526.5C 122.867,519.067 119.534,512.567 114.5,507C 103.833,499.667 93.1667,492.333 82.5,485C 77.6643,481.33 73.331,477.164 69.5,472.5C 66.4372,468.434 62.7706,465.101 58.5,462.5C 45.1711,448.337 32.0044,434.003 19,419.5C 10.0541,407.277 3.5541,393.943 -0.5,379.5C -0.5,374.167 -0.5,368.833 -0.5,363.5C 1.15994,361.752 3.15994,361.252 5.5,362C 15.3333,375.167 25.1667,388.333 35,401.5C 47,414.167 59,426.833 71,439.5C 81.0689,451.971 90.4022,464.971 99,478.5C 102.348,484.189 104.848,490.189 106.5,496.5C 109.807,498.64 112.974,500.974 116,503.5C 108.86,476.703 106.193,449.369 108,421.5C 109.298,409.159 110.298,396.826 111,384.5C 107.347,378.035 102.847,372.202 97.5,367C 90.4273,362.268 83.0939,357.935 75.5,354C 70.4134,350.442 69.4134,346.108 72.5,341C 80.9825,339.716 88.1492,342.216 94,348.5C 89.6067,337.705 84.6067,327.039 79,316.5C 76.5786,310.625 76.0786,304.625 77.5,298.5C 80.4989,296.081 83.4989,296.247 86.5,299C 89.0574,301.892 91.224,305.059 93,308.5C 96.3673,320.35 97.8673,332.35 97.5,344.5C 101.268,356.646 106.101,368.312 112,379.5C 115.889,357.285 118.555,334.951 120,312.5C 108.5,298.333 95.6667,285.5 81.5,274C 72.4773,274.834 63.4773,276.167 54.5,278C 37.8691,280.232 22.5357,276.899 8.5,268C 4.20853,263.962 2.87519,259.128 4.5,253.5C 7.36436,252.406 10.031,252.906 12.5,255C 20.7877,260.953 28.7877,267.286 36.5,274C 45.2203,274.839 53.887,274.505 62.5,273C 61.5,272 60.5,271 59.5,270C 50.8447,267.336 42.178,264.669 33.5,262C 29.359,260.583 27.859,257.749 29,253.5C 34.3758,250.833 39.5425,251.333 44.5,255C 51.8333,260.333 59.1667,265.667 66.5,271C 69.594,271.652 72.594,271.318 75.5,270C 52.4992,253.169 35.3326,231.669 24,205.5C 21.601,200.649 21.101,195.649 22.5,190.5C 24.4213,189.359 26.4213,189.192 28.5,190C 31.2192,191.597 33.3859,193.763 35,196.5C 43.6969,209.891 51.3636,223.891 58,238.5C 59.6667,243.833 61.3333,249.167 63,254.5C 72.4091,262.12 81.9091,269.62 91.5,277C 102.067,286.897 111.9,297.397 121,308.5C 123.781,294.977 126.614,281.477 129.5,268C 127.995,260.822 125.495,253.989 122,247.5C 114.272,239.775 105.439,233.609 95.5,229C 89.1421,227.578 83.1421,225.244 77.5,222C 75.4647,216.07 77.4647,212.07 83.5,210C 94.2735,209.302 103.107,213.135 110,221.5C 113.394,225.898 116.394,230.565 119,235.5C 117.371,225.277 116.038,214.943 115,204.5C 111.235,194.453 109.235,184.12 109,173.5C 110.794,169.342 113.627,168.176 117.5,170C 124.094,181.035 127.427,193.035 127.5,206C 127.023,214.739 125.357,223.239 122.5,231.5C 125.642,240.735 128.476,250.069 131,259.5C 139.119,226.479 149.619,194.312 162.5,163C 162.094,159.155 161.594,155.321 161,151.5C 148.419,143.587 137.753,133.587 129,121.5C 126.004,116.23 124.838,110.563 125.5,104.5C 128.325,104.081 130.491,105.081 132,107.5C 137.08,117.327 142.413,126.994 148,136.5C 152.048,140.216 156.382,143.55 161,146.5C 161.661,141.442 161.328,136.442 160,131.5C 153.42,113.263 148.586,94.5966 145.5,75.5C 145.374,72.1299 146.04,68.9632 147.5,66C 151.302,63.9651 154.469,64.7984 157,68.5C 166.833,88.8066 169,109.807 163.5,131.5C 164.408,137.125 164.742,142.792 164.5,148.5C 164.334,153.179 164.501,157.845 165,162.5C 166.039,161.756 166.539,160.756 166.5,159.5C 175.717,140.066 185.217,120.732 195,101.5C 196.551,98.1319 197.717,94.6319 198.5,91C 193.852,75.0564 188.019,59.5564 181,44.5C 179.69,37.1286 180.69,30.1286 184,23.5C 186.945,19.9561 190.445,19.1228 194.5,21C 201.314,28.4278 204.814,37.2612 205,47.5C 205.663,59.5671 205.33,71.5671 204,83.5C 212.2,64.7669 221.2,46.4336 231,28.5C 238.025,16.3093 247.525,6.64263 259.5,-0.5 Z M 218.5,64.5 C 225.49,43.0123 237.157,24.5123 253.5,9C 256.078,6.79297 258.911,4.95964 262,3.5C 262.335,12.8365 260.002,21.5031 255,29.5C 250.2,35.3017 245.033,40.8017 239.5,46C 232.629,52.3751 225.629,58.5418 218.5,64.5 Z M 189.5,23.5 C 192.642,23.7993 194.809,25.4659 196,28.5C 200.201,38.7368 202.034,49.4035 201.5,60.5C 201.46,67.5352 200.96,74.5352 200,81.5C 195.839,68.1775 190.839,55.1775 185,42.5C 184.333,38.5 184.333,34.5 185,30.5C 185.938,27.7435 187.438,25.4101 189.5,23.5 Z M 150.5,69.5 C 152.888,70.2187 154.388,71.8854 155,74.5C 159.646,85.9168 162.479,97.7501 163.5,110C 163.603,114.305 162.937,118.472 161.5,122.5C 155.781,107.29 151.781,91.6235 149.5,75.5C 149.573,73.4104 149.906,71.4104 150.5,69.5 Z M 271.5,73.5 C 274.85,73.335 278.183,73.5017 281.5,74C 288.939,77.3098 288.606,80.6431 280.5,84C 277.402,84.9182 274.235,85.4182 271,85.5C 259.106,85.0606 247.272,84.2272 235.5,83C 247.296,78.5527 259.296,75.3861 271.5,73.5 Z M 227.5,103.5 C 227.489,105.017 226.823,106.184 225.5,107C 223.631,108.602 221.631,109.602 219.5,110C 221.771,107.218 224.437,105.051 227.5,103.5 Z M 136.5,123.5 C 132.724,119.949 130.558,115.616 130,110.5C 132.705,114.577 134.872,118.91 136.5,123.5 Z M 261.5,112.5 C 266.481,112.594 271.148,113.761 275.5,116C 262.505,122.527 248.838,124.194 234.5,121C 243.4,117.42 252.4,114.586 261.5,112.5 Z M 181.5,179.5 C 182.128,176.91 183.295,174.577 185,172.5C 191.697,165.468 198.697,158.802 206,152.5C 205.368,157.366 203.368,161.7 200,165.5C 194.431,171.026 188.265,175.693 181.5,179.5 Z M 113.5,173.5 C 115.888,174.219 117.388,175.885 118,178.5C 123.726,192.466 124.893,206.799 121.5,221.5C 120.567,207.766 117.733,194.432 113,181.5C 112.398,178.779 112.565,176.113 113.5,173.5 Z M 191.5,194.5 C 194.734,191.881 198.4,190.381 202.5,190C 199.274,192.575 195.607,194.075 191.5,194.5 Z M 25.5,192.5 C 28.4999,194.668 30.9999,197.334 33,200.5C 41.6969,213.891 49.3636,227.891 56,242.5C 56.9913,244.447 57.3247,246.447 57,248.5C 42.2626,232.912 31.4293,214.912 24.5,194.5C 24.8627,193.817 25.1961,193.15 25.5,192.5 Z M 83.5,213.5 C 94.2058,213.436 102.706,217.77 109,226.5C 111.591,230.027 113.591,233.694 115,237.5C 112.106,234.639 108.939,232.139 105.5,230C 97.6622,226.276 89.6622,222.943 81.5,220C 80.8333,219.333 80.1667,218.667 79.5,218C 81.0414,216.629 82.3747,215.129 83.5,213.5 Z M 210.5,214.5 C 213.85,214.335 217.183,214.502 220.5,215C 221.428,215.388 222.095,216.055 222.5,217C 220.459,219.692 217.792,221.692 214.5,223C 204.272,225.951 193.939,226.284 183.5,224C 192.157,219.505 201.157,216.339 210.5,214.5 Z M 177.5,239.5 C 182.216,238.841 186.216,240.508 189.5,244.5C 189.291,245.086 188.957,245.586 188.5,246C 186.5,246.667 184.5,246.667 182.5,246C 180.934,243.674 179.268,241.508 177.5,239.5 Z M 32.5,254.5 C 40.026,255.172 46.3593,258.339 51.5,264C 44.2531,262.915 37.5864,260.248 31.5,256C 32.056,255.617 32.3893,255.117 32.5,254.5 Z M 7.5,257.5 C 15.882,261.02 23.2154,266.02 29.5,272.5C 21.4112,271.705 14.5779,268.372 9,262.5C 7.99136,260.975 7.49136,259.308 7.5,257.5 Z M 143.5,299.5 C 145.36,286.724 147.86,274.057 151,261.5C 151.419,260.328 152.085,259.328 153,258.5C 154.987,273.404 151.821,287.07 143.5,299.5 Z M 80.5,300.5 C 84.4853,302.321 87.3186,305.321 89,309.5C 98.1503,343.989 95.817,344.989 82,312.5C 80.8436,308.582 80.3436,304.582 80.5,300.5 Z M 181.5,301.5 C 181.016,307.803 178.849,313.469 175,318.5C 167.095,329.129 158.595,339.296 149.5,349C 148.833,349.667 148.167,349.667 147.5,349C 155.254,333.263 164.587,318.596 175.5,305C 177.405,303.579 179.405,302.412 181.5,301.5 Z M 135.5,338.5 C 136.167,342.885 135.334,347.218 133,351.5C 132.473,346.911 133.307,342.578 135.5,338.5 Z M 99.5,364.5 C 90.5986,359.464 82.0986,353.797 74,347.5C 73.3333,346.5 73.3333,345.5 74,344.5C 75.7261,343.424 77.5594,343.257 79.5,344C 89.0751,348.074 95.7418,354.907 99.5,364.5 Z M 8.5,371.5 C 16.3115,382.433 24.1448,393.433 32,404.5C 57.52,427.824 79.02,454.157 96.5,483.5C 71.7193,459.223 48.5527,433.556 27,406.5C 18.1957,396.225 12.029,384.558 8.5,371.5 Z M 3.5,372.5 C 5.91953,380.562 9.41953,388.229 14,395.5C 20.9105,404.322 27.5772,413.322 34,422.5C 50.2927,442.293 67.4594,461.293 85.5,479.5C 86.1667,480.5 86.8333,481.5 87.5,482.5C 79.599,476.776 72.099,470.443 65,463.5C 52.4052,448.235 39.0719,433.568 25,419.5C 18.3286,410.833 12.6619,401.499 8,391.5C 5.39426,385.411 3.89426,379.078 3.5,372.5 Z"/></g>
<g><path style="opacity:0.5" fill="#99acb8" d="M 164.5,148.5 C 165.167,152.167 165.833,155.833 166.5,159.5C 166.539,160.756 166.039,161.756 165,162.5C 164.501,157.845 164.334,153.179 164.5,148.5 Z"/></g>
<g><path style="opacity:0.252" fill="#9cadb9" d="M 161.5,196.5 C 167.645,197.49 173.978,197.823 180.5,197.5C 173.679,198.655 166.679,198.821 159.5,198C 160.044,197.283 160.711,196.783 161.5,196.5 Z"/></g>
<g><path style="opacity:1" fill="#7e96a2" d="M 217.5,309.5 C 213.742,320.001 209.742,330.334 205.5,340.5C 205.795,338.265 205.461,336.265 204.5,334.5C 208.015,325.298 211.682,316.132 215.5,307C 215.333,306.5 215.167,306 215,305.5C 213.667,307.5 212.333,309.5 211,311.5C 201.095,332.436 190.928,353.102 180.5,373.5C 180.167,372.5 179.5,371.833 178.5,371.5C 188.44,351.288 198.106,330.955 207.5,310.5C 208.167,310.5 208.5,310.167 208.5,309.5C 209.338,309.158 209.672,308.492 209.5,307.5C 210.167,307.5 210.5,307.167 210.5,306.5C 211.833,306.167 211.833,305.833 210.5,305.5C 212.127,303.37 213.96,301.37 216,299.5C 216.5,300.667 217.333,301.5 218.5,302C 217.565,304.381 217.232,306.881 217.5,309.5 Z"/></g>
<g><path style="opacity:1" fill="#7e94a1" d="M 192.5,436.5 C 192.631,435.761 192.464,435.094 192,434.5C 191.292,435.381 190.458,436.047 189.5,436.5C 200.833,418.5 212.167,400.5 223.5,382.5C 211.167,397.167 198.833,411.833 186.5,426.5C 186.631,425.761 186.464,425.094 186,424.5C 182.571,428.439 178.737,431.772 174.5,434.5C 190.847,417.458 206.014,399.458 220,380.5C 223.733,377.322 226.566,373.989 228.5,370.5C 225.23,372.267 222.397,374.6 220,377.5C 206.795,395.031 192.295,411.531 176.5,427C 173.621,429.385 170.621,431.552 167.5,433.5C 167.631,432.624 167.298,431.957 166.5,431.5C 161.947,434.064 161.613,433.73 165.5,430.5C 166.167,430.5 166.5,430.167 166.5,429.5C 174.704,423.806 182.204,417.14 189,409.5C 199.833,396.667 210.667,383.833 221.5,371C 223.5,369.667 225.5,368.333 227.5,367C 231.181,365.686 233.514,366.853 234.5,370.5C 231.786,378.053 227.62,384.72 222,390.5C 214.748,402.001 207.748,413.668 201,425.5C 198.147,429.235 195.313,432.902 192.5,436.5 Z M 226.5,378.5 C 226.262,380.404 225.262,381.738 223.5,382.5C 223.738,380.596 224.738,379.262 226.5,378.5 Z"/></g>
<g><path style="opacity:0.106" fill="#9eafba" d="M 112.5,418.5 C 112.171,432.677 112.504,446.677 113.5,460.5C 113.44,461.043 113.107,461.376 112.5,461.5C 111.174,447.006 111.174,432.672 112.5,418.5 Z"/></g>
<g><path style="opacity:0.493" fill="#96aab6" d="M 125.5,459.5 C 132.313,460.491 139.313,460.825 146.5,460.5C 137.676,461.657 128.676,461.824 119.5,461C 121.345,459.872 123.345,459.372 125.5,459.5 Z"/></g>
<g><path style="opacity:0.898" fill="#95a7b3" d="M 58.5,462.5 C 62.7706,465.101 66.4372,468.434 69.5,472.5C 65.2294,469.899 61.5628,466.566 58.5,462.5 Z"/></g>
<g><path style="opacity:0.173" fill="#97acbb" d="M 85.5,479.5 C 89.2663,481.43 92.2663,484.264 94.5,488C 92.5415,487.903 90.8748,487.07 89.5,485.5C 90.8333,485.167 90.8333,484.833 89.5,484.5C 89.5,483.833 89.1667,483.5 88.5,483.5C 88.5,482.833 88.1667,482.5 87.5,482.5C 86.8333,481.5 86.1667,480.5 85.5,479.5 Z"/></g>
</svg>
