<?xml version="1.0" encoding="UTF-8"?>
<!DOCTYPE svg PUBLIC "-//W3C//DTD SVG 1.1//EN" "http://www.w3.org/Graphics/SVG/1.1/DTD/svg11.dtd">
<svg xmlns="http://www.w3.org/2000/svg" version="1.1" width="422px" height="415px" style="shape-rendering:geometricPrecision; text-rendering:geometricPrecision; image-rendering:optimizeQuality; fill-rule:evenodd; clip-rule:evenodd" xmlns:xlink="http://www.w3.org/1999/xlink">
<g><path style="opacity:0.678" fill="#c6ddeb" d="M 154.5,36.5 C 153.209,36.2627 152.209,36.596 151.5,37.5C 150.249,36.528 150.582,35.8614 152.5,35.5C 153.416,35.5427 154.083,35.8761 154.5,36.5 Z"/></g>
<g><path style="opacity:0.997" fill="#d0e6f3" d="M 154.5,36.5 C 170.154,41.3091 183.321,49.9758 194,62.5C 196.112,65.7271 197.945,69.0604 199.5,72.5C 198.596,73.209 198.263,74.209 198.5,75.5C 190.458,58.9951 177.792,47.8285 160.5,42C 179.717,58.2647 193.05,78.4313 200.5,102.5C 199.522,102.811 198.855,103.478 198.5,104.5C 199.747,107.708 199.413,108.042 197.5,105.5C 195.86,101.559 193.694,97.8924 191,94.5C 186.333,89.8333 181.667,85.1667 177,80.5C 171.078,69.6567 165.411,58.6567 160,47.5C 157.331,44.0003 154.498,40.667 151.5,37.5C 152.209,36.596 153.209,36.2627 154.5,36.5 Z M 166.5,52.5 C 174.179,59.513 180.679,67.513 186,76.5C 189.863,82.5529 192.863,88.8862 195,95.5C 189,88.8333 183,82.1667 177,75.5C 172.94,68.0501 169.44,60.3834 166.5,52.5 Z"/></g>
<g><path style="opacity:1" fill="#d8ecf8" d="M 262.5,79.5 C 262.784,81.4147 262.451,83.0813 261.5,84.5C 260.469,82.0392 259.802,79.3725 259.5,76.5C 259.108,74.8211 258.608,73.1545 258,71.5C 257.5,78.4921 257.334,85.4921 257.5,92.5C 257.5,92.8333 257.5,93.1667 257.5,93.5C 256.539,91.7354 256.205,89.7354 256.5,87.5C 256.81,84.2869 256.477,81.2869 255.5,78.5C 254.778,78.9175 254.278,79.5842 254,80.5C 253.536,79.9056 253.369,79.2389 253.5,78.5C 254.127,73.8592 254.46,69.1925 254.5,64.5C 255.675,64.281 256.675,64.6143 257.5,65.5C 259.971,69.9157 261.638,74.5823 262.5,79.5 Z"/></g>
<g><path style="opacity:1" fill="#d4e9f6" d="M 146.5,71.5 C 145.833,72.1667 145.167,72.8333 144.5,73.5C 142.379,73.6747 140.379,73.3414 138.5,72.5C 136.167,71.8333 133.833,71.1667 131.5,70.5C 136.472,69.2689 141.472,69.6022 146.5,71.5 Z"/></g>
<g><path style="opacity:0.699" fill="#c4dceb" d="M 259.5,76.5 C 258.833,81.8333 258.167,87.1667 257.5,92.5C 257.334,85.4921 257.5,78.4921 258,71.5C 258.608,73.1545 259.108,74.8211 259.5,76.5 Z"/></g>
<g><path style="opacity:0.967" fill="#d3e8f5" d="M 131.5,70.5 C 133.833,71.1667 136.167,71.8333 138.5,72.5C 130.978,72.4759 123.645,73.6425 116.5,76C 120.152,76.4986 123.818,76.6653 127.5,76.5C 124.023,77.3227 120.356,77.8227 116.5,78C 117.745,78.7914 119.078,79.2914 120.5,79.5C 128.67,84.3294 137.504,87.3294 147,88.5C 150.167,88.0992 153.334,87.7659 156.5,87.5C 165.589,88.8971 166.922,87.2304 160.5,82.5C 160.167,82.5 159.833,82.5 159.5,82.5C 159.158,81.6618 158.492,81.3284 157.5,81.5C 153.636,78.068 149.302,75.4013 144.5,73.5C 145.167,72.8333 145.833,72.1667 146.5,71.5C 155.835,74.5164 163.502,80.0164 169.5,88C 178.875,92.5733 187.542,98.0733 195.5,104.5C 193.302,104.409 192.969,105.075 194.5,106.5C 186.727,101.105 178.727,95.9386 170.5,91C 165.205,88.65 159.872,88.3167 154.5,90C 148.833,90.6667 143.167,90.6667 137.5,90C 128.352,86.2576 119.352,82.2576 110.5,78C 109.185,76.6054 109.519,75.6054 111.5,75C 117.969,72.5491 124.635,71.0491 131.5,70.5 Z M 120.5,79.5 C 134.811,78.3197 148.811,80.4864 162.5,86C 160.292,86.1909 158.292,86.6909 156.5,87.5C 153.334,87.7659 150.167,88.0992 147,88.5C 137.504,87.3294 128.67,84.3294 120.5,79.5 Z M 138.5,72.5 C 140.379,73.3414 142.379,73.6747 144.5,73.5C 149.302,75.4013 153.636,78.068 157.5,81.5C 147.675,78.8018 137.675,77.1351 127.5,76.5C 123.818,76.6653 120.152,76.4986 116.5,76C 123.645,73.6425 130.978,72.4759 138.5,72.5 Z"/></g>
<g><path style="opacity:0.81" fill="#cae1ef" d="M 127.5,76.5 C 137.675,77.1351 147.675,78.8018 157.5,81.5C 157.842,82.3382 158.508,82.6716 159.5,82.5C 159.833,83.8333 160.167,83.8333 160.5,82.5C 166.922,87.2304 165.589,88.8971 156.5,87.5C 158.292,86.6909 160.292,86.1909 162.5,86C 148.811,80.4864 134.811,78.3197 120.5,79.5C 119.078,79.2914 117.745,78.7914 116.5,78C 120.356,77.8227 124.023,77.3227 127.5,76.5 Z"/></g>
<g><path style="opacity:1" fill="#d2e7f3" d="M 253.5,78.5 C 253.369,79.2389 253.536,79.9056 254,80.5C 254.278,79.5842 254.778,78.9175 255.5,78.5C 254.502,82.6582 253.002,86.6582 251,90.5C 243.181,101.145 236.681,112.479 231.5,124.5C 231.649,123.448 231.483,122.448 231,121.5C 230.768,122.737 230.268,123.737 229.5,124.5C 230.19,119.113 232.023,114.113 235,109.5C 242.213,99.7324 248.38,89.3991 253.5,78.5 Z"/></g>
<g><path style="opacity:1" fill="#d6eaf6" d="M 161.5,102.5 C 164.287,101.523 167.287,101.19 170.5,101.5C 172.735,101.205 174.735,101.539 176.5,102.5C 176.5,103.167 176.5,103.833 176.5,104.5C 171.405,104.238 166.405,103.572 161.5,102.5 Z"/></g>
<g><path style="opacity:0.992" fill="#d2e7f4" d="M 170.5,101.5 C 167.287,101.19 164.287,101.523 161.5,102.5C 159.097,102.552 156.764,102.219 154.5,101.5C 152.483,100.126 150.483,100.293 148.5,102C 149.373,103.045 150.373,103.878 151.5,104.5C 158.095,113.928 166.428,121.428 176.5,127C 189.058,130.37 201.725,133.203 214.5,135.5C 214.833,136.833 215.167,136.833 215.5,135.5C 216.091,134.849 216.757,134.182 217.5,133.5C 217.376,132.893 217.043,132.56 216.5,132.5C 216.167,132.5 215.833,132.5 215.5,132.5C 215.5,131.833 215.167,131.5 214.5,131.5C 204.54,118.517 191.873,109.517 176.5,104.5C 176.5,103.833 176.5,103.167 176.5,102.5C 183.825,103.495 190.492,106.162 196.5,110.5C 197.107,110.376 197.44,110.043 197.5,109.5C 199.027,109.427 200.027,110.094 200.5,111.5C 199.167,111.833 199.167,112.167 200.5,112.5C 200.5,113.167 200.833,113.5 201.5,113.5C 201.5,114.167 201.833,114.5 202.5,114.5C 202.5,114.833 202.5,115.167 202.5,115.5C 208.167,120.5 213.5,125.833 218.5,131.5C 221.895,133.348 222.228,134.682 219.5,135.5C 221.359,137.846 222.359,140.179 222.5,142.5C 218.449,140.145 214.116,138.312 209.5,137C 199.11,135.278 188.777,133.278 178.5,131C 168.266,126.766 159.766,120.266 153,111.5C 149.97,107.302 147.137,102.968 144.5,98.5C 145.333,98.1667 146.167,97.8333 147,97.5C 154.919,99.1751 162.752,100.508 170.5,101.5 Z M 151.5,104.5 C 165.543,111.52 179.877,118.02 194.5,124C 201.593,127.297 208.26,131.131 214.5,135.5C 201.725,133.203 189.058,130.37 176.5,127C 166.428,121.428 158.095,113.928 151.5,104.5 Z M 154.5,101.5 C 156.764,102.219 159.097,102.552 161.5,102.5C 166.405,103.572 171.405,104.238 176.5,104.5C 191.873,109.517 204.54,118.517 214.5,131.5C 194.142,121.204 173.475,111.37 152.5,102C 153.094,101.536 153.761,101.369 154.5,101.5 Z"/></g>
<g><path style="opacity:0.996" fill="#cfe5f2" d="M 154.5,101.5 C 153.761,101.369 153.094,101.536 152.5,102C 173.475,111.37 194.142,121.204 214.5,131.5C 215.167,131.5 215.5,131.833 215.5,132.5C 215.833,133.833 216.167,133.833 216.5,132.5C 217.043,132.56 217.376,132.893 217.5,133.5C 216.757,134.182 216.091,134.849 215.5,135.5C 215.167,135.5 214.833,135.5 214.5,135.5C 208.26,131.131 201.593,127.297 194.5,124C 179.877,118.02 165.543,111.52 151.5,104.5C 150.373,103.878 149.373,103.045 148.5,102C 150.483,100.293 152.483,100.126 154.5,101.5 Z"/></g>
<g><path style="opacity:0.137" fill="#c3dbea" d="M 203.5,114.5 C 209.61,119.271 214.61,124.938 218.5,131.5C 213.5,125.833 208.167,120.5 202.5,115.5C 203.167,115.5 203.5,115.167 203.5,114.5 Z"/></g>
<g><path style="opacity:1" fill="#d6eaf6" d="M 231.5,124.5 C 231.276,128.179 230.942,131.846 230.5,135.5C 230.768,137.099 230.434,138.432 229.5,139.5C 229.167,139.5 228.833,139.5 228.5,139.5C 228.179,134.305 228.513,129.305 229.5,124.5C 230.268,123.737 230.768,122.737 231,121.5C 231.483,122.448 231.649,123.448 231.5,124.5 Z"/></g>
<g><path style="opacity:0.894" fill="#cee4f1" d="M 256.5,87.5 C 256.205,89.7354 256.539,91.7354 257.5,93.5C 257.313,95.5643 256.813,97.5643 256,99.5C 246.955,113.905 240.455,129.238 236.5,145.5C 236.737,144.209 236.404,143.209 235.5,142.5C 237.941,127.945 243.441,114.612 252,102.5C 254.253,97.5862 255.753,92.5862 256.5,87.5 Z"/></g>
<g><path style="opacity:0.98" fill="#d2e7f4" d="M 262.5,79.5 C 267.605,100.08 263.105,118.413 249,134.5C 244.95,141.584 241.784,148.917 239.5,156.5C 239.784,154.585 239.451,152.919 238.5,151.5C 239.526,145.439 241.693,139.772 245,134.5C 258.186,120.442 263.686,103.776 261.5,84.5C 262.451,83.0813 262.784,81.4147 262.5,79.5 Z"/></g>
<g><path style="opacity:1" fill="#d5e9f6" d="M 252.5,236.5 C 251.892,235.2 251.225,233.867 250.5,232.5C 250.543,231.584 250.876,230.917 251.5,230.5C 251.833,231.833 252.167,231.833 252.5,230.5C 256.602,225.895 260.936,221.395 265.5,217C 276.337,210.414 287.337,204.081 298.5,198C 307.875,188.752 313.709,177.585 316,164.5C 318.203,150.104 320.203,135.771 322,121.5C 319.713,123.054 317.546,124.721 315.5,126.5C 312.429,125.36 309.762,126.027 307.5,128.5C 306.508,128.328 305.842,128.662 305.5,129.5C 305.5,129.833 305.5,130.167 305.5,130.5C 288.22,138.565 273.387,149.898 261,164.5C 257.67,170.354 254.836,176.354 252.5,182.5C 252.657,181.127 252.49,179.793 252,178.5C 251.722,179.416 251.222,180.082 250.5,180.5C 254.658,166.157 262.658,154.323 274.5,145C 291.023,133.073 308.689,123.24 327.5,115.5C 324.012,132.358 321.179,149.358 319,166.5C 316.615,180.108 310.448,191.608 300.5,201C 288.838,207.162 277.504,213.829 266.5,221C 261.228,225.765 256.561,230.931 252.5,236.5 Z"/></g>
<g><path style="opacity:1" fill="#d8ebf8" d="M 199.5,72.5 C 206.148,84.1153 207.148,96.282 202.5,109C 212.489,118.216 221.156,128.382 228.5,139.5C 228.5,140.167 228.5,140.833 228.5,141.5C 229.32,143.14 230.153,144.807 231,146.5C 231.383,145.944 231.883,145.611 232.5,145.5C 233.404,146.209 233.737,147.209 233.5,148.5C 233.709,149.922 234.209,151.255 235,152.5C 235.498,149.183 235.665,145.85 235.5,142.5C 236.404,143.209 236.737,144.209 236.5,145.5C 236.335,148.85 236.502,152.183 237,155.5C 237.21,153.942 237.71,152.609 238.5,151.5C 239.451,152.919 239.784,154.585 239.5,156.5C 239.335,159.518 239.502,162.518 240,165.5C 242.799,174.028 244.965,182.695 246.5,191.5C 247.814,204.753 248.481,204.753 248.5,191.5C 248.43,187.575 249.097,183.909 250.5,180.5C 251.222,180.082 251.722,179.416 252,178.5C 252.49,179.793 252.657,181.127 252.5,182.5C 250.776,192.745 250.11,203.078 250.5,213.5C 250.055,218.101 250.722,222.435 252.5,226.5C 252.5,227.833 252.5,229.167 252.5,230.5C 252.167,230.5 251.833,230.5 251.5,230.5C 250.876,230.917 250.543,231.584 250.5,232.5C 251.225,233.867 251.892,235.2 252.5,236.5C 250.593,247.411 248.926,258.411 247.5,269.5C 247.167,269.5 246.833,269.5 246.5,269.5C 245.432,271.672 244.932,274.005 245,276.5C 245.915,275.672 246.581,274.672 247,273.5C 247.483,274.448 247.649,275.448 247.5,276.5C 245.703,279.928 244.036,283.428 242.5,287C 243.094,287.464 243.761,287.631 244.5,287.5C 246.698,287.409 247.031,288.075 245.5,289.5C 243.548,290.785 241.882,292.451 240.5,294.5C 251.508,296.002 262.174,298.835 272.5,303C 284.565,306.443 296.565,306.276 308.5,302.5C 309.873,302.343 311.207,302.51 312.5,303C 311.944,303.383 311.611,303.883 311.5,304.5C 301.181,308.253 290.514,309.42 279.5,308C 270.054,305.741 260.721,303.074 251.5,300C 248.139,299.663 244.806,299.163 241.5,298.5C 240.558,298.608 239.725,298.941 239,299.5C 233.094,317.123 228.761,335.123 226,353.5C 225.066,366.574 225.566,379.574 227.5,392.5C 226.178,392.67 225.011,392.337 224,391.5C 222.355,385.608 221.355,379.608 221,373.5C 220.871,363.136 221.204,352.803 222,342.5C 218.566,341.201 215.4,339.535 212.5,337.5C 214.309,336.709 216.309,336.709 218.5,337.5C 220.109,338.771 221.942,339.771 224,340.5C 224.818,334.651 224.652,328.985 223.5,323.5C 223.5,323.167 223.5,322.833 223.5,322.5C 223.205,320.265 223.539,318.265 224.5,316.5C 225.461,318.265 225.795,320.265 225.5,322.5C 225.336,325.187 225.503,327.854 226,330.5C 227.128,328.655 227.628,326.655 227.5,324.5C 232.725,305.656 238.058,286.823 243.5,268C 242.258,265.728 240.592,263.894 238.5,262.5C 236.969,261.075 237.302,260.409 239.5,260.5C 240.52,261.954 241.687,262.287 243,261.5C 243.333,262.167 243.667,262.833 244,263.5C 244.789,261.288 244.622,259.288 243.5,257.5C 242.215,254.411 241.549,251.078 241.5,247.5C 241.343,246.127 241.51,244.793 242,243.5C 242.667,245.5 243.333,247.5 244,249.5C 244.801,246.633 244.634,243.966 243.5,241.5C 243.5,241.167 243.5,240.833 243.5,240.5C 243.337,238.143 243.503,235.81 244,233.5C 244.198,235.382 244.698,237.048 245.5,238.5C 245.5,238.833 245.5,239.167 245.5,239.5C 245.21,243.936 245.71,248.27 247,252.5C 247.494,250.866 247.66,249.199 247.5,247.5C 247.964,234.415 247.298,221.415 245.5,208.5C 246.756,206.059 246.756,203.726 245.5,201.5C 245.5,201.167 245.5,200.833 245.5,200.5C 245.768,198.901 245.434,197.568 244.5,196.5C 241.443,180.161 236.276,164.494 229,149.5C 226.628,147.297 224.461,144.963 222.5,142.5C 222.359,140.179 221.359,137.846 219.5,135.5C 222.228,134.682 221.895,133.348 218.5,131.5C 214.61,124.938 209.61,119.271 203.5,114.5C 203.167,114.5 202.833,114.5 202.5,114.5C 201.833,114.5 201.5,114.167 201.5,113.5C 200.833,113.5 200.5,113.167 200.5,112.5C 200.5,112.167 200.5,111.833 200.5,111.5C 200.027,110.094 199.027,109.427 197.5,109.5C 196.167,108.833 195.167,107.833 194.5,106.5C 192.969,105.075 193.302,104.409 195.5,104.5C 196.167,104.833 196.833,105.167 197.5,105.5C 199.413,108.042 199.747,107.708 198.5,104.5C 198.855,103.478 199.522,102.811 200.5,102.5C 201.893,100.489 202.56,98.1554 202.5,95.5C 201.998,88.6436 200.665,81.9769 198.5,75.5C 198.263,74.209 198.596,73.209 199.5,72.5 Z"/></g>
<g><path style="opacity:0.898" fill="#cde3f0" d="M 230.5,135.5 C 231.581,138.627 232.247,141.96 232.5,145.5C 231.883,145.611 231.383,145.944 231,146.5C 230.153,144.807 229.32,143.14 228.5,141.5C 229.338,141.158 229.672,140.492 229.5,139.5C 230.434,138.432 230.768,137.099 230.5,135.5 Z"/></g>
<g><path style="opacity:0.651" fill="#c5dceb" d="M 235.5,142.5 C 235.665,145.85 235.498,149.183 235,152.5C 234.209,151.255 233.709,149.922 233.5,148.5C 234.167,146.5 234.833,144.5 235.5,142.5 Z"/></g>
<g><path style="opacity:0.008" fill="#c5e1f2" d="M 220.5,167.5 C 223.5,168.5 225.5,170.5 226.5,173.5C 224.167,171.833 222.167,169.833 220.5,167.5 Z"/></g>
<g><path style="opacity:1" fill="#d3e8f5" d="M 315.5,126.5 C 283.892,153.116 262.892,186.45 252.5,226.5C 250.722,222.435 250.055,218.101 250.5,213.5C 251.314,215.631 251.814,217.964 252,220.5C 260.869,185.083 278.702,155.083 305.5,130.5C 306.833,130.167 306.833,129.833 305.5,129.5C 305.842,128.662 306.508,128.328 307.5,128.5C 309.762,126.027 312.429,125.36 315.5,126.5 Z"/></g>
<g><path style="opacity:1" fill="#d5e9f6" d="M 208.5,188.5 C 207.209,188.263 206.209,188.596 205.5,189.5C 198.362,184.76 191.028,180.26 183.5,176C 178.727,173.102 173.727,171.102 168.5,170C 194.049,193.03 216.049,218.864 234.5,247.5C 234.591,249.698 233.925,250.031 232.5,248.5C 213.785,222.265 192.952,197.598 170,174.5C 168.377,195.98 175.877,213.48 192.5,227C 207.212,237.682 222.212,247.848 237.5,257.5C 237.5,258.167 237.833,258.5 238.5,258.5C 238.5,259.167 238.833,259.5 239.5,259.5C 239.5,259.833 239.5,260.167 239.5,260.5C 237.302,260.409 236.969,261.075 238.5,262.5C 215.918,250.102 195.418,234.769 177,216.5C 174.398,212.294 172.064,207.961 170,203.5C 168.453,193.137 166.786,182.804 165,172.5C 162.26,168.288 159.426,164.288 156.5,160.5C 168.133,164.479 179.466,169.312 190.5,175C 197.105,178.791 203.105,183.291 208.5,188.5 Z"/></g>
<g><path style="opacity:1" fill="#d6eaf7" d="M 220.5,167.5 C 222.167,169.833 224.167,171.833 226.5,173.5C 228.167,174.5 229.5,175.833 230.5,177.5C 230.591,179.698 229.925,180.031 228.5,178.5C 227.5,177.833 226.5,177.167 225.5,176.5C 225.5,175.833 225.167,175.5 224.5,175.5C 224.5,175.167 224.5,174.833 224.5,174.5C 222.539,172.037 220.372,169.703 218,167.5C 219.169,170.215 220.669,172.882 222.5,175.5C 222.167,176.167 221.833,176.833 221.5,177.5C 218.578,173.399 215.411,169.399 212,165.5C 212.932,171.824 214.266,178.157 216,184.5C 220.604,194.706 225.438,204.706 230.5,214.5C 229.075,212.969 228.409,213.302 228.5,215.5C 222.908,207.901 216.908,200.567 210.5,193.5C 209.415,191.413 207.749,190.08 205.5,189.5C 206.209,188.596 207.209,188.263 208.5,188.5C 209.5,188.833 210.167,189.5 210.5,190.5C 212.795,193.297 215.295,195.964 218,198.5C 218.008,196.179 217.175,194.179 215.5,192.5C 215.167,192.5 214.833,192.5 214.5,192.5C 212.147,183.573 209.98,174.573 208,165.5C 206.414,162.081 204.248,159.081 201.5,156.5C 202.035,154.899 203.035,154.399 204.5,155C 210.593,158.267 215.926,162.434 220.5,167.5 Z"/></g>
<g><path style="opacity:0.408" fill="#c4dceb" d="M 224.5,174.5 C 223.833,174.5 223.5,174.833 223.5,175.5C 223.167,175.5 222.833,175.5 222.5,175.5C 220.669,172.882 219.169,170.215 218,167.5C 220.372,169.703 222.539,172.037 224.5,174.5 Z"/></g>
<g><path style="opacity:1" fill="#d3e8f5" d="M 222.5,175.5 C 222.833,175.5 223.167,175.5 223.5,175.5C 223.833,175.5 224.167,175.5 224.5,175.5C 225.167,175.5 225.5,175.833 225.5,176.5C 236.766,195.632 243.432,216.299 245.5,238.5C 244.698,237.048 244.198,235.382 244,233.5C 243.503,235.81 243.337,238.143 243.5,240.5C 242.356,241.849 242.356,242.183 243.5,241.5C 244.634,243.966 244.801,246.633 244,249.5C 243.333,247.5 242.667,245.5 242,243.5C 241.51,244.793 241.343,246.127 241.5,247.5C 238.319,236.457 233.986,225.791 228.5,215.5C 228.409,213.302 229.075,212.969 230.5,214.5C 235.558,221.802 239.392,229.802 242,238.5C 239.657,216.637 232.824,196.304 221.5,177.5C 221.833,176.833 222.167,176.167 222.5,175.5 Z"/></g>
<g><path style="opacity:0.984" fill="#cbe0f0" d="M 205.5,189.5 C 207.749,190.08 209.415,191.413 210.5,193.5C 208.251,192.92 206.585,191.587 205.5,189.5 Z"/></g>
<g><path style="opacity:0.992" fill="#cfe4f2" d="M 230.5,177.5 C 236.242,183.966 240.742,191.3 244,199.5C 244.483,198.552 244.649,197.552 244.5,196.5C 245.434,197.568 245.768,198.901 245.5,200.5C 244.167,200.833 244.167,201.167 245.5,201.5C 246.756,203.726 246.756,206.059 245.5,208.5C 240.863,197.891 235.197,187.891 228.5,178.5C 229.925,180.031 230.591,179.698 230.5,177.5 Z"/></g>
<g><path style="opacity:0.129" fill="#c5dded" d="M 210.5,190.5 C 212.062,190.733 213.395,191.4 214.5,192.5C 214.833,193.833 215.167,193.833 215.5,192.5C 217.175,194.179 218.008,196.179 218,198.5C 215.295,195.964 212.795,193.297 210.5,190.5 Z"/></g>
<g><path style="opacity:0.516" fill="#c5ddec" d="M 246.5,191.5 C 247.167,191.5 247.833,191.5 248.5,191.5C 248.481,204.753 247.814,204.753 246.5,191.5 Z"/></g>
<g><path style="opacity:0.988" fill="#cee3f1" d="M 245.5,239.5 C 246.167,242.167 246.833,244.833 247.5,247.5C 247.66,249.199 247.494,250.866 247,252.5C 245.71,248.27 245.21,243.936 245.5,239.5 Z"/></g>
<g><path style="opacity:1" fill="#d4e8f5" d="M 311.5,304.5 C 311.611,303.883 311.944,303.383 312.5,303C 311.207,302.51 309.873,302.343 308.5,302.5C 314.233,300.129 319.566,296.962 324.5,293C 331,285.833 337.5,278.667 344,271.5C 347.833,268.333 351.667,265.167 355.5,262C 354.552,261.517 353.552,261.351 352.5,261.5C 354.292,260.691 356.292,260.191 358.5,260C 357.207,259.51 355.873,259.343 354.5,259.5C 341.144,253.982 327.81,248.149 314.5,242C 291.69,235.937 272.857,242.103 258,260.5C 254.228,265.727 250.728,271.061 247.5,276.5C 247.649,275.448 247.483,274.448 247,273.5C 246.581,274.672 245.915,275.672 245,276.5C 244.932,274.005 245.432,271.672 246.5,269.5C 246.833,272.167 247.167,272.167 247.5,269.5C 255.028,256.808 265.361,246.974 278.5,240C 290.714,235.743 303.047,235.41 315.5,239C 326.167,243.667 336.833,248.333 347.5,253C 353.657,255.289 359.991,256.789 366.5,257.5C 366.719,258.675 366.386,259.675 365.5,260.5C 360.667,263.082 356,265.915 351.5,269C 342.73,278.525 333.73,287.859 324.5,297C 320.438,300.029 316.105,302.529 311.5,304.5 Z"/></g>
<g><path style="opacity:0.988" fill="#cee4f1" d="M 234.5,247.5 C 237.807,251.426 240.64,255.76 243,260.5C 243.483,259.552 243.649,258.552 243.5,257.5C 244.622,259.288 244.789,261.288 244,263.5C 243.667,262.833 243.333,262.167 243,261.5C 241.687,262.287 240.52,261.954 239.5,260.5C 240.833,260.167 240.833,259.833 239.5,259.5C 238.833,259.5 238.5,259.167 238.5,258.5C 237.833,258.5 237.5,258.167 237.5,257.5C 236.087,254.339 234.42,251.339 232.5,248.5C 233.925,250.031 234.591,249.698 234.5,247.5 Z"/></g>
<g><path style="opacity:1" fill="#d5e9f6" d="M 354.5,259.5 C 355.873,259.343 357.207,259.51 358.5,260C 356.292,260.191 354.292,260.691 352.5,261.5C 330.597,263.447 308.931,266.947 287.5,272C 272.764,276.186 258.764,282.02 245.5,289.5C 247.031,288.075 246.698,287.409 244.5,287.5C 258.393,278.801 273.393,272.301 289.5,268C 310.81,262.408 332.477,259.575 354.5,259.5 Z"/></g>
<g><path style="opacity:1" fill="#d5e9f6" d="M 158.5,264.5 C 158.833,264.5 159.167,264.5 159.5,264.5C 163.7,281.29 170.867,296.624 181,310.5C 191.728,322.076 204.228,331.076 218.5,337.5C 216.309,336.709 214.309,336.709 212.5,337.5C 181.333,322.906 162.333,298.573 155.5,264.5C 155.351,263.448 155.517,262.448 156,261.5C 156.852,262.571 157.685,263.571 158.5,264.5 Z"/></g>
<g><path style="opacity:0.024" fill="#c6e0f0" d="M 193.5,298.5 C 194.906,298.973 195.573,299.973 195.5,301.5C 194.094,301.027 193.427,300.027 193.5,298.5 Z"/></g>
<g><path style="opacity:1" fill="#d4e8f5" d="M 224.5,316.5 C 223.539,318.265 223.205,320.265 223.5,322.5C 218.574,297.398 204.241,279.898 180.5,270C 174.938,267.37 169.271,265.37 163.5,264C 185.439,282.419 203.439,303.919 217.5,328.5C 217.672,329.492 217.338,330.158 216.5,330.5C 209.757,320.694 202.757,311.028 195.5,301.5C 195.573,299.973 194.906,298.973 193.5,298.5C 183.194,286.194 171.86,274.86 159.5,264.5C 159.167,263.167 158.833,263.167 158.5,264.5C 157.685,263.571 156.852,262.571 156,261.5C 155.517,262.448 155.351,263.448 155.5,264.5C 153.526,261.23 151.526,257.897 149.5,254.5C 150.723,253.386 152.056,253.219 153.5,254C 166.56,260.863 179.893,267.196 193.5,273C 210.277,282.939 220.611,297.439 224.5,316.5 Z"/></g>
<g><path style="opacity:0.575" fill="#c4ddec" d="M 225.5,322.5 C 226.167,323.167 226.833,323.833 227.5,324.5C 227.628,326.655 227.128,328.655 226,330.5C 225.503,327.854 225.336,325.187 225.5,322.5 Z"/></g>
<g><path style="opacity:0.929" fill="#cae1ef" d="M 223.5,323.5 C 224.652,328.985 224.818,334.651 224,340.5C 221.942,339.771 220.109,338.771 218.5,337.5C 219.239,337.631 219.906,337.464 220.5,337C 218.768,335.028 217.435,332.861 216.5,330.5C 217.338,330.158 217.672,329.492 217.5,328.5C 219.81,331.102 221.643,334.102 223,337.5C 223.499,332.845 223.666,328.179 223.5,323.5 Z"/></g>
</svg>
