<?xml version="1.0" encoding="UTF-8"?>
<!DOCTYPE svg PUBLIC "-//W3C//DTD SVG 1.1//EN" "http://www.w3.org/Graphics/SVG/1.1/DTD/svg11.dtd">
<svg xmlns="http://www.w3.org/2000/svg" version="1.1" width="602px" height="532px" style="shape-rendering:geometricPrecision; text-rendering:geometricPrecision; image-rendering:optimizeQuality; fill-rule:evenodd; clip-rule:evenodd" xmlns:xlink="http://www.w3.org/1999/xlink">
<g><path style="opacity:0.657" fill="#7fc1e9" d="M 601.5,147.5 C 601.5,155.167 601.5,162.833 601.5,170.5C 597.695,250.449 569.195,320.116 516,379.5C 441.605,453.808 353.439,477.974 251.5,452C 250,453.5 248.5,455 247,456.5C 241.328,469.172 232.495,479.005 220.5,486C 203.906,494.899 186.239,498.566 167.5,497C 166.833,496.333 166.167,495.667 165.5,495C 175.627,490.956 185.96,487.29 196.5,484C 206.402,478.424 216.902,475.924 228,476.5C 235.287,470.543 241.121,463.376 245.5,455C 242.691,454.82 240.024,455.487 237.5,457C 224.471,468.277 209.471,471.943 192.5,468C 180.837,463.834 168.837,461.167 156.5,460C 152.708,458.96 152.042,457.127 154.5,454.5C 160.053,452.065 165.886,451.065 172,451.5C 188.988,452.965 205.988,454.299 223,455.5C 233.446,454.611 243.613,452.444 253.5,449C 233.111,441.573 214.445,431.24 197.5,418C 184.391,410.561 171.891,411.395 160,420.5C 157.366,426.956 155.366,433.623 154,440.5C 151.398,444.212 147.898,445.378 143.5,444C 140.151,442.414 137.318,440.248 135,437.5C 129.032,439.517 124.865,437.684 122.5,432C 123.293,427.079 124.459,422.246 126,417.5C 127.745,415.251 129.912,413.584 132.5,412.5C 131.377,408.163 131.544,403.829 133,399.5C 133.667,397.5 135,396.167 137,395.5C 147.114,398.138 155.281,403.638 161.5,412C 170.831,410.888 180.165,410.554 189.5,411C 178.261,399.092 164.928,390.425 149.5,385C 146.167,384.333 142.833,384.333 139.5,385C 134.543,386.489 129.543,387.822 124.5,389C 120.245,389.796 116.079,389.629 112,388.5C 107.452,392.925 104.452,398.259 103,404.5C 97.6363,410.061 91.1363,411.895 83.5,410C 81.0197,408.518 78.8531,406.685 77,404.5C 73.4118,405.939 69.9118,405.772 66.5,404C 64.4964,398.667 61.6631,393.834 58,389.5C 56.3111,377.723 61.4777,372.723 73.5,374.5C 71.9089,371.18 72.9089,369.014 76.5,368C 80.7185,367.827 84.7185,366.827 88.5,365C 91.8333,364.333 95.1667,364.333 98.5,365C 102.926,370.578 106.426,376.745 109,383.5C 112.845,386.92 117.345,388.087 122.5,387C 130.616,384.221 138.95,382.554 147.5,382C 141.5,378.333 135.5,374.667 129.5,371C 124.312,367.312 119.978,362.812 116.5,357.5C 111.992,354.747 107.659,351.747 103.5,348.5C 101.78,349.934 99.7801,350.767 97.5,351C 82.5756,352.36 68.5756,349.36 55.5,342C 45.1003,334.071 45.1003,326.404 55.5,319C 49.0175,312.72 48.8508,306.22 55,299.5C 64.8236,291.342 74.3236,282.842 83.5,274C 89.2845,270.518 94.9512,270.684 100.5,274.5C 104.27,266.015 109.104,265.348 115,272.5C 117.973,277.079 119.973,282.079 121,287.5C 125.886,284.815 131.053,282.815 136.5,281.5C 139.161,282.332 141.828,283.166 144.5,284C 145.059,284.725 145.392,285.558 145.5,286.5C 143.412,290.345 141.579,294.345 140,298.5C 138.214,309.882 136.214,321.216 134,332.5C 130.701,337.903 125.868,340.903 119.5,341.5C 118.136,346.861 118.302,352.195 120,357.5C 123.167,362 127,365.833 131.5,369C 142.909,376.067 154.576,382.733 166.5,389C 173.931,393.928 180.931,399.428 187.5,405.5C 187.833,405 188.167,404.5 188.5,404C 185.985,397.29 183.985,390.457 182.5,383.5C 172.324,384.938 163.157,382.605 155,376.5C 154.257,374.559 154.424,372.726 155.5,371C 152.272,369.437 150.105,366.937 149,363.5C 148.542,359.323 148.708,355.157 149.5,351C 148.724,346.844 148.058,342.677 147.5,338.5C 150.667,338.4 153.667,339.067 156.5,340.5C 158.617,338.169 161.284,337.003 164.5,337C 165.022,336.439 165.355,335.772 165.5,335C 151.416,289.509 148.25,243.343 156,196.5C 166.102,167.611 181.768,142.278 203,120.5C 270.895,54.4729 352.061,14.9729 446.5,2C 534.914,-4.57998 585.747,35.92 599,123.5C 599.772,131.659 600.605,139.659 601.5,147.5 Z M 106.5,270.5 C 110.33,271.485 113.163,273.819 115,277.5C 117.804,285.93 119.304,294.596 119.5,303.5C 118.335,315.141 117.669,326.808 117.5,338.5C 114.813,338.336 112.146,338.503 109.5,339C 106.283,341.784 102.616,343.118 98.5,343C 86.722,337.202 76.5554,329.368 68,319.5C 63.3374,310.542 65.1707,303.376 73.5,298C 81.3372,295.792 89.0039,293.125 96.5,290C 99.974,283.552 103.307,277.052 106.5,270.5 Z M 89.5,273.5 C 93.5991,273.367 97.2657,274.533 100.5,277C 99.0036,280.149 97.5036,283.316 96,286.5C 94.4207,288.041 92.5873,289.208 90.5,290C 83.2361,291.565 76.2361,293.899 69.5,297C 63.6963,301.414 61.6963,307.081 63.5,314C 57.6564,319.065 54.3231,317.565 53.5,309.5C 53.7628,306.972 54.5961,304.639 56,302.5C 67.0868,292.568 78.2535,282.902 89.5,273.5 Z M 133.5,284.5 C 136.545,284.508 139.545,284.841 142.5,285.5C 140.143,290.231 138.31,295.231 137,300.5C 135.547,310.55 133.88,320.55 132,330.5C 129.295,335.19 125.295,338.19 120,339.5C 120.496,327.746 120.996,315.913 121.5,304C 121.472,299.45 121.139,294.95 120.5,290.5C 125.035,288.73 129.368,286.73 133.5,284.5 Z M 61.5,317.5 C 72.0708,330.165 85.0708,339.998 100.5,347C 93.608,348.591 86.608,348.924 79.5,348C 72.0247,345.73 64.6914,343.064 57.5,340C 52.0572,336.319 50.2239,331.486 52,325.5C 55.145,322.696 58.3117,320.03 61.5,317.5 Z M 176.5,365.5 C 169.672,358.366 163.672,350.532 158.5,342C 160.949,339.397 163.782,338.897 167,340.5C 170.18,348.854 173.347,357.188 176.5,365.5 Z M 112.5,340.5 C 114.665,340.116 116.332,340.783 117.5,342.5C 116.893,346.489 116.227,350.489 115.5,354.5C 112.027,350.929 108.027,348.096 103.5,346C 106.596,344.128 109.596,342.295 112.5,340.5 Z M 149.5,341.5 C 150.721,340.535 152.054,340.702 153.5,342C 161.333,351.833 169.167,361.667 177,371.5C 178.626,374.058 179.626,376.725 180,379.5C 173.025,375.93 165.858,372.763 158.5,370C 151.05,365.776 149.05,359.776 152.5,352C 151.971,348.243 150.971,344.743 149.5,341.5 Z M 106.5,384.5 C 96.3788,382.183 86.3788,379.35 76.5,376C 75.8333,374.667 75.1667,373.333 74.5,372C 79.8202,370.464 85.1536,368.797 90.5,367C 92.5,366.333 94.5,366.333 96.5,367C 100.491,372.486 103.825,378.319 106.5,384.5 Z M 156.5,372.5 C 163.596,375.034 170.596,377.867 177.5,381C 170.149,381.218 163.316,379.385 157,375.5C 156.517,374.552 156.351,373.552 156.5,372.5 Z M 64.5,377.5 C 77.7904,379.316 90.7904,382.482 103.5,387C 99.1203,391.048 94.4537,394.715 89.5,398C 83.7172,400.539 77.7172,402.372 71.5,403.5C 69.9707,403.471 68.804,402.804 68,401.5C 65.8391,396.508 63.1724,391.841 60,387.5C 59.6156,383.272 61.1156,379.939 64.5,377.5 Z M 230.5,435.5 C 217.255,429.625 205.422,421.625 195,411.5C 190.579,402.117 187.245,392.451 185,382.5C 196.901,402.968 212.068,420.634 230.5,435.5 Z M 104.5,389.5 C 105.239,389.369 105.906,389.536 106.5,390C 104.282,393.984 102.449,398.15 101,402.5C 94.4939,409.628 87.6605,410.128 80.5,404C 89.9515,401.446 97.9515,396.613 104.5,389.5 Z M 136.5,398.5 C 145.703,400.595 153.036,405.428 158.5,413C 150.481,413.61 142.481,413.443 134.5,412.5C 134.118,407.633 134.785,402.966 136.5,398.5 Z M 131.5,415.5 C 140.528,415.46 149.528,415.96 158.5,417C 154.134,421.701 149.467,426.034 144.5,430C 139.134,434.688 133.134,436.021 126.5,434C 125.316,427.098 126.982,420.932 131.5,415.5 Z M 153.5,425.5 C 154.412,431.188 153.079,436.521 149.5,441.5C 145.065,442.295 141.399,440.795 138.5,437C 144.255,434.069 149.255,430.236 153.5,425.5 Z M 160.5,455.5 C 163.74,454.153 167.24,453.486 171,453.5C 186.486,455.147 201.986,456.647 217.5,458C 198.469,458.062 179.469,457.229 160.5,455.5 Z M 166.5,459.5 C 167.964,458.84 169.631,458.507 171.5,458.5C 183.989,459.645 196.489,460.645 209,461.5C 216.258,460.825 223.424,459.992 230.5,459C 222.784,464.599 214.117,467.432 204.5,467.5C 195.621,466.264 186.954,464.097 178.5,461C 174.56,459.985 170.56,459.485 166.5,459.5 Z M 218.5,478.5 C 220.527,478.338 222.527,478.505 224.5,479C 210.302,485.18 195.635,489.513 180.5,492C 193.341,487.556 206.007,483.056 218.5,478.5 Z"/></g>
<g><path style="opacity:1" fill="#e5f1fa" d="M 458.5,2.5 C 532.003,0.527037 577.17,35.1937 594,106.5C 609.192,204.081 585.859,291.081 524,367.5C 458.282,441.408 376.449,470.908 278.5,456C 270.279,452.39 261.946,449.057 253.5,446C 244.132,439.622 237.298,431.122 233,420.5C 227.534,403.77 221.868,387.103 216,370.5C 213.584,365.999 210.917,361.666 208,357.5C 205.603,355.218 202.769,353.884 199.5,353.5C 205.439,372.252 210.606,391.252 215,410.5C 217.963,416.933 221.797,422.766 226.5,428C 225.833,428.667 225.167,428.667 224.5,428C 209.705,414.718 197.372,399.551 187.5,382.5C 189.949,380.224 191.782,377.558 193,374.5C 193.607,366.249 194.774,358.082 196.5,350C 196.646,347.966 195.98,346.299 194.5,345C 191.883,344.178 189.216,343.678 186.5,343.5C 185.756,337.772 182.422,334.772 176.5,334.5C 173.553,335.423 170.553,336.089 167.5,336.5C 155.939,296.948 151.439,256.615 154,215.5C 157.248,195.422 164.248,176.755 175,159.5C 196.124,128.043 222.29,101.543 253.5,80C 315.063,36.2171 383.396,10.3837 458.5,2.5 Z"/></g>
<g><path style="opacity:0.996" fill="#e5f1fa" d="M 170.5,337.5 C 174.182,337.335 177.848,337.501 181.5,338C 182.333,338.833 183.167,339.667 184,340.5C 185.975,352.158 185.975,363.825 184,375.5C 177.86,363.723 172.693,351.556 168.5,339C 169.416,338.722 170.082,338.222 170.5,337.5 Z"/></g>
<g><path style="opacity:0.996" fill="#e5f1fa" d="M 187.5,345.5 C 191.562,345.012 193.895,346.678 194.5,350.5C 192.821,358.085 191.654,365.752 191,373.5C 190.459,376.209 188.959,378.209 186.5,379.5C 185.628,377.534 185.795,375.534 187,373.5C 187.5,364.173 187.666,354.839 187.5,345.5 Z"/></g>
<g><path style="opacity:0.951" fill="#e5f1fa" d="M 212.5,370.5 C 210.777,368.747 209.277,366.747 208,364.5C 207.018,363.241 206.685,361.908 207,360.5C 209.619,363.406 211.453,366.739 212.5,370.5 Z"/></g>
<g><path style="opacity:0.986" fill="#e5f1fa" d="M 204.5,363.5 C 206.892,366.598 209.058,369.931 211,373.5C 216.601,388.636 221.601,403.969 226,419.5C 228.001,422.52 229.668,425.52 231,428.5C 224.649,423.489 219.982,417.156 217,409.5C 212.937,394.102 208.771,378.769 204.5,363.5 Z"/></g>
<g><path style="opacity:0.966" fill="#e5f1fa" d="M 212.5,370.5 C 213.892,372.273 215.059,374.273 216,376.5C 221.304,391.405 225.971,406.405 230,421.5C 224.076,404.562 218.243,387.562 212.5,370.5 Z"/></g>
<g><path style="opacity:0.905" fill="#daecf8" d="M 227.5,430.5 C 229.07,429.441 230.403,429.941 231.5,432C 229.934,432.3 228.601,431.8 227.5,430.5 Z"/></g>
<g><path style="opacity:0.953" fill="#e4f1fa" d="M 232.5,434.5 C 232.56,433.957 232.893,433.624 233.5,433.5C 236.54,434.68 239.206,436.347 241.5,438.5C 241.167,438.833 240.833,439.167 240.5,439.5C 237.816,437.807 235.149,436.14 232.5,434.5 Z"/></g>
</svg>
