<?xml version="1.0" encoding="UTF-8"?>
<!DOCTYPE svg PUBLIC "-//W3C//DTD SVG 1.1//EN" "http://www.w3.org/Graphics/SVG/1.1/DTD/svg11.dtd">
<svg xmlns="http://www.w3.org/2000/svg" version="1.1" width="211px" height="83px" style="shape-rendering:geometricPrecision; text-rendering:geometricPrecision; image-rendering:optimizeQuality; fill-rule:evenodd; clip-rule:evenodd" xmlns:xlink="http://www.w3.org/1999/xlink">
<g><path style="opacity:0.916" fill="#5a95aa" d="M 48.5,26.5 C 48.8919,23.2784 48.3919,20.2784 47,17.5C 46.5357,18.0944 46.369,18.7611 46.5,19.5C 43.0005,18.934 40.6672,20.6007 39.5,24.5C 41.1653,24.166 42.9986,24.166 45,24.5C 45.2784,23.5842 45.7784,22.9175 46.5,22.5C 46.0233,25.4375 45.0233,28.1042 43.5,30.5C 43.3536,25.5789 42.3536,25.5789 40.5,30.5C 39.1667,31.1667 39.1667,31.8333 40.5,32.5C 40.6716,33.4916 40.3382,34.1583 39.5,34.5C 39.1667,34.5 38.8333,34.5 38.5,34.5C 38.6495,33.448 38.4828,32.448 38,31.5C 37.5034,33.8098 37.3367,36.1432 37.5,38.5C 37.1667,38.5 36.8333,38.5 36.5,38.5C 36.1977,34.2095 36.8643,30.2095 38.5,26.5C 38.7709,24.6203 38.1042,23.287 36.5,22.5C 36.6086,16.2733 39.2753,11.6066 44.5,8.5C 46.7411,9.03177 48.2411,10.3651 49,12.5C 49.8151,17.3522 49.6484,22.0189 48.5,26.5 Z M 46.5,19.5 C 46.5,20.5 46.5,21.5 46.5,22.5C 45.7784,22.9175 45.2784,23.5842 45,24.5C 42.9986,24.166 41.1653,24.166 39.5,24.5C 40.6672,20.6007 43.0005,18.934 46.5,19.5 Z M 40.5,17.5 C 40.7372,14.1032 42.4039,12.2699 45.5,12C 48.5127,15.2398 48.1794,16.4065 44.5,15.5C 42.9271,15.7517 41.5938,16.4183 40.5,17.5 Z M 43.5,30.5 C 42.5,30.5 41.5,30.5 40.5,30.5C 42.3536,25.5789 43.3536,25.5789 43.5,30.5 Z"/></g>
<g><path style="opacity:1" fill="#5694ab" d="M 131.5,29.5 C 133.607,30.4682 135.941,30.8016 138.5,30.5C 132.788,31.2017 127.121,32.2017 121.5,33.5C 118.402,33.5875 118.068,33.0875 120.5,32C 119.167,31.3333 119.167,30.6667 120.5,30C 119.584,29.6258 118.75,29.1258 118,28.5C 116.371,28.1637 114.871,28.8304 113.5,30.5C 119.364,21.305 127.364,14.6383 137.5,10.5C 142.253,11.6693 143.42,14.3359 141,18.5C 136.55,23.61 131.05,27.11 124.5,29C 126.81,29.4966 129.143,29.6633 131.5,29.5 Z M 131.5,16.5 C 133.684,14.4152 136.351,13.4152 139.5,13.5C 139.688,15.1033 139.188,16.4366 138,17.5C 135.959,16.5769 133.792,16.2436 131.5,16.5 Z"/></g>
<g><path style="opacity:0.996" fill="#5895ab" d="M 85.5,33.5 C 84.593,30.7897 85.593,28.623 88.5,27C 88.0426,26.586 87.7093,26.086 87.5,25.5C 89.1713,23.4902 89.838,21.1569 89.5,18.5C 90.2679,19.2625 90.7679,20.2625 91,21.5C 93.6122,19.7193 94.2789,17.7193 93,15.5C 90.8796,16.1402 89.0463,17.1402 87.5,18.5C 86.2317,19.787 86.565,20.787 88.5,21.5C 87.2402,22.3816 86.0736,23.3816 85,24.5C 84.6667,23.8333 84.3333,23.1667 84,22.5C 83.5814,23.6721 82.9147,24.6721 82,25.5C 80.8446,24.6619 79.6779,23.6619 78.5,22.5C 80.9019,13.9309 86.4019,8.5976 95,6.5C 97.4059,6.70294 99.4059,7.70294 101,9.5C 101.701,12.9283 101.368,16.2617 100,19.5C 95.9584,25.0425 91.1251,29.7092 85.5,33.5 Z M 89.5,18.5 C 88.8333,18.5 88.1667,18.5 87.5,18.5C 89.0463,17.1402 90.8796,16.1402 93,15.5C 94.2789,17.7193 93.6122,19.7193 91,21.5C 90.7679,20.2625 90.2679,19.2625 89.5,18.5 Z M 96.5,18.5 C 96.6602,16.8008 96.4935,15.1341 96,13.5C 91.5363,12.6322 87.7029,13.9655 84.5,17.5C 86.5814,12.9235 90.0814,9.92352 95,8.5C 100.493,11.1458 100.993,14.4792 96.5,18.5 Z"/></g>
<g><path style="opacity:0.971" fill="#5a94aa" d="M 171.5,28.5 C 165.304,28.4538 159.304,28.2872 153.5,28C 156.464,27.1597 156.797,26.1597 154.5,25C 157.079,23.3883 157.079,21.8883 154.5,20.5C 152.714,22.0211 150.881,22.3544 149,21.5C 147.961,22.7101 146.794,23.7101 145.5,24.5C 145.859,22.629 146.859,21.129 148.5,20C 151.221,17.9728 154.221,16.4728 157.5,15.5C 163.481,18.2752 164.148,22.1085 159.5,27C 163.688,27.1762 167.688,27.6762 171.5,28.5 Z"/></g>
<g><path style="opacity:1" fill="#5894aa" d="M 42.5,-0.5 C 44.8333,-0.5 47.1667,-0.5 49.5,-0.5C 53.1668,2.15033 55.3335,5.817 56,10.5C 56.7892,16.3176 56.2892,21.9842 54.5,27.5C 53.596,26.791 53.2627,25.791 53.5,24.5C 54.9626,17.597 54.1293,10.9304 51,4.5C 45.3529,0.453231 41.0196,1.78656 38,8.5C 35.6654,13.1491 35.1654,17.8157 36.5,22.5C 35.9552,25.8131 35.4552,29.1464 35,32.5C 34.8261,27.3165 34.3261,22.3165 33.5,17.5C 33.4778,9.84993 36.4778,3.84993 42.5,-0.5 Z M 46.5,19.5 C 46.5,20.5 46.5,21.5 46.5,22.5C 45.7784,22.9175 45.2784,23.5842 45,24.5C 42.9986,24.166 41.1653,24.166 39.5,24.5C 40.6672,20.6007 43.0005,18.934 46.5,19.5 Z M 40.5,17.5 C 41.5938,16.4183 42.9271,15.7517 44.5,15.5C 48.1794,16.4065 48.5127,15.2398 45.5,12C 42.4039,12.2699 40.7372,14.1032 40.5,17.5 Z"/></g>
<g><path style="opacity:1" fill="#4e95ae" d="M 171.5,28.5 C 172.5,28.5 173.5,28.5 174.5,28.5C 168.681,29.3276 162.681,29.8276 156.5,30C 157.527,30.5133 158.527,31.0133 159.5,31.5C 159.414,32.4959 159.748,33.3292 160.5,34C 158.443,34.3052 156.443,34.3052 154.5,34C 158.121,35.6313 161.121,37.9646 163.5,41C 163,41.5 162.5,42 162,42.5C 157.665,38.5881 152.831,35.5881 147.5,33.5C 144.792,31.6469 141.792,30.6469 138.5,30.5C 135.941,30.8016 133.607,30.4682 131.5,29.5C 135.142,28.9196 138.809,28.4196 142.5,28C 143.163,26.4815 144.163,25.3149 145.5,24.5C 146.794,23.7101 147.961,22.7101 149,21.5C 150.881,22.3544 152.714,22.0211 154.5,20.5C 157.079,21.8883 157.079,23.3883 154.5,25C 156.797,26.1597 156.464,27.1597 153.5,28C 159.304,28.2872 165.304,28.4538 171.5,28.5 Z"/></g>
<g><path style="opacity:1" fill="#4f95ad" d="M 210.5,27.5 C 210.5,28.1667 210.5,28.8333 210.5,29.5C 209.733,30.172 209.066,31.0053 208.5,32C 199.197,35.2405 190.197,34.7405 181.5,30.5C 183.167,29.8333 184.833,29.1667 186.5,28.5C 192.342,26.5401 198.342,25.2068 204.5,24.5C 206.741,25.1286 208.741,26.1286 210.5,27.5 Z"/></g>
<g><path style="opacity:0.408" fill="#5f95a9" d="M 174.5,28.5 C 178.5,28.5 182.5,28.5 186.5,28.5C 184.833,29.1667 183.167,29.8333 181.5,30.5C 173.981,30.175 166.648,30.5084 159.5,31.5C 158.527,31.0133 157.527,30.5133 156.5,30C 162.681,29.8276 168.681,29.3276 174.5,28.5 Z"/></g>
<g><path style="opacity:0.894" fill="#5895ab" d="M 31.5,54.5 C 31.8333,55.1667 32.1667,55.8333 32.5,56.5C 27.8333,58.5 23.1667,60.5 18.5,62.5C 15.1382,60.1177 14.8049,57.451 17.5,54.5C 18.6737,53.4863 19.3404,52.153 19.5,50.5C 19.5,49.8333 19.5,49.1667 19.5,48.5C 23.7567,37.4242 23.2567,26.4242 18,15.5C 10.4079,6.75254 5.57457,8.08588 3.5,19.5C 3.76781,17.901 3.43448,16.5676 2.5,15.5C 3.39229,9.04754 7.05895,6.54754 13.5,8C 18.5091,11.1785 21.6757,15.6785 23,21.5C 25.9972,34.3917 24.4972,46.725 18.5,58.5C 18.8333,58.8333 19.1667,59.1667 19.5,59.5C 23.5213,57.8208 27.5213,56.1541 31.5,54.5 Z"/></g>
<g><path style="opacity:1" fill="#4f95ad" d="M 48.5,26.5 C 48.2024,32.0517 46.5357,37.0517 43.5,41.5C 42.8826,41.3893 42.3826,41.056 42,40.5C 39.8462,44.3185 39.0129,44.1518 39.5,40C 39.1639,38.9701 38.4972,38.4701 37.5,38.5C 37.3367,36.1432 37.5034,33.8098 38,31.5C 38.4828,32.448 38.6495,33.448 38.5,34.5C 38.8333,35.8333 39.1667,35.8333 39.5,34.5C 40.3382,34.1583 40.6716,33.4916 40.5,32.5C 40.5,31.8333 40.5,31.1667 40.5,30.5C 41.5,30.5 42.5,30.5 43.5,30.5C 45.0233,28.1042 46.0233,25.4375 46.5,22.5C 46.5,21.5 46.5,20.5 46.5,19.5C 46.369,18.7611 46.5357,18.0944 47,17.5C 48.3919,20.2784 48.8919,23.2784 48.5,26.5 Z"/></g>
<g><path style="opacity:1" fill="#5495ac" d="M 87.5,18.5 C 88.1667,18.5 88.8333,18.5 89.5,18.5C 89.838,21.1569 89.1713,23.4902 87.5,25.5C 87.7093,26.086 88.0426,26.586 88.5,27C 85.593,28.623 84.593,30.7897 85.5,33.5C 84.0384,34.4577 82.7051,35.6244 81.5,37C 90.4308,35.4491 99.4308,33.9491 108.5,32.5C 110.167,33.1667 111.833,33.8333 113.5,34.5C 103.329,35.362 93.3289,37.1953 83.5,40C 84.448,40.4828 85.448,40.6495 86.5,40.5C 84.369,41.3138 82.0356,41.8138 79.5,42C 80.4158,42.2784 81.0825,42.7784 81.5,43.5C 81.8333,44.1667 82.1667,44.8333 82.5,45.5C 78.8483,44.371 75.1816,43.371 71.5,42.5C 70.5084,42.6716 69.8417,42.3382 69.5,41.5C 72.2449,35.0117 75.2449,28.6784 78.5,22.5C 79.6779,23.6619 80.8446,24.6619 82,25.5C 82.9147,24.6721 83.5814,23.6721 84,22.5C 84.3333,23.1667 84.6667,23.8333 85,24.5C 86.0736,23.3816 87.2402,22.3816 88.5,21.5C 86.565,20.787 86.2317,19.787 87.5,18.5 Z"/></g>
<g><path style="opacity:0.898" fill="#5a95aa" d="M 19.5,48.5 C 18.1667,49.1667 18.1667,49.8333 19.5,50.5C 19.3404,52.153 18.6737,53.4863 17.5,54.5C 17.1431,47.1171 16.4765,41.7838 15.5,38.5C 15.1667,38.5 14.8333,38.5 14.5,38.5C 13.5,30.5 12.5,30.5 11.5,38.5C 11.1667,38.5 10.8333,38.5 10.5,38.5C 10.7373,37.209 10.404,36.209 9.5,35.5C 9.95228,30.522 12.1189,29.522 16,32.5C 16.2488,28.5881 14.9155,25.2547 12,22.5C 10.3838,24.7133 9.21716,27.0466 8.5,29.5C 8.73731,28.209 8.40397,27.209 7.5,26.5C 7.52832,20.9596 10.0283,19.2929 15,21.5C 19.0175,30.0217 20.5175,39.0217 19.5,48.5 Z M 14.5,38.5 C 13.5,38.5 12.5,38.5 11.5,38.5C 12.5,30.5 13.5,30.5 14.5,38.5 Z"/></g>
<g><path style="opacity:1" fill="#5095ad" d="M 121.5,33.5 C 125.915,33.8606 129.915,35.1939 133.5,37.5C 132.402,38.397 132.402,39.2303 133.5,40C 136.433,41.2709 139.099,42.9376 141.5,45C 139.505,45.9236 139.172,47.0903 140.5,48.5C 141.167,48.5 141.833,48.5 142.5,48.5C 142.5,49.1667 142.833,49.5 143.5,49.5C 144.195,51.4373 143.195,52.4373 140.5,52.5C 135.11,49.2897 130.11,45.4564 125.5,41C 121.566,38.5361 117.566,36.3694 113.5,34.5C 111.833,33.8333 110.167,33.1667 108.5,32.5C 110.167,31.8333 111.833,31.1667 113.5,30.5C 114.871,28.8304 116.371,28.1637 118,28.5C 118.75,29.1258 119.584,29.6258 120.5,30C 119.167,30.6667 119.167,31.3333 120.5,32C 118.068,33.0875 118.402,33.5875 121.5,33.5 Z"/></g>
<g><path style="opacity:0.992" fill="#5895ab" d="M 159.5,31.5 C 165.505,32.9845 170.338,36.3178 174,41.5C 176.401,45.6994 175.234,48.3661 170.5,49.5C 161.182,46.511 153.515,41.1777 147.5,33.5C 152.831,35.5881 157.665,38.5881 162,42.5C 162.5,42 163,41.5 163.5,41C 161.121,37.9646 158.121,35.6313 154.5,34C 156.443,34.3052 158.443,34.3052 160.5,34C 159.748,33.3292 159.414,32.4959 159.5,31.5 Z M 166.5,41.5 C 169.199,44.2721 168.866,44.7721 165.5,43C 166.056,42.6174 166.389,42.1174 166.5,41.5 Z"/></g>
<g><path style="opacity:0.959" fill="#5895ab" d="M 133.5,37.5 C 141.201,39.7085 147.367,44.0418 152,50.5C 153.141,53.8568 151.975,55.8568 148.5,56.5C 145.259,56.1001 142.593,54.7668 140.5,52.5C 143.195,52.4373 144.195,51.4373 143.5,49.5C 142.833,49.5 142.5,49.1667 142.5,48.5C 141.452,46.0673 140.786,46.0673 140.5,48.5C 139.172,47.0903 139.505,45.9236 141.5,45C 139.099,42.9376 136.433,41.2709 133.5,40C 132.402,39.2303 132.402,38.397 133.5,37.5 Z M 142.5,48.5 C 141.833,48.5 141.167,48.5 140.5,48.5C 140.786,46.0673 141.452,46.0673 142.5,48.5 Z M 147.5,49.5 C 151.987,53.0731 151.32,54.2398 145.5,53C 146.973,52.2904 147.64,51.1238 147.5,49.5 Z"/></g>
<g><path style="opacity:0.902" fill="#5895ab" d="M 2.5,15.5 C 3.43448,16.5676 3.76781,17.901 3.5,19.5C 4.08699,25.1945 4.92033,30.8612 6,36.5C 6.17871,32.9748 6.67871,29.6414 7.5,26.5C 8.40397,27.209 8.73731,28.209 8.5,29.5C 8.20528,31.7354 8.53862,33.7354 9.5,35.5C 10.404,36.209 10.7373,37.209 10.5,38.5C 10.8333,41.1667 11.1667,41.1667 11.5,38.5C 12.5,38.5 13.5,38.5 14.5,38.5C 14.5,39.1667 14.8333,39.5 15.5,39.5C 15.0372,42.3303 14.3705,44.997 13.5,47.5C 12.1667,47.8333 12.1667,48.1667 13.5,48.5C 12.7039,51.8614 12.0372,52.0281 11.5,49C 11.8443,47.6349 12.5109,46.4682 13.5,45.5C 13.1373,44.8165 12.8039,44.1499 12.5,43.5C 13.8333,43.1667 13.8333,42.8333 12.5,42.5C 12.5654,42.0618 12.3988,41.7284 12,41.5C 11.0009,45.2372 9.66754,45.2372 8,41.5C 7.33333,45.5 6.66667,45.5 6,41.5C 5.51722,42.448 5.35055,43.448 5.5,44.5C 2.34912,35.0991 1.34912,25.4324 2.5,15.5 Z"/></g>
<g><path style="opacity:0.936" fill="#5894aa" d="M 86.5,40.5 C 100.671,41.5084 113.171,46.5084 124,55.5C 128.057,60.8353 126.89,64.1686 120.5,65.5C 113.032,64.0958 106.365,61.0958 100.5,56.5C 103.728,55.5844 106.728,56.2511 109.5,58.5C 109.5,59.1667 109.833,59.5 110.5,59.5C 110.5,59.1667 110.5,58.8333 110.5,58.5C 111.492,58.6716 112.158,58.3382 112.5,57.5C 113.552,57.6495 114.552,57.4828 115.5,57C 113.296,54.4055 110.63,52.5722 107.5,51.5C 107.167,50.1667 106.833,50.1667 106.5,51.5C 105.761,51.369 105.094,51.5357 104.5,52C 105.696,52.6543 105.696,53.1543 104.5,53.5C 101.716,52.6083 99.0496,51.4416 96.5,50C 98.3806,50.096 100.047,49.9293 101.5,49.5C 100.833,49.5 100.5,49.1667 100.5,48.5C 100.167,47.1667 99.8333,47.1667 99.5,48.5C 98.5084,48.6716 97.8417,48.3382 97.5,47.5C 98.1826,46.3559 97.8493,46.3559 96.5,47.5C 95.8333,47.5 95.5,47.1667 95.5,46.5C 95.1667,45.1667 94.8333,45.1667 94.5,46.5C 92.3441,48.1177 90.6774,47.7843 89.5,45.5C 88.7777,44.4489 87.7777,43.7822 86.5,43.5C 85.5,42.1667 84.5,42.1667 83.5,43.5C 82.8333,43.5 82.1667,43.5 81.5,43.5C 81.0825,42.7784 80.4158,42.2784 79.5,42C 82.0356,41.8138 84.369,41.3138 86.5,40.5 Z M 116.5,53.5 C 121.069,55.0263 123.069,58.0263 122.5,62.5C 118.149,63.079 114.149,62.079 110.5,59.5C 113.167,59.5 115.833,59.5 118.5,59.5C 118.747,57.1417 118.081,55.1417 116.5,53.5 Z"/></g>
<g><path style="opacity:1" fill="#5295ad" d="M 81.5,43.5 C 82.1667,43.5 82.8333,43.5 83.5,43.5C 84.5,43.5 85.5,43.5 86.5,43.5C 87.7777,43.7822 88.7777,44.4489 89.5,45.5C 90.6774,47.7843 92.3441,48.1177 94.5,46.5C 94.8333,46.5 95.1667,46.5 95.5,46.5C 95.5,47.1667 95.8333,47.5 96.5,47.5C 96.8333,47.5 97.1667,47.5 97.5,47.5C 97.8417,48.3382 98.5084,48.6716 99.5,48.5C 99.8333,48.5 100.167,48.5 100.5,48.5C 100.5,49.1667 100.833,49.5 101.5,49.5C 100.047,49.9293 98.3806,50.096 96.5,50C 99.0496,51.4416 101.716,52.6083 104.5,53.5C 105.696,53.1543 105.696,52.6543 104.5,52C 105.094,51.5357 105.761,51.369 106.5,51.5C 106.833,51.5 107.167,51.5 107.5,51.5C 108.942,52.8195 109.608,54.4862 109.5,56.5C 110.791,56.2627 111.791,56.596 112.5,57.5C 112.158,58.3382 111.492,58.6716 110.5,58.5C 110.167,58.5 109.833,58.5 109.5,58.5C 106.728,56.2511 103.728,55.5844 100.5,56.5C 94.492,52.8301 88.492,49.1635 82.5,45.5C 82.1667,44.8333 81.8333,44.1667 81.5,43.5 Z"/></g>
<g><path style="opacity:1" fill="#5995ab" d="M 53.5,24.5 C 53.2627,25.791 53.596,26.791 54.5,27.5C 52.7123,35.9094 48.7123,43.076 42.5,49C 51.279,46.0528 60.279,43.5528 69.5,41.5C 69.8417,42.3382 70.5084,42.6716 71.5,42.5C 63.0052,45.0407 54.6718,48.0407 46.5,51.5C 45.209,51.2627 44.209,51.596 43.5,52.5C 45.2922,53.3091 47.2922,53.8091 49.5,54C 48.6634,55.0113 48.33,56.1779 48.5,57.5C 47.209,57.7373 46.209,57.404 45.5,56.5C 46.3764,56.6309 47.0431,56.2975 47.5,55.5C 45.9547,54.5481 44.288,54.2148 42.5,54.5C 41.7375,53.7321 40.7375,53.2321 39.5,53C 42.1667,52.3333 42.1667,51.6667 39.5,51C 42.1181,49.2559 41.7848,48.0892 38.5,47.5C 38.2648,46.9033 37.7648,46.5699 37,46.5C 35.9889,47.0556 35.1556,47.7222 34.5,48.5C 35.1667,45.5 35.8333,42.5 36.5,39.5C 37.1667,39.5 37.5,39.1667 37.5,38.5C 38.4972,38.4701 39.1639,38.9701 39.5,40C 39.0129,44.1518 39.8462,44.3185 42,40.5C 42.3826,41.056 42.8826,41.3893 43.5,41.5C 43.369,42.2389 43.5357,42.9056 44,43.5C 48.8001,37.8999 51.9667,31.5666 53.5,24.5 Z"/></g>
<g><path style="opacity:1" fill="#5295ad" d="M 33.5,17.5 C 34.3261,22.3165 34.8261,27.3165 35,32.5C 35.4552,29.1464 35.9552,25.8131 36.5,22.5C 38.1042,23.287 38.7709,24.6203 38.5,26.5C 36.8643,30.2095 36.1977,34.2095 36.5,38.5C 36.5,38.8333 36.5,39.1667 36.5,39.5C 35.8333,42.5 35.1667,45.5 34.5,48.5C 34.369,49.2389 34.5357,49.9056 35,50.5C 36.0391,49.2899 37.2058,48.2899 38.5,47.5C 41.7848,48.0892 42.1181,49.2559 39.5,51C 42.1667,51.6667 42.1667,52.3333 39.5,53C 40.7375,53.2321 41.7375,53.7321 42.5,54.5C 42.754,55.3321 43.754,55.9987 45.5,56.5C 46.209,57.404 47.209,57.7373 48.5,57.5C 48.33,56.1779 48.6634,55.0113 49.5,54C 47.2922,53.8091 45.2922,53.3091 43.5,52.5C 44.791,52.7373 45.791,52.404 46.5,51.5C 54.0555,51.3099 61.3888,51.9766 68.5,53.5C 67.791,54.404 66.791,54.7373 65.5,54.5C 65.1667,54.5 64.8333,54.5 64.5,54.5C 60.8574,52.8909 57.5241,53.2243 54.5,55.5C 53.1266,55.3433 51.7932,55.51 50.5,56C 51.4158,56.2784 52.0825,56.7784 52.5,57.5C 50.847,57.6596 49.5137,58.3263 48.5,59.5C 43.0663,58.3502 37.7329,57.3502 32.5,56.5C 32.1667,55.8333 31.8333,55.1667 31.5,54.5C 32.6156,48.7402 33.2822,42.9069 33.5,37C 32.555,30.3299 32.555,23.8299 33.5,17.5 Z M 42.5,54.5 C 44.288,54.2148 45.9547,54.5481 47.5,55.5C 47.0431,56.2975 46.3764,56.6309 45.5,56.5C 43.754,55.9987 42.754,55.3321 42.5,54.5 Z"/></g>
<g><path style="opacity:1" fill="#4f95ad" d="M 52.5,57.5 C 54.1667,58.8333 55.8333,58.8333 57.5,57.5C 58.5,57.5 59.5,57.5 60.5,57.5C 60.8333,57.5 61.1667,57.5 61.5,57.5C 60.7375,58.2679 59.7375,58.7679 58.5,59C 60.8543,59.8471 63.1877,60.6805 65.5,61.5C 65.8333,61.5 66.1667,61.5 66.5,61.5C 69.3953,62.7987 72.062,64.4654 74.5,66.5C 74.8333,66.5 75.1667,66.5 75.5,66.5C 76.2625,67.2679 77.2625,67.7679 78.5,68C 75.4557,68.3589 75.1224,69.0255 77.5,70C 76.255,70.7914 74.9217,71.2914 73.5,71.5C 65.2236,67.1937 56.8903,63.1937 48.5,59.5C 49.5137,58.3263 50.847,57.6596 52.5,57.5 Z"/></g>
<g><path style="opacity:0.976" fill="#5994aa" d="M 64.5,54.5 C 64.8333,55.8333 65.1667,55.8333 65.5,54.5C 66.791,54.7373 67.791,54.404 68.5,53.5C 80.4704,54.9021 90.6371,59.9021 99,68.5C 101.076,71.2171 101.743,74.2171 101,77.5C 96.3666,79.935 91.5333,80.1017 86.5,78C 81.8268,76.3301 77.4934,74.1634 73.5,71.5C 74.9217,71.2914 76.255,70.7914 77.5,70C 75.1224,69.0255 75.4557,68.3589 78.5,68C 77.2625,67.7679 76.2625,67.2679 75.5,66.5C 77.8312,66.1407 77.6645,65.474 75,64.5C 74.5357,65.0944 74.369,65.7611 74.5,66.5C 72.062,64.4654 69.3953,62.7987 66.5,61.5C 66.1667,60.1667 65.8333,60.1667 65.5,61.5C 63.1877,60.6805 60.8543,59.8471 58.5,59C 59.7375,58.7679 60.7375,58.2679 61.5,57.5C 62.1826,56.3559 61.8493,56.3559 60.5,57.5C 59.5,57.5 58.5,57.5 57.5,57.5C 56.7095,56.5987 55.7095,55.9321 54.5,55.5C 57.5241,53.2243 60.8574,52.8909 64.5,54.5 Z M 74.5,57.5 C 85.4918,59.6764 93.8251,65.5097 99.5,75C 97.6618,77.3028 95.3285,77.9694 92.5,77C 89.8958,76.6097 87.5625,75.7763 85.5,74.5C 88.9079,75.172 91.5745,74.172 93.5,71.5C 93,70.5 92.5,69.5 92,68.5C 86.4906,64.1704 80.6572,60.5038 74.5,57.5 Z M 77.5,62.5 C 82.4731,64.2975 86.8064,67.1308 90.5,71C 88.3594,72.2585 86.0261,72.2585 83.5,71C 83.4057,69.5778 83.0724,68.0778 82.5,66.5C 80.5808,65.3875 78.9142,64.0542 77.5,62.5 Z M 75.5,66.5 C 75.1667,66.5 74.8333,66.5 74.5,66.5C 74.369,65.7611 74.5357,65.0944 75,64.5C 77.6645,65.474 77.8312,66.1407 75.5,66.5 Z"/></g>
<g><path style="opacity:1" fill="#5495ac" d="M 17.5,54.5 C 14.8049,57.451 15.1382,60.1177 18.5,62.5C 24.5,63.1667 30.5,63.8333 36.5,64.5C 29.4921,64.3337 22.4921,64.5004 15.5,65C 14.33,66.7547 12.6633,67.7547 10.5,68C 11.7375,68.2321 12.7375,68.7321 13.5,69.5C 11.2075,69.7564 9.04083,69.4231 7,68.5C 4.94374,70.3188 2.77707,70.9855 0.5,70.5C 4.38919,68.2742 6.72252,64.9408 7.5,60.5C 6.50468,55.2041 5.83802,49.8708 5.5,44.5C 5.35055,43.448 5.51722,42.448 6,41.5C 6.66667,45.5 7.33333,45.5 8,41.5C 9.66754,45.2372 11.0009,45.2372 12,41.5C 12.3988,41.7284 12.5654,42.0618 12.5,42.5C 12.5,42.8333 12.5,43.1667 12.5,43.5C 12.8039,44.1499 13.1373,44.8165 13.5,45.5C 12.5109,46.4682 11.8443,47.6349 11.5,49C 12.0372,52.0281 12.7039,51.8614 13.5,48.5C 13.5,48.1667 13.5,47.8333 13.5,47.5C 14.3705,44.997 15.0372,42.3303 15.5,39.5C 15.5,39.1667 15.5,38.8333 15.5,38.5C 16.4765,41.7838 17.1431,47.1171 17.5,54.5 Z M 9.5,57.5 C 13.2294,59.5365 13.396,61.8699 10,64.5C 9.50335,62.1902 9.33669,59.8568 9.5,57.5 Z"/></g>
<g><path style="opacity:1" fill="#5295ac" d="M 36.5,64.5 C 36.8333,64.5 37.1667,64.5 37.5,64.5C 35.4855,65.9238 33.1522,66.5905 30.5,66.5C 29.1667,66.8333 29.1667,67.1667 30.5,67.5C 33.1667,68.1667 35.8333,68.8333 38.5,69.5C 39.8333,69.1667 39.8333,68.8333 38.5,68.5C 38.9169,67.8761 39.5836,67.5427 40.5,67.5C 42.516,68.1776 44.516,68.8443 46.5,69.5C 46.5,70.1667 46.1667,70.5 45.5,70.5C 44.448,70.3505 43.448,70.5172 42.5,71C 46.128,71.79 48.128,73.9567 48.5,77.5C 50.1667,77.5 51.8333,77.5 53.5,77.5C 54.1667,76.8333 54.8333,76.1667 55.5,75.5C 56.8333,76.5 56.8333,77.5 55.5,78.5C 53.5,79.1667 51.5,79.8333 49.5,80.5C 37.4803,76.8262 25.4803,73.1596 13.5,69.5C 12.7375,68.7321 11.7375,68.2321 10.5,68C 12.6633,67.7547 14.33,66.7547 15.5,65C 22.4921,64.5004 29.4921,64.3337 36.5,64.5 Z M 20.5,67.5 C 22.6282,66.3709 24.9615,66.2042 27.5,67C 26.8742,67.7504 26.3742,68.5838 26,69.5C 24.2745,68.536 22.4412,67.8693 20.5,67.5 Z"/></g>
<g><path style="opacity:0.992" fill="#5994aa" d="M 37.5,64.5 C 46.2447,65.2481 54.2447,68.0815 61.5,73C 65.7073,76.8218 65.374,79.9884 60.5,82.5C 58.8333,82.5 57.1667,82.5 55.5,82.5C 53.5,81.8333 51.5,81.1667 49.5,80.5C 51.5,79.8333 53.5,79.1667 55.5,78.5C 57.2646,79.4614 59.2646,79.7947 61.5,79.5C 60.9954,75.988 58.9954,73.6546 55.5,72.5C 54.913,73.2334 54.913,74.2334 55.5,75.5C 54.8333,76.1667 54.1667,76.8333 53.5,77.5C 53.4894,75.9826 52.8228,74.8159 51.5,74C 49.2726,73.059 47.2726,71.8923 45.5,70.5C 46.1667,70.5 46.5,70.1667 46.5,69.5C 44.516,68.8443 42.516,68.1776 40.5,67.5C 39.5836,67.5427 38.9169,67.8761 38.5,68.5C 38.5,68.8333 38.5,69.1667 38.5,69.5C 35.8333,68.8333 33.1667,68.1667 30.5,67.5C 30.5,67.1667 30.5,66.8333 30.5,66.5C 33.1522,66.5905 35.4855,65.9238 37.5,64.5 Z"/></g>
</svg>
