<?xml version="1.0" encoding="UTF-8"?>
<!DOCTYPE svg PUBLIC "-//W3C//DTD SVG 1.1//EN" "http://www.w3.org/Graphics/SVG/1.1/DTD/svg11.dtd">
<svg xmlns="http://www.w3.org/2000/svg" version="1.1" width="147px" height="159px" style="shape-rendering:geometricPrecision; text-rendering:geometricPrecision; image-rendering:optimizeQuality; fill-rule:evenodd; clip-rule:evenodd" xmlns:xlink="http://www.w3.org/1999/xlink">
<g><path style="opacity:1" fill="#2f6f93" d="M 93.5,-0.5 C 96.8333,-0.5 100.167,-0.5 103.5,-0.5C 103.662,1.5273 103.495,3.5273 103,5.5C 99.0394,8.88654 94.8728,11.8865 90.5,14.5C 90.0296,13.3065 89.0296,12.6399 87.5,12.5C 85.4878,12.8396 83.4878,13.1729 81.5,13.5C 81.6621,11.4727 81.4955,9.4727 81,7.5C 78.997,10.4998 78.1636,13.8331 78.5,17.5C 77.325,17.719 76.325,17.3857 75.5,16.5C 76.2458,15.2638 76.5792,13.9305 76.5,12.5C 74.3281,13.8011 71.9948,14.8011 69.5,15.5C 68.8333,15.5 68.1667,15.5 67.5,15.5C 75.3937,8.94564 84.0603,3.61231 93.5,-0.5 Z"/></g>
<g><path style="opacity:1" fill="#1c5b81" d="M 90.5,14.5 C 86.153,18.8451 81.4863,22.8451 76.5,26.5C 76.5654,26.0618 76.3988,25.7284 76,25.5C 74.871,27.1412 73.371,28.1412 71.5,28.5C 70.8501,28.1961 70.1835,27.8627 69.5,27.5C 68.3801,28.8334 67.0468,29.3334 65.5,29C 66.8672,26.6985 67.5339,24.1985 67.5,21.5C 68.8333,21.5 70.1667,21.5 71.5,21.5C 71.6495,20.448 71.4828,19.448 71,18.5C 69.5064,19.7472 68.0064,19.7472 66.5,18.5C 67.7701,17.7124 68.7701,16.7124 69.5,15.5C 71.9948,14.8011 74.3281,13.8011 76.5,12.5C 76.5792,13.9305 76.2458,15.2638 75.5,16.5C 76.325,17.3857 77.325,17.719 78.5,17.5C 78.1636,13.8331 78.997,10.4998 81,7.5C 81.4955,9.4727 81.6621,11.4727 81.5,13.5C 83.4878,13.1729 85.4878,12.8396 87.5,12.5C 89.0296,12.6399 90.0296,13.3065 90.5,14.5 Z"/></g>
<g><path style="opacity:1" fill="#3e7ea2" d="M 95.5,50.5 C 94.3702,48.6854 93.7036,46.6854 93.5,44.5C 95.1667,44.5 96.8333,44.5 98.5,44.5C 98.5,43.5 98.5,42.5 98.5,41.5C 103.486,41.6951 105.152,39.5284 103.5,35C 102.207,34.51 100.873,34.3433 99.5,34.5C 99.1806,38.2998 98.1806,38.4665 96.5,35C 98.0139,33.561 98.3473,32.061 97.5,30.5C 92.9086,32.6246 88.5753,34.958 84.5,37.5C 83.1667,37.1667 81.8333,36.8333 80.5,36.5C 91.9109,29.127 103.911,22.7937 116.5,17.5C 120.79,18.1235 125.124,18.2902 129.5,18C 130.447,21.7912 129.114,24.7912 125.5,27C 115.288,34.6006 105.288,42.434 95.5,50.5 Z"/></g>
<g><path style="opacity:1" fill="#23648b" d="M 67.5,15.5 C 68.1667,15.5 68.8333,15.5 69.5,15.5C 68.7701,16.7124 67.7701,17.7124 66.5,18.5C 68.0064,19.7472 69.5064,19.7472 71,18.5C 71.4828,19.448 71.6495,20.448 71.5,21.5C 70.1667,21.5 68.8333,21.5 67.5,21.5C 67.5339,24.1985 66.8672,26.6985 65.5,29C 67.0468,29.3334 68.3801,28.8334 69.5,27.5C 70.1835,27.8627 70.8501,28.1961 71.5,28.5C 71.0435,31.4056 70.0435,34.0722 68.5,36.5C 67.5,37.1667 66.5,37.8333 65.5,38.5C 64.0689,38.1193 63.2355,37.1193 63,35.5C 61.3333,36.1667 59.6667,36.8333 58,37.5C 55.831,34.4898 55.1643,31.1564 56,27.5C 57.5095,26.9103 59.0095,26.2436 60.5,25.5C 58.5764,24.0347 58.2431,22.368 59.5,20.5C 61.822,18.336 64.4887,16.6693 67.5,15.5 Z"/></g>
<g><path style="opacity:1" fill="#86bedb" d="M 76.5,26.5 C 74.8878,30.7684 72.2212,34.1017 68.5,36.5C 70.0435,34.0722 71.0435,31.4056 71.5,28.5C 73.371,28.1412 74.871,27.1412 76,25.5C 76.3988,25.7284 76.5654,26.0618 76.5,26.5 Z"/></g>
<g><path style="opacity:1" fill="#2d6d93" d="M 59.5,20.5 C 58.2431,22.368 58.5764,24.0347 60.5,25.5C 59.0095,26.2436 57.5095,26.9103 56,27.5C 55.1643,31.1564 55.831,34.4898 58,37.5C 59.6667,36.8333 61.3333,36.1667 63,35.5C 63.2355,37.1193 64.0689,38.1193 65.5,38.5C 64.075,39.922 63.075,41.5887 62.5,43.5C 60.6661,41.8746 59.4994,40.2079 59,38.5C 57.5378,38.9938 56.0378,39.3272 54.5,39.5C 51.9945,38.357 49.3278,37.6903 46.5,37.5C 44.1175,37.361 42.1175,38.0277 40.5,39.5C 39.1667,39.5 37.8333,39.5 36.5,39.5C 38.6704,37.6667 40.6704,35.6667 42.5,33.5C 45.375,29.9119 48.7083,26.7453 52.5,24C 54.5766,22.295 56.91,21.1283 59.5,20.5 Z"/></g>
<g><path style="opacity:1" fill="#033c5e" d="M 36.5,39.5 C 37.8333,39.5 39.1667,39.5 40.5,39.5C 45.7215,41.4129 51.0548,42.0796 56.5,41.5C 57.3128,42.8139 58.3128,43.9805 59.5,45C 58.7614,48.0735 56.9281,50.2402 54,51.5C 53.7351,49.8374 54.2351,48.3374 55.5,47C 53.0734,45.4086 50.4067,44.5752 47.5,44.5C 45.1716,41.7599 43.8383,42.4266 43.5,46.5C 42.675,47.3857 41.675,47.719 40.5,47.5C 38.2879,42.0556 35.2879,41.5556 31.5,46C 29.5789,46.3603 27.9122,47.1936 26.5,48.5C 25.8933,48.3764 25.56,48.0431 25.5,47.5C 28.6353,44.0994 32.302,41.4327 36.5,39.5 Z"/></g>
<g><path style="opacity:1" fill="#3f81a7" d="M 95.5,50.5 C 95.5,50.8333 95.5,51.1667 95.5,51.5C 96.1667,51.5 96.8333,51.5 97.5,51.5C 95.7016,54.3088 93.3682,55.3088 90.5,54.5C 92.1769,51.8608 91.5102,50.1942 88.5,49.5C 86.8247,49.8684 85.8247,50.8684 85.5,52.5C 84.0806,50.8489 82.7473,49.0156 81.5,47C 82.4162,46.6258 83.2496,46.1258 84,45.5C 84.4974,42.854 84.6641,40.1873 84.5,37.5C 88.5753,34.958 92.9086,32.6246 97.5,30.5C 98.3473,32.061 98.0139,33.561 96.5,35C 98.1806,38.4665 99.1806,38.2998 99.5,34.5C 100.873,34.3433 102.207,34.51 103.5,35C 105.152,39.5284 103.486,41.6951 98.5,41.5C 98.5,42.5 98.5,43.5 98.5,44.5C 96.8333,44.5 95.1667,44.5 93.5,44.5C 93.7036,46.6854 94.3702,48.6854 95.5,50.5 Z M 95.5,51.5 C 95.2172,52.2891 94.7172,52.9558 94,53.5C 93.4719,52.184 93.9719,51.5173 95.5,51.5 Z"/></g>
<g><path style="opacity:1" fill="#387aa1" d="M 80.5,36.5 C 81.8333,36.8333 83.1667,37.1667 84.5,37.5C 84.6641,40.1873 84.4974,42.854 84,45.5C 83.2496,46.1258 82.4162,46.6258 81.5,47C 82.7473,49.0156 84.0806,50.8489 85.5,52.5C 82.8411,52.9174 80.5078,53.9174 78.5,55.5C 75.9512,55.4411 73.9512,56.4411 72.5,58.5C 70.8036,53.8004 67.4702,51.4671 62.5,51.5C 62.5,52.5 62.5,53.5 62.5,54.5C 59.6643,54.1627 58.9976,52.8293 60.5,50.5C 61.4959,50.5858 62.3292,50.2524 63,49.5C 63.7922,47.4127 64.9588,45.5793 66.5,44C 64.9813,44.3308 63.648,44.1641 62.5,43.5C 68.6981,41.5475 74.6981,39.2142 80.5,36.5 Z"/></g>
<g><path style="opacity:1" fill="#3a7ca4" d="M 47.5,44.5 C 49.1209,46.1172 51.1209,47.2838 53.5,48C 52.2899,49.0391 51.2899,50.2058 50.5,51.5C 50.6965,55.1168 50.0299,58.7834 48.5,62.5C 49.5,62.5 50.5,62.5 51.5,62.5C 51.7852,64.288 51.4519,65.9547 50.5,67.5C 48.4553,65.9527 46.2887,64.6193 44,63.5C 42.9701,63.8361 42.4701,64.5028 42.5,65.5C 41.2848,66.779 41.6182,67.779 43.5,68.5C 43.44,69.0431 43.1067,69.3764 42.5,69.5C 38.347,67.5312 37.347,64.5312 39.5,60.5C 36.1501,60.335 32.8168,60.5017 29.5,61C 30.056,61.3826 30.3893,61.8826 30.5,62.5C 28.3298,63.768 26.1632,63.768 24,62.5C 23.5464,60.4636 22.7131,58.6303 21.5,57C 22.4394,55.0561 23.7727,53.3894 25.5,52C 24.9341,51.0053 24.2674,50.172 23.5,49.5C 23.8333,48.5 24.5,47.8333 25.5,47.5C 25.56,48.0431 25.8933,48.3764 26.5,48.5C 27.9122,47.1936 29.5789,46.3603 31.5,46C 35.2879,41.5556 38.2879,42.0556 40.5,47.5C 41.675,47.719 42.675,47.3857 43.5,46.5C 43.8383,42.4266 45.1716,41.7599 47.5,44.5 Z"/></g>
<g><path style="opacity:1" fill="#73aecd" d="M 106.5,55.5 C 105.089,57.539 103.089,58.539 100.5,58.5C 100.167,58.5 99.8333,58.5 99.5,58.5C 100.01,55.6122 99.3435,53.2789 97.5,51.5C 101.12,47.8565 105.453,45.5232 110.5,44.5C 110.509,46.3084 110.009,47.9751 109,49.5C 107.122,51.0429 105.622,52.8762 104.5,55C 105.094,55.4643 105.761,55.631 106.5,55.5 Z"/></g>
<g><path style="opacity:1" fill="#79b6d8" d="M 42.5,33.5 C 40.6704,35.6667 38.6704,37.6667 36.5,39.5C 32.302,41.4327 28.6353,44.0994 25.5,47.5C 24.5,47.8333 23.8333,48.5 23.5,49.5C 21.5488,52.7861 19.2154,55.7861 16.5,58.5C 14.8595,59.147 13.5261,60.147 12.5,61.5C 12.4914,59.6916 12.9914,58.0249 14,56.5C 18.5,51.3333 23,46.1667 27.5,41C 30.8333,38.6667 34.1667,36.3333 37.5,34C 39.1341,33.5065 40.8008,33.3398 42.5,33.5 Z"/></g>
<g><path style="opacity:1" fill="#0c4c72" d="M 62.5,43.5 C 63.648,44.1641 64.9813,44.3308 66.5,44C 64.9588,45.5793 63.7922,47.4127 63,49.5C 62.3292,50.2524 61.4959,50.5858 60.5,50.5C 59.8826,50.3893 59.3826,50.056 59,49.5C 58.5065,51.1341 58.3398,52.8008 58.5,54.5C 55.4202,54.5342 52.7535,53.5342 50.5,51.5C 51.2899,50.2058 52.2899,49.0391 53.5,48C 51.1209,47.2838 49.1209,46.1172 47.5,44.5C 50.4067,44.5752 53.0734,45.4086 55.5,47C 54.2351,48.3374 53.7351,49.8374 54,51.5C 56.9281,50.2402 58.7614,48.0735 59.5,45C 58.3128,43.9805 57.3128,42.8139 56.5,41.5C 51.0548,42.0796 45.7215,41.4129 40.5,39.5C 42.1175,38.0277 44.1175,37.361 46.5,37.5C 49.3278,37.6903 51.9945,38.357 54.5,39.5C 56.0378,39.3272 57.5378,38.9938 59,38.5C 59.4994,40.2079 60.6661,41.8746 62.5,43.5 Z"/></g>
<g><path style="opacity:1" fill="#5290b3" d="M 130.5,70.5 C 130.744,67.7374 132.077,65.5707 134.5,64C 133.743,62.4878 132.743,61.1545 131.5,60C 131.833,59.6667 132.167,59.3333 132.5,59C 129.881,59.0833 127.214,59.25 124.5,59.5C 125.677,56.9622 127.344,54.6289 129.5,52.5C 129,52.1667 128.5,51.8333 128,51.5C 125.008,54.1002 121.508,55.1002 117.5,54.5C 117.5,53.5 117.5,52.5 117.5,51.5C 116.167,51.5 114.833,51.5 113.5,51.5C 116.958,49.7144 120.624,48.3811 124.5,47.5C 130.347,49.9069 135.68,53.2403 140.5,57.5C 141.762,59.5752 141.595,61.5752 140,63.5C 136.937,66.0755 133.771,68.4088 130.5,70.5 Z"/></g>
<g><path style="opacity:1" fill="#17577e" d="M 60.5,50.5 C 58.9976,52.8293 59.6643,54.1627 62.5,54.5C 62.0805,56.0936 61.4138,57.5936 60.5,59C 60.4894,62.1906 60.8227,65.3573 61.5,68.5C 62.8005,69.8816 63.6339,71.5483 64,73.5C 66.7718,68.2281 67.6052,68.5614 66.5,74.5C 63.6013,74.5417 60.9346,75.0417 58.5,76C 57.233,74.2041 57.233,72.3707 58.5,70.5C 57.3265,67.7211 55.4932,67.0545 53,68.5C 51.4343,74.7167 49.601,74.55 47.5,68C 46.0997,66.5619 44.433,65.7286 42.5,65.5C 42.4701,64.5028 42.9701,63.8361 44,63.5C 46.2887,64.6193 48.4553,65.9527 50.5,67.5C 51.4519,65.9547 51.7852,64.288 51.5,62.5C 50.5,62.5 49.5,62.5 48.5,62.5C 50.0299,58.7834 50.6965,55.1168 50.5,51.5C 52.7535,53.5342 55.4202,54.5342 58.5,54.5C 58.3398,52.8008 58.5065,51.1341 59,49.5C 59.3826,50.056 59.8826,50.3893 60.5,50.5 Z"/></g>
<g><path style="opacity:1" fill="#4587af" d="M 78.5,55.5 C 81.9038,57.9981 82.2372,60.8314 79.5,64C 78.1667,64 76.8333,64 75.5,64C 72.9979,65.3375 70.9979,67.1708 69.5,69.5C 67.1514,67.6091 64.4847,67.2758 61.5,68.5C 60.8227,65.3573 60.4894,62.1906 60.5,59C 61.4138,57.5936 62.0805,56.0936 62.5,54.5C 62.5,53.5 62.5,52.5 62.5,51.5C 67.4702,51.4671 70.8036,53.8004 72.5,58.5C 73.9512,56.4411 75.9512,55.4411 78.5,55.5 Z"/></g>
<g><path style="opacity:1" fill="#1d5e85" d="M 90.5,54.5 C 89.3054,54.8656 88.6387,55.699 88.5,57C 90.1294,59.615 89.796,61.7816 87.5,63.5C 87.0954,62.4502 86.4288,62.4502 85.5,63.5C 83.2604,68.8219 80.2604,69.4885 76.5,65.5C 75.5344,68.1282 73.8677,70.1282 71.5,71.5C 73.0863,73.1727 73.7529,75.1727 73.5,77.5C 72.5028,77.4701 71.8361,77.9701 71.5,79C 73.0258,83.3727 73.6924,87.8727 73.5,92.5C 72.1984,93.8069 70.865,93.8069 69.5,92.5C 68.8182,93.2427 68.1515,93.9094 67.5,94.5C 66.0924,93.0892 65.0924,91.4225 64.5,89.5C 65.2855,86.0252 66.7855,85.6919 69,88.5C 69.1667,86.8333 69.3333,85.1667 69.5,83.5C 69.3868,81.3587 68.7201,79.5253 67.5,78C 68.985,76.2435 68.6516,75.0768 66.5,74.5C 67.6052,68.5614 66.7718,68.2281 64,73.5C 63.6339,71.5483 62.8005,69.8816 61.5,68.5C 64.4847,67.2758 67.1514,67.6091 69.5,69.5C 70.9979,67.1708 72.9979,65.3375 75.5,64C 76.8333,64 78.1667,64 79.5,64C 82.2372,60.8314 81.9038,57.9981 78.5,55.5C 80.5078,53.9174 82.8411,52.9174 85.5,52.5C 85.8247,50.8684 86.8247,49.8684 88.5,49.5C 91.5102,50.1942 92.1769,51.8608 90.5,54.5 Z"/></g>
<g><path style="opacity:1" fill="#296b93" d="M 97.5,51.5 C 99.3435,53.2789 100.01,55.6122 99.5,58.5C 98.0582,59.8195 97.3915,61.4862 97.5,63.5C 99.3084,63.4914 100.975,63.9914 102.5,65C 102.167,65.3333 101.833,65.6667 101.5,66C 104.286,66.575 106.286,68.075 107.5,70.5C 105.5,70.5 103.5,70.5 101.5,70.5C 101.804,69.8501 102.137,69.1835 102.5,68.5C 100.851,67.3523 99.3513,66.019 98,64.5C 95.1512,66.3095 91.9845,67.3095 88.5,67.5C 87.7659,66.2921 87.4326,64.9587 87.5,63.5C 89.796,61.7816 90.1294,59.615 88.5,57C 88.6387,55.699 89.3054,54.8656 90.5,54.5C 93.3682,55.3088 95.7016,54.3088 97.5,51.5 Z"/></g>
<g><path style="opacity:1" fill="#4586ad" d="M 113.5,51.5 C 114.833,51.5 116.167,51.5 117.5,51.5C 117.5,52.5 117.5,53.5 117.5,54.5C 121.508,55.1002 125.008,54.1002 128,51.5C 128.5,51.8333 129,52.1667 129.5,52.5C 127.344,54.6289 125.677,56.9622 124.5,59.5C 121.722,59.9783 119.722,58.9783 118.5,56.5C 116.247,57.2531 114.413,58.5864 113,60.5C 111.397,62.7341 109.897,65.0674 108.5,67.5C 107.614,66.675 107.281,65.675 107.5,64.5C 103.416,65.0547 102.749,64.0547 105.5,61.5C 103.855,60.3037 102.189,59.3037 100.5,58.5C 103.089,58.539 105.089,57.539 106.5,55.5C 108.336,53.412 110.669,52.0787 113.5,51.5 Z"/></g>
<g><path style="opacity:1" fill="#3879a0" d="M 124.5,59.5 C 127.214,59.25 129.881,59.0833 132.5,59C 132.167,59.3333 131.833,59.6667 131.5,60C 132.743,61.1545 133.743,62.4878 134.5,64C 132.077,65.5707 130.744,67.7374 130.5,70.5C 129.5,72.1667 128.167,73.5 126.5,74.5C 125.512,73.205 124.512,71.8717 123.5,70.5C 125.282,69.2804 127.282,68.6138 129.5,68.5C 129.762,67.0222 129.429,65.6888 128.5,64.5C 126.52,63.5161 124.853,62.1827 123.5,60.5C 120.328,62.2519 117.328,64.2519 114.5,66.5C 113.522,66.0233 112.689,65.3567 112,64.5C 110.957,66.7006 110.123,69.0339 109.5,71.5C 108.817,71.1373 108.15,70.8039 107.5,70.5C 106.286,68.075 104.286,66.575 101.5,66C 101.833,65.6667 102.167,65.3333 102.5,65C 100.975,63.9914 99.3084,63.4914 97.5,63.5C 97.3915,61.4862 98.0582,59.8195 99.5,58.5C 99.8333,58.5 100.167,58.5 100.5,58.5C 102.189,59.3037 103.855,60.3037 105.5,61.5C 102.749,64.0547 103.416,65.0547 107.5,64.5C 107.281,65.675 107.614,66.675 108.5,67.5C 109.897,65.0674 111.397,62.7341 113,60.5C 114.413,58.5864 116.247,57.2531 118.5,56.5C 119.722,58.9783 121.722,59.9783 124.5,59.5 Z"/></g>
<g><path style="opacity:1" fill="#1d5e86" d="M 23.5,49.5 C 24.2674,50.172 24.9341,51.0053 25.5,52C 23.7727,53.3894 22.4394,55.0561 21.5,57C 22.7131,58.6303 23.5464,60.4636 24,62.5C 26.1632,63.768 28.3298,63.768 30.5,62.5C 31.3764,62.3691 32.0431,62.7025 32.5,63.5C 31.3984,64.1757 30.3984,64.8423 29.5,65.5C 28.6236,65.3691 27.9569,65.7025 27.5,66.5C 29.8257,70.1897 32.9924,71.523 37,70.5C 39.0053,71.8387 40.672,73.5053 42,75.5C 43.6995,74.5939 45.5328,74.2606 47.5,74.5C 47.5323,76.6188 46.5323,77.9522 44.5,78.5C 42.4403,76.8463 39.9403,75.8463 37,75.5C 34.2111,75.6196 31.3777,75.9529 28.5,76.5C 28.2275,72.1964 26.2275,70.8631 22.5,72.5C 21.4055,69.1974 19.5721,66.1974 17,63.5C 16.5065,61.8659 16.3398,60.1992 16.5,58.5C 19.2154,55.7861 21.5488,52.7861 23.5,49.5 Z"/></g>
<g><path style="opacity:1" fill="#094a70" d="M 43.5,68.5 C 44.404,69.209 44.7373,70.209 44.5,71.5C 41.1545,70.7425 38.3212,69.0759 36,66.5C 34.0924,69.3323 33.259,68.999 33.5,65.5C 32.1667,65.5 30.8333,65.5 29.5,65.5C 30.3984,64.8423 31.3984,64.1757 32.5,63.5C 32.0431,62.7025 31.3764,62.3691 30.5,62.5C 30.3893,61.8826 30.056,61.3826 29.5,61C 32.8168,60.5017 36.1501,60.335 39.5,60.5C 37.347,64.5312 38.347,67.5312 42.5,69.5C 43.1067,69.3764 43.44,69.0431 43.5,68.5 Z"/></g>
<g><path style="opacity:1" fill="#4081a8" d="M 16.5,58.5 C 16.3398,60.1992 16.5065,61.8659 17,63.5C 19.5721,66.1974 21.4055,69.1974 22.5,72.5C 23.7175,73.1614 25.0508,73.8281 26.5,74.5C 25.0499,75.8498 24.3832,77.5165 24.5,79.5C 27.7107,79.988 30.544,79.3213 33,77.5C 34.6995,78.4061 36.5328,78.7394 38.5,78.5C 38.5674,79.9587 38.2341,81.2921 37.5,82.5C 36.0695,82.4208 34.7362,82.7542 33.5,83.5C 32.4728,87.7126 30.8061,88.2126 28.5,85C 26.4817,84.4954 24.4817,83.9954 22.5,83.5C 21.5386,85.2646 21.2053,87.2646 21.5,89.5C 20.0222,89.762 18.6888,89.4287 17.5,88.5C 20.0622,85.7399 21.3955,82.7399 21.5,79.5C 20.9537,77.8653 20.6204,76.1986 20.5,74.5C 18.8561,74.7135 17.3561,74.3802 16,73.5C 15.6667,74.1667 15.3333,74.8333 15,75.5C 14.6322,74.09 13.7989,73.09 12.5,72.5C 11.3554,73.7757 11.3554,75.109 12.5,76.5C 11.1851,78.3159 9.68511,79.9825 8,81.5C 7.50999,82.7932 7.34332,84.1266 7.5,85.5C 6.5,85.5 5.5,85.5 4.5,85.5C 4.61587,82.1401 4.9492,78.8067 5.5,75.5C 5.33982,73.8008 5.50649,72.1341 6,70.5C 8.67723,67.7894 10.8439,64.7894 12.5,61.5C 13.5261,60.147 14.8595,59.147 16.5,58.5 Z"/></g>
<g><path style="opacity:1" fill="#012b44" d="M 29.5,65.5 C 30.8333,65.5 32.1667,65.5 33.5,65.5C 33.259,68.999 34.0924,69.3323 36,66.5C 38.3212,69.0759 41.1545,70.7425 44.5,71.5C 44.7373,70.209 44.404,69.209 43.5,68.5C 41.6182,67.779 41.2848,66.779 42.5,65.5C 44.433,65.7286 46.0997,66.5619 47.5,68C 49.601,74.55 51.4343,74.7167 53,68.5C 55.4932,67.0545 57.3265,67.7211 58.5,70.5C 57.233,72.3707 57.233,74.2041 58.5,76C 60.9346,75.0417 63.6013,74.5417 66.5,74.5C 68.6516,75.0768 68.985,76.2435 67.5,78C 68.7201,79.5253 69.3868,81.3587 69.5,83.5C 69.3333,85.1667 69.1667,86.8333 69,88.5C 66.7855,85.6919 65.2855,86.0252 64.5,89.5C 65.0924,91.4225 66.0924,93.0892 67.5,94.5C 66.5178,95.1408 65.5178,95.8075 64.5,96.5C 63.6801,94.6812 62.6801,93.0145 61.5,91.5C 60.9767,88.1102 60.1434,84.7769 59,81.5C 58.6174,80.944 58.1174,80.6107 57.5,80.5C 56.8386,81.7175 56.1719,83.0508 55.5,84.5C 54.5713,83.3112 54.238,81.9778 54.5,80.5C 52.4727,80.3379 50.4727,80.5045 48.5,81C 48.8333,81.3333 49.1667,81.6667 49.5,82C 47.8988,82.2734 46.3988,82.7734 45,83.5C 43.9609,82.2899 42.7942,81.2899 41.5,80.5C 42.1667,79.8333 42.8333,79.1667 43.5,78.5C 43.8333,78.5 44.1667,78.5 44.5,78.5C 46.5323,77.9522 47.5323,76.6188 47.5,74.5C 45.5328,74.2606 43.6995,74.5939 42,75.5C 40.672,73.5053 39.0053,71.8387 37,70.5C 32.9924,71.523 29.8257,70.1897 27.5,66.5C 27.9569,65.7025 28.6236,65.3691 29.5,65.5 Z"/></g>
<g><path style="opacity:1" fill="#0e4e76" d="M 101.5,70.5 C 102.234,71.7079 102.567,73.0413 102.5,74.5C 101.18,73.0582 99.5138,72.3915 97.5,72.5C 97.7692,70.5714 97.2692,68.9047 96,67.5C 95.3532,71.7871 96.5199,75.4538 99.5,78.5C 98.1433,80.5654 96.81,82.5654 95.5,84.5C 95.5299,83.5028 95.0299,82.8361 94,82.5C 89.5664,83.1321 85.2331,84.1321 81,85.5C 79.3009,85.6134 78.1342,84.9468 77.5,83.5C 81.3967,82.0901 85.3967,81.0901 89.5,80.5C 89.3285,78.5082 89.9951,76.8415 91.5,75.5C 90.7967,72.6596 89.7967,69.9929 88.5,67.5C 91.9845,67.3095 95.1512,66.3095 98,64.5C 99.3513,66.019 100.851,67.3523 102.5,68.5C 102.137,69.1835 101.804,69.8501 101.5,70.5 Z"/></g>
<g><path style="opacity:1" fill="#1a5b83" d="M 123.5,70.5 C 122.504,70.4142 121.671,70.7476 121,71.5C 120.328,75.0296 118.162,76.3629 114.5,75.5C 114.5,77.1667 114.5,78.8333 114.5,80.5C 113.504,80.5858 112.671,80.2524 112,79.5C 110.063,82.1078 108.23,82.1078 106.5,79.5C 105.54,77.5393 104.207,75.8726 102.5,74.5C 102.567,73.0413 102.234,71.7079 101.5,70.5C 103.5,70.5 105.5,70.5 107.5,70.5C 108.15,70.8039 108.817,71.1373 109.5,71.5C 110.123,69.0339 110.957,66.7006 112,64.5C 112.689,65.3567 113.522,66.0233 114.5,66.5C 117.328,64.2519 120.328,62.2519 123.5,60.5C 124.853,62.1827 126.52,63.5161 128.5,64.5C 129.429,65.6888 129.762,67.0222 129.5,68.5C 127.282,68.6138 125.282,69.2804 123.5,70.5 Z"/></g>
<g><path style="opacity:1" fill="#33759d" d="M 44.5,78.5 C 44.1667,78.5 43.8333,78.5 43.5,78.5C 42.5,78.5 41.5,78.5 40.5,78.5C 41.0662,81.5826 41.0662,84.5826 40.5,87.5C 42.7662,88.3142 45.0995,88.8142 47.5,89C 43.2679,90.44 42.6012,92.7734 45.5,96C 43.9651,96.4962 42.4651,96.3295 41,95.5C 39.3576,95.9778 38.1909,96.9778 37.5,98.5C 36.1667,100.167 34.8333,101.833 33.5,103.5C 33.4013,100.763 33.7347,98.0961 34.5,95.5C 36.324,91.4566 37.324,87.1232 37.5,82.5C 38.2341,81.2921 38.5674,79.9587 38.5,78.5C 36.5328,78.7394 34.6995,78.4061 33,77.5C 30.544,79.3213 27.7107,79.988 24.5,79.5C 24.3832,77.5165 25.0499,75.8498 26.5,74.5C 25.0508,73.8281 23.7175,73.1614 22.5,72.5C 26.2275,70.8631 28.2275,72.1964 28.5,76.5C 31.3777,75.9529 34.2111,75.6196 37,75.5C 39.9403,75.8463 42.4403,76.8463 44.5,78.5 Z"/></g>
<g><path style="opacity:1" fill="#013757" d="M 87.5,63.5 C 87.4326,64.9587 87.7659,66.2921 88.5,67.5C 89.7967,69.9929 90.7967,72.6596 91.5,75.5C 89.9951,76.8415 89.3285,78.5082 89.5,80.5C 85.3967,81.0901 81.3967,82.0901 77.5,83.5C 76.7023,81.0337 75.369,79.0337 73.5,77.5C 73.7529,75.1727 73.0863,73.1727 71.5,71.5C 73.8677,70.1282 75.5344,68.1282 76.5,65.5C 80.2604,69.4885 83.2604,68.8219 85.5,63.5C 86.4288,62.4502 87.0954,62.4502 87.5,63.5 Z"/></g>
<g><path style="opacity:1" fill="#013352" d="M 102.5,74.5 C 104.207,75.8726 105.54,77.5393 106.5,79.5C 106.286,81.1439 106.62,82.6439 107.5,84C 105.431,84.3242 105.098,85.1575 106.5,86.5C 106,86.8333 105.5,87.1667 105,87.5C 104.617,85.963 103.784,84.6297 102.5,83.5C 100.795,85.9772 98.795,87.3106 96.5,87.5C 95.6143,86.675 95.281,85.675 95.5,84.5C 96.81,82.5654 98.1433,80.5654 99.5,78.5C 96.5199,75.4538 95.3532,71.7871 96,67.5C 97.2692,68.9047 97.7692,70.5714 97.5,72.5C 99.5138,72.3915 101.18,73.0582 102.5,74.5 Z"/></g>
<g><path style="opacity:1" fill="#3d7ea4" d="M 123.5,70.5 C 124.512,71.8717 125.512,73.205 126.5,74.5C 129.841,75.9699 133.174,77.6366 136.5,79.5C 132.625,78.5962 128.792,77.5962 125,76.5C 124.13,77.1079 123.63,77.9412 123.5,79C 124.289,80.6255 125.289,82.1255 126.5,83.5C 125.192,86.6794 122.859,88.346 119.5,88.5C 118.164,86.4677 116.497,84.6343 114.5,83C 117.113,81.9288 117.113,81.0955 114.5,80.5C 114.5,78.8333 114.5,77.1667 114.5,75.5C 118.162,76.3629 120.328,75.0296 121,71.5C 121.671,70.7476 122.504,70.4142 123.5,70.5 Z"/></g>
<g><path style="opacity:1" fill="#2a6b91" d="M 136.5,79.5 C 139.198,79.8449 141.198,81.1782 142.5,83.5C 140.066,81.8425 137.566,81.1758 135,81.5C 134.202,83.2588 134.369,84.9255 135.5,86.5C 136.736,85.7542 138.07,85.4208 139.5,85.5C 139.833,89.8333 137.833,91.8333 133.5,91.5C 133.601,95.7272 131.601,98.0605 127.5,98.5C 125.97,99.0668 124.47,99.7334 123,100.5C 122.283,99.9558 121.783,99.2891 121.5,98.5C 120.042,95.276 120.375,92.276 122.5,89.5C 121.675,88.6143 120.675,88.281 119.5,88.5C 122.859,88.346 125.192,86.6794 126.5,83.5C 125.289,82.1255 124.289,80.6255 123.5,79C 123.63,77.9412 124.13,77.1079 125,76.5C 128.792,77.5962 132.625,78.5962 136.5,79.5 Z"/></g>
<g><path style="opacity:1" fill="#4f90b7" d="M 22.5,83.5 C 22.6076,87.247 22.1076,90.9137 21,94.5C 19.9887,95.3366 18.8221,95.67 17.5,95.5C 17.7692,93.5714 17.2692,91.9047 16,90.5C 13.8676,93.4769 14.3676,95.9769 17.5,98C 16.4238,99.7261 16.2571,101.559 17,103.5C 17.4169,102.244 18.2502,101.577 19.5,101.5C 18.962,103.117 18.6287,104.784 18.5,106.5C 16.7085,106.366 15.0418,106.699 13.5,107.5C 12.6635,102.667 9.99687,99.3339 5.5,97.5C 4.10237,96.2233 3.4357,94.5566 3.5,92.5C 3.63407,87.9773 3.80074,83.3107 4,78.5C 4.23209,77.2625 4.73209,76.2625 5.5,75.5C 4.9492,78.8067 4.61587,82.1401 4.5,85.5C 5.5,85.5 6.5,85.5 7.5,85.5C 7.34332,84.1266 7.50999,82.7932 8,81.5C 9.68511,79.9825 11.1851,78.3159 12.5,76.5C 11.3554,75.109 11.3554,73.7757 12.5,72.5C 13.7989,73.09 14.6322,74.09 15,75.5C 15.3333,74.8333 15.6667,74.1667 16,73.5C 17.3561,74.3802 18.8561,74.7135 20.5,74.5C 20.6204,76.1986 20.9537,77.8653 21.5,79.5C 21.3955,82.7399 20.0622,85.7399 17.5,88.5C 18.6888,89.4287 20.0222,89.762 21.5,89.5C 21.2053,87.2646 21.5386,85.2646 22.5,83.5 Z"/></g>
<g><path style="opacity:1" fill="#5698c0" d="M 37.5,82.5 C 37.324,87.1232 36.324,91.4566 34.5,95.5C 32.2878,98.3214 31.2878,101.655 31.5,105.5C 30.1779,105.33 29.0113,105.663 28,106.5C 27.8078,104.423 27.3078,102.423 26.5,100.5C 25.8933,100.624 25.56,100.957 25.5,101.5C 24.0568,100.665 23.0568,99.3316 22.5,97.5C 21.1408,98.6243 20.1408,99.9577 19.5,101.5C 18.2502,101.577 17.4169,102.244 17,103.5C 16.2571,101.559 16.4238,99.7261 17.5,98C 14.3676,95.9769 13.8676,93.4769 16,90.5C 17.2692,91.9047 17.7692,93.5714 17.5,95.5C 18.8221,95.67 19.9887,95.3366 21,94.5C 22.1076,90.9137 22.6076,87.247 22.5,83.5C 24.4817,83.9954 26.4817,84.4954 28.5,85C 30.8061,88.2126 32.4728,87.7126 33.5,83.5C 34.7362,82.7542 36.0695,82.4208 37.5,82.5 Z"/></g>
<g><path style="opacity:1" fill="#276991" d="M 73.5,77.5 C 75.369,79.0337 76.7023,81.0337 77.5,83.5C 78.1342,84.9468 79.3009,85.6134 81,85.5C 85.2331,84.1321 89.5664,83.1321 94,82.5C 95.0299,82.8361 95.5299,83.5028 95.5,84.5C 93.2759,91.2876 94.9426,92.621 100.5,88.5C 101.893,89.8631 103.559,90.6964 105.5,91C 106.598,91.7697 106.598,92.603 105.5,93.5C 102.207,94.8086 98.874,96.142 95.5,97.5C 95.853,95.3652 95.0197,94.0319 93,93.5C 91.4801,94.697 90.3134,96.197 89.5,98C 85.7467,98.091 82.08,98.2577 78.5,98.5C 79.8549,99.6753 79.6883,100.675 78,101.5C 77.2411,99.9371 76.0744,98.9371 74.5,98.5C 75.8458,96.2082 75.5124,94.2082 73.5,92.5C 73.6924,87.8727 73.0258,83.3727 71.5,79C 71.8361,77.9701 72.5028,77.4701 73.5,77.5 Z"/></g>
<g><path style="opacity:1" fill="#0d4e75" d="M 106.5,79.5 C 108.23,82.1078 110.063,82.1078 112,79.5C 112.671,80.2524 113.504,80.5858 114.5,80.5C 117.113,81.0955 117.113,81.9288 114.5,83C 116.497,84.6343 118.164,86.4677 119.5,88.5C 120.675,88.281 121.675,88.6143 122.5,89.5C 120.375,92.276 120.042,95.276 121.5,98.5C 119.847,100.839 118.513,100.339 117.5,97C 115.671,96.7265 114.171,95.8932 113,94.5C 111.601,95.2266 110.101,95.7266 108.5,96C 109.167,96.6667 109.833,97.3333 110.5,98C 109.549,98.7175 109.383,99.5509 110,100.5C 111.688,98.1517 113.522,97.9851 115.5,100C 114.62,101.356 114.286,102.856 114.5,104.5C 112.379,104.325 110.379,104.659 108.5,105.5C 108.719,104.325 108.386,103.325 107.5,102.5C 106.186,103.313 105.019,104.313 104,105.5C 103.5,105 103,104.5 102.5,104C 102.214,101.256 102.547,98.4228 103.5,95.5C 105.429,95.7692 107.095,95.2692 108.5,94C 107.552,93.5172 106.552,93.3505 105.5,93.5C 106.598,92.603 106.598,91.7697 105.5,91C 103.559,90.6964 101.893,89.8631 100.5,88.5C 94.9426,92.621 93.2759,91.2876 95.5,84.5C 95.281,85.675 95.6143,86.675 96.5,87.5C 98.795,87.3106 100.795,85.9772 102.5,83.5C 103.784,84.6297 104.617,85.963 105,87.5C 105.5,87.1667 106,86.8333 106.5,86.5C 105.098,85.1575 105.431,84.3242 107.5,84C 106.62,82.6439 106.286,81.1439 106.5,79.5 Z"/></g>
<g><path style="opacity:1" fill="#1f5a7f" d="M 142.5,83.5 C 143.833,84.5 145.167,85.5 146.5,86.5C 146.5,88.5 146.5,90.5 146.5,92.5C 142.339,96.1317 138.173,99.7984 134,103.5C 133.86,105.256 134.36,106.922 135.5,108.5C 133.878,110.641 131.878,112.308 129.5,113.5C 127.088,113.306 126.088,111.973 126.5,109.5C 125.5,109.5 124.5,109.5 123.5,109.5C 124.092,106.873 124.425,104.206 124.5,101.5C 125.5,101.5 126.5,101.5 127.5,101.5C 127.343,102.873 127.51,104.207 128,105.5C 129.08,103.447 129.914,101.28 130.5,99C 129.552,98.5172 128.552,98.3505 127.5,98.5C 131.601,98.0605 133.601,95.7272 133.5,91.5C 137.833,91.8333 139.833,89.8333 139.5,85.5C 138.07,85.4208 136.736,85.7542 135.5,86.5C 134.369,84.9255 134.202,83.2588 135,81.5C 137.566,81.1758 140.066,81.8425 142.5,83.5 Z"/></g>
<g><path style="opacity:1" fill="#0f4f76" d="M 43.5,78.5 C 42.8333,79.1667 42.1667,79.8333 41.5,80.5C 41.8276,83.1719 43.3276,84.8385 46,85.5C 47.7261,84.4238 49.5594,84.2571 51.5,85C 50.552,85.4828 49.552,85.6495 48.5,85.5C 48.4802,87.143 49.1468,88.4763 50.5,89.5C 44.7195,90.845 44.0528,93.5116 48.5,97.5C 50.7106,94.4461 53.3773,91.7794 56.5,89.5C 57.4841,86.5719 57.8174,83.5719 57.5,80.5C 58.1174,80.6107 58.6174,80.944 59,81.5C 60.1434,84.7769 60.9767,88.1102 61.5,91.5C 60.8423,90.6016 60.1757,89.6016 59.5,88.5C 58.4717,90.3615 56.9717,91.6948 55,92.5C 54.8849,94.1068 55.3849,95.6068 56.5,97C 55.3521,98.726 54.1855,98.5593 53,96.5C 52.4014,98.5348 52.9014,100.201 54.5,101.5C 54.573,103.027 53.9063,104.027 52.5,104.5C 50.5853,104.216 48.9187,104.549 47.5,105.5C 46.8444,106.278 46.0111,106.944 45,107.5C 43.662,106.494 42.3287,105.494 41,104.5C 40.586,104.957 40.086,105.291 39.5,105.5C 38.3652,103.293 37.6985,100.96 37.5,98.5C 38.1909,96.9778 39.3576,95.9778 41,95.5C 42.4651,96.3295 43.9651,96.4962 45.5,96C 42.6012,92.7734 43.2679,90.44 47.5,89C 45.0995,88.8142 42.7662,88.3142 40.5,87.5C 41.0662,84.5826 41.0662,81.5826 40.5,78.5C 41.5,78.5 42.5,78.5 43.5,78.5 Z"/></g>
<g><path style="opacity:1" fill="#013859" d="M 41.5,80.5 C 42.7942,81.2899 43.9609,82.2899 45,83.5C 46.3988,82.7734 47.8988,82.2734 49.5,82C 49.1667,81.6667 48.8333,81.3333 48.5,81C 50.4727,80.5045 52.4727,80.3379 54.5,80.5C 54.238,81.9778 54.5713,83.3112 55.5,84.5C 56.1719,83.0508 56.8386,81.7175 57.5,80.5C 57.8174,83.5719 57.4841,86.5719 56.5,89.5C 53.3773,91.7794 50.7106,94.4461 48.5,97.5C 44.0528,93.5116 44.7195,90.845 50.5,89.5C 49.1468,88.4763 48.4802,87.143 48.5,85.5C 49.552,85.6495 50.552,85.4828 51.5,85C 49.5594,84.2571 47.7261,84.4238 46,85.5C 43.3276,84.8385 41.8276,83.1719 41.5,80.5 Z"/></g>
<g><path style="opacity:1" fill="#22648c" d="M 61.5,91.5 C 62.6801,93.0145 63.6801,94.6812 64.5,96.5C 65.5178,95.8075 66.5178,95.1408 67.5,94.5C 68.1515,93.9094 68.8182,93.2427 69.5,92.5C 70.865,93.8069 72.1984,93.8069 73.5,92.5C 75.5124,94.2082 75.8458,96.2082 74.5,98.5C 73.4502,98.9046 73.4502,99.5712 74.5,100.5C 73.0065,101.141 72.0065,102.141 71.5,103.5C 71.6309,104.376 71.2975,105.043 70.5,105.5C 69.5,104.167 68.5,102.833 67.5,101.5C 66.8182,102.243 66.1515,102.909 65.5,103.5C 62.7381,101.343 59.5714,100.01 56,99.5C 54.9701,99.8361 54.4701,100.503 54.5,101.5C 52.9014,100.201 52.4014,98.5348 53,96.5C 54.1855,98.5593 55.3521,98.726 56.5,97C 55.3849,95.6068 54.8849,94.1068 55,92.5C 56.9717,91.6948 58.4717,90.3615 59.5,88.5C 60.1757,89.6016 60.8423,90.6016 61.5,91.5 Z"/></g>
<g><path style="opacity:1" fill="#2e7097" d="M 95.5,97.5 C 94.1667,98.1667 94.1667,98.8333 95.5,99.5C 93.6479,101.991 91.6479,104.491 89.5,107C 89.8333,107.333 90.1667,107.667 90.5,108C 89.4366,109.188 88.1033,109.688 86.5,109.5C 86.5,108.167 86.5,106.833 86.5,105.5C 82.9206,105.766 82.5873,107.099 85.5,109.5C 84.7573,110.182 84.0906,110.849 83.5,111.5C 81.3198,110.883 79.3198,109.883 77.5,108.5C 75.4733,109.693 73.9733,111.36 73,113.5C 70.1216,112.209 70.2883,110.709 73.5,109C 73.2716,108.601 72.9382,108.435 72.5,108.5C 74.9686,107.683 77.6353,107.183 80.5,107C 77.6783,105.378 74.6783,104.211 71.5,103.5C 72.0065,102.141 73.0065,101.141 74.5,100.5C 73.4502,99.5712 73.4502,98.9046 74.5,98.5C 76.0744,98.9371 77.2411,99.9371 78,101.5C 79.6883,100.675 79.8549,99.6753 78.5,98.5C 82.08,98.2577 85.7467,98.091 89.5,98C 90.3134,96.197 91.4801,94.697 93,93.5C 95.0197,94.0319 95.853,95.3652 95.5,97.5 Z"/></g>
<g><path style="opacity:1" fill="#4c8eb5" d="M 25.5,101.5 C 24.7338,106.499 23.9005,111.499 23,116.5C 22.7978,114.744 22.2978,113.078 21.5,111.5C 20.7025,111.957 20.3691,112.624 20.5,113.5C 20.1667,113.5 19.8333,113.5 19.5,113.5C 17.5992,113.567 15.7659,113.233 14,112.5C 13.5,112.833 13,113.167 12.5,113.5C 15.4094,116.041 14.9094,117.708 11,118.5C 10.3828,117.551 10.5494,116.718 11.5,116C 10.376,115.751 9.37598,115.251 8.5,114.5C 10.3534,112.191 12.02,109.858 13.5,107.5C 15.0418,106.699 16.7085,106.366 18.5,106.5C 18.6287,104.784 18.962,103.117 19.5,101.5C 20.1408,99.9577 21.1408,98.6243 22.5,97.5C 23.0568,99.3316 24.0568,100.665 25.5,101.5 Z"/></g>
<g><path style="opacity:1" fill="#1d5e85" d="M 121.5,98.5 C 121.783,99.2891 122.283,99.9558 123,100.5C 124.47,99.7334 125.97,99.0668 127.5,98.5C 128.552,98.3505 129.552,98.5172 130.5,99C 129.914,101.28 129.08,103.447 128,105.5C 127.51,104.207 127.343,102.873 127.5,101.5C 126.5,101.5 125.5,101.5 124.5,101.5C 124.425,104.206 124.092,106.873 123.5,109.5C 124.5,109.5 125.5,109.5 126.5,109.5C 126.088,111.973 127.088,113.306 129.5,113.5C 128.421,115.543 126.754,116.876 124.5,117.5C 122.473,117.662 120.473,117.495 118.5,117C 119.5,116.167 120.5,115.333 121.5,114.5C 120.171,111.932 118.338,111.266 116,112.5C 113.825,110.477 111.325,109.143 108.5,108.5C 108.5,107.5 108.5,106.5 108.5,105.5C 110.379,104.659 112.379,104.325 114.5,104.5C 114.286,102.856 114.62,101.356 115.5,100C 113.522,97.9851 111.688,98.1517 110,100.5C 109.383,99.5509 109.549,98.7175 110.5,98C 109.833,97.3333 109.167,96.6667 108.5,96C 110.101,95.7266 111.601,95.2266 113,94.5C 114.171,95.8932 115.671,96.7265 117.5,97C 118.513,100.339 119.847,100.839 121.5,98.5 Z"/></g>
<g><path style="opacity:1" fill="#32739b" d="M 65.5,103.5 C 64.962,105.117 64.6287,106.784 64.5,108.5C 63.0222,108.238 61.6888,108.571 60.5,109.5C 61.2458,110.736 61.5792,112.07 61.5,113.5C 58.8333,113.5 56.1667,113.5 53.5,113.5C 52.8413,110.545 52.5079,107.545 52.5,104.5C 53.9063,104.027 54.573,103.027 54.5,101.5C 54.4701,100.503 54.9701,99.8361 56,99.5C 59.5714,100.01 62.7381,101.343 65.5,103.5 Z"/></g>
<g><path style="opacity:1" fill="#296b92" d="M 71.5,103.5 C 74.6783,104.211 77.6783,105.378 80.5,107C 77.6353,107.183 74.9686,107.683 72.5,108.5C 71.5,108.5 70.5,108.5 69.5,108.5C 69.5,110.833 69.5,113.167 69.5,115.5C 68.7784,115.918 68.2784,116.584 68,117.5C 67.0857,115.336 65.919,113.336 64.5,111.5C 63.5481,113.045 63.2148,114.712 63.5,116.5C 60.812,116.834 58.4786,116.168 56.5,114.5C 54.857,114.48 53.5237,115.147 52.5,116.5C 51.8333,114.167 51.1667,111.833 50.5,109.5C 48.7118,108.717 47.7118,107.384 47.5,105.5C 48.9187,104.549 50.5853,104.216 52.5,104.5C 52.5079,107.545 52.8413,110.545 53.5,113.5C 56.1667,113.5 58.8333,113.5 61.5,113.5C 61.5792,112.07 61.2458,110.736 60.5,109.5C 61.6888,108.571 63.0222,108.238 64.5,108.5C 64.6287,106.784 64.962,105.117 65.5,103.5C 66.1515,102.909 66.8182,102.243 67.5,101.5C 68.5,102.833 69.5,104.167 70.5,105.5C 71.2975,105.043 71.6309,104.376 71.5,103.5 Z"/></g>
<g><path style="opacity:1" fill="#06456b" d="M 105.5,93.5 C 106.552,93.3505 107.552,93.5172 108.5,94C 107.095,95.2692 105.429,95.7692 103.5,95.5C 102.547,98.4228 102.214,101.256 102.5,104C 103,104.5 103.5,105 104,105.5C 105.019,104.313 106.186,103.313 107.5,102.5C 108.386,103.325 108.719,104.325 108.5,105.5C 108.5,106.5 108.5,107.5 108.5,108.5C 108.5,108.833 108.5,109.167 108.5,109.5C 106.745,111.803 105.578,114.47 105,117.5C 102.664,116.708 102.164,115.375 103.5,113.5C 100.727,112.747 98.0601,111.747 95.5,110.5C 99.0728,106.864 99.0728,103.197 95.5,99.5C 94.1667,98.8333 94.1667,98.1667 95.5,97.5C 98.874,96.142 102.207,94.8086 105.5,93.5 Z"/></g>
<g><path style="opacity:1" fill="#3e80a7" d="M 34.5,95.5 C 33.7347,98.0961 33.4013,100.763 33.5,103.5C 33.4326,104.959 33.7659,106.292 34.5,107.5C 35.6782,108.999 37.3449,109.999 39.5,110.5C 36.8333,111.167 35.1667,112.833 34.5,115.5C 32.7811,112.952 31.4478,113.285 30.5,116.5C 30.1667,116.333 29.8333,116.167 29.5,116C 28.7362,113.931 28.2362,111.764 28,109.5C 27.1779,111.788 26.5112,114.122 26,116.5C 24.6439,117.38 23.1439,117.714 21.5,117.5C 21.7678,115.901 21.4345,114.568 20.5,113.5C 20.3691,112.624 20.7025,111.957 21.5,111.5C 22.2978,113.078 22.7978,114.744 23,116.5C 23.9005,111.499 24.7338,106.499 25.5,101.5C 25.56,100.957 25.8933,100.624 26.5,100.5C 27.3078,102.423 27.8078,104.423 28,106.5C 29.0113,105.663 30.1779,105.33 31.5,105.5C 31.2878,101.655 32.2878,98.3214 34.5,95.5 Z"/></g>
<g><path style="opacity:1" fill="#5294bb" d="M 5.5,97.5 C 9.99687,99.3339 12.6635,102.667 13.5,107.5C 12.02,109.858 10.3534,112.191 8.5,114.5C 9.37598,115.251 10.376,115.751 11.5,116C 10.5494,116.718 10.3828,117.551 11,118.5C 14.9094,117.708 15.4094,116.041 12.5,113.5C 13,113.167 13.5,112.833 14,112.5C 15.7659,113.233 17.5992,113.567 19.5,113.5C 19.5,114.167 19.5,114.833 19.5,115.5C 18.0863,118.737 15.5863,120.737 12,121.5C 11.5172,122.448 11.3505,123.448 11.5,124.5C 9.4727,124.662 7.4727,124.495 5.5,124C 6.5,123.167 7.5,122.333 8.5,121.5C 6.25382,119.368 3.92048,118.368 1.5,118.5C 4.06278,115.495 4.72945,112.162 3.5,108.5C 5.37487,107.46 6.70821,105.96 7.5,104C 7.16389,102.97 6.49722,102.47 5.5,102.5C 5.5,100.833 5.5,99.1667 5.5,97.5 Z"/></g>
<g><path style="opacity:1" fill="#1f6188" d="M 95.5,99.5 C 99.0728,103.197 99.0728,106.864 95.5,110.5C 98.0601,111.747 100.727,112.747 103.5,113.5C 102.164,115.375 102.664,116.708 105,117.5C 105.578,114.47 106.745,111.803 108.5,109.5C 109.183,111.176 110.517,111.843 112.5,111.5C 112.326,113.861 111.993,116.194 111.5,118.5C 110.778,118.082 110.278,117.416 110,116.5C 107.478,118.662 104.645,118.995 101.5,117.5C 98.134,115.832 94.8007,114.165 91.5,112.5C 89.2395,114.484 88.9061,116.817 90.5,119.5C 90.0618,119.435 89.7284,119.601 89.5,120C 90.3279,120.915 91.3279,121.581 92.5,122C 91.9558,122.717 91.2891,123.217 90.5,123.5C 89.1733,122.2 87.84,120.867 86.5,119.5C 84.9713,120.763 83.3046,121.763 81.5,122.5C 78.1074,120.974 76.7741,118.307 77.5,114.5C 79.5914,114.318 81.5914,114.652 83.5,115.5C 84.6256,114.192 84.6256,112.858 83.5,111.5C 84.0906,110.849 84.7573,110.182 85.5,109.5C 82.5873,107.099 82.9206,105.766 86.5,105.5C 86.5,106.833 86.5,108.167 86.5,109.5C 88.1033,109.688 89.4366,109.188 90.5,108C 90.1667,107.667 89.8333,107.333 89.5,107C 91.6479,104.491 93.6479,101.991 95.5,99.5 Z"/></g>
<g><path style="opacity:1" fill="#1a5a81" d="M 37.5,98.5 C 37.6985,100.96 38.3652,103.293 39.5,105.5C 40.086,105.291 40.586,104.957 41,104.5C 42.3287,105.494 43.662,106.494 45,107.5C 46.0111,106.944 46.8444,106.278 47.5,105.5C 47.7118,107.384 48.7118,108.717 50.5,109.5C 51.1667,111.833 51.8333,114.167 52.5,116.5C 53.5237,115.147 54.857,114.48 56.5,114.5C 56.5,115.5 56.5,116.5 56.5,117.5C 55.1054,116.185 54.1054,116.519 53.5,118.5C 52.5,118.5 51.5,118.5 50.5,118.5C 50.7163,120.681 49.883,122.347 48,123.5C 46.5993,121.808 44.7659,121.141 42.5,121.5C 42.719,120.325 42.3857,119.325 41.5,118.5C 40.3044,118.846 40.3044,119.346 41.5,120C 39.2852,120.17 37.2852,120.837 35.5,122C 36.0944,122.464 36.7611,122.631 37.5,122.5C 34.2028,126.787 29.8695,129.454 24.5,130.5C 22.7483,130.582 21.7483,129.749 21.5,128C 22.007,125.459 22.6737,122.959 23.5,120.5C 24.4287,121.689 24.762,123.022 24.5,124.5C 26.5,124.5 28.5,124.5 30.5,124.5C 30.3537,122.058 31.187,121.391 33,122.5C 34.2841,119.47 35.4508,116.47 36.5,113.5C 37.675,113.281 38.675,113.614 39.5,114.5C 38.4104,115.609 38.4104,116.609 39.5,117.5C 40.8333,116.167 42.1667,116.167 43.5,117.5C 44.316,115.713 45.316,114.046 46.5,112.5C 43.1825,109.174 39.1825,107.507 34.5,107.5C 33.7659,106.292 33.4326,104.959 33.5,103.5C 34.8333,101.833 36.1667,100.167 37.5,98.5 Z"/></g>
<g><path style="opacity:1" fill="#2a678b" d="M 108.5,108.5 C 111.325,109.143 113.825,110.477 116,112.5C 118.338,111.266 120.171,111.932 121.5,114.5C 120.5,115.333 119.5,116.167 118.5,117C 120.473,117.495 122.473,117.662 124.5,117.5C 120.067,122.933 114.733,127.266 108.5,130.5C 109.684,129.312 109.684,128.145 108.5,127C 110.973,125.598 110.973,124.098 108.5,122.5C 109.833,121.833 111.167,121.167 112.5,120.5C 112.137,119.817 111.804,119.15 111.5,118.5C 111.993,116.194 112.326,113.861 112.5,111.5C 110.517,111.843 109.183,111.176 108.5,109.5C 108.5,109.167 108.5,108.833 108.5,108.5 Z"/></g>
<g><path style="opacity:1" fill="#15557d" d="M 111.5,118.5 C 111.804,119.15 112.137,119.817 112.5,120.5C 111.167,121.167 109.833,121.833 108.5,122.5C 110.973,124.098 110.973,125.598 108.5,127C 109.684,128.145 109.684,129.312 108.5,130.5C 108.5,131.167 108.167,131.5 107.5,131.5C 106.665,130.057 105.332,129.057 103.5,128.5C 105.475,127.725 106.309,126.391 106,124.5C 101.954,125.559 99.121,124.059 97.5,120C 95.1902,119.503 92.8568,119.337 90.5,119.5C 88.9061,116.817 89.2395,114.484 91.5,112.5C 94.8007,114.165 98.134,115.832 101.5,117.5C 104.645,118.995 107.478,118.662 110,116.5C 110.278,117.416 110.778,118.082 111.5,118.5 Z"/></g>
<g><path style="opacity:1" fill="#0b4b73" d="M 53.5,118.5 C 54.0967,118.735 54.4301,119.235 54.5,120C 53.8333,122 53.1667,124 52.5,126C 53.0223,126.95 53.689,127.784 54.5,128.5C 53.4035,130.535 51.7368,131.868 49.5,132.5C 48.7517,134.416 48.7517,136.416 49.5,138.5C 47.8967,138.688 46.5634,138.188 45.5,137C 46.9561,136.577 47.4561,135.744 47,134.5C 45.871,132.859 44.371,131.859 42.5,131.5C 42.1667,131.5 41.8333,131.5 41.5,131.5C 42.5039,128.168 41.8373,125.168 39.5,122.5C 38.8333,122.5 38.1667,122.5 37.5,122.5C 36.7611,122.631 36.0944,122.464 35.5,122C 37.2852,120.837 39.2852,120.17 41.5,120C 40.3044,119.346 40.3044,118.846 41.5,118.5C 42.3857,119.325 42.719,120.325 42.5,121.5C 44.7659,121.141 46.5993,121.808 48,123.5C 49.883,122.347 50.7163,120.681 50.5,118.5C 51.5,118.5 52.5,118.5 53.5,118.5 Z"/></g>
<g><path style="opacity:1" fill="#0d4a70" d="M 90.5,119.5 C 92.8568,119.337 95.1902,119.503 97.5,120C 99.121,124.059 101.954,125.559 106,124.5C 106.309,126.391 105.475,127.725 103.5,128.5C 105.332,129.057 106.665,130.057 107.5,131.5C 104.869,133.153 102.203,134.819 99.5,136.5C 97.88,135.159 96.88,133.326 96.5,131C 96.8333,130.667 97.1667,130.333 97.5,130C 94.6526,128.148 92.1526,128.648 90,131.5C 88.4277,136.832 87.2611,136.666 86.5,131C 88.4962,128.838 89.8295,126.338 90.5,123.5C 91.2891,123.217 91.9558,122.717 92.5,122C 91.3279,121.581 90.3279,120.915 89.5,120C 89.7284,119.601 90.0618,119.435 90.5,119.5 Z"/></g>
<g><path style="opacity:1" fill="#4282a7" d="M 5.5,102.5 C 6.49722,102.47 7.16389,102.97 7.5,104C 6.70821,105.96 5.37487,107.46 3.5,108.5C 4.72945,112.162 4.06278,115.495 1.5,118.5C 3.92048,118.368 6.25382,119.368 8.5,121.5C 7.5,122.333 6.5,123.167 5.5,124C 7.4727,124.495 9.4727,124.662 11.5,124.5C 11.3505,123.448 11.5172,122.448 12,121.5C 15.5863,120.737 18.0863,118.737 19.5,115.5C 19.2479,118.244 19.9145,120.744 21.5,123C 20.7665,124.766 20.4332,126.599 20.5,128.5C 19.5,128.5 18.5,128.5 17.5,128.5C 17.5391,126.641 16.7058,125.308 15,124.5C 13.1079,125.617 12.2746,127.284 12.5,129.5C 10.4884,128.986 8.48838,128.82 6.5,129C 7.05596,129.383 7.38929,129.883 7.5,130.5C 6.76109,130.631 6.09442,130.464 5.5,130C 3.36056,127.522 1.36056,125.022 -0.5,122.5C -0.5,118.833 -0.5,115.167 -0.5,111.5C 0.743612,108.018 2.74361,105.018 5.5,102.5 Z"/></g>
<g><path style="opacity:1" fill="#1a5c83" d="M 69.5,115.5 C 70.5,115.5 71.5,115.5 72.5,115.5C 72.5,116.833 72.5,118.167 72.5,119.5C 70.8333,119.5 69.1667,119.5 67.5,119.5C 67.5,120.5 67.5,121.5 67.5,122.5C 69.6778,123.204 71.6778,123.537 73.5,123.5C 74.5836,122.335 75.4169,121.002 76,119.5C 76.1968,121.861 77.3635,123.528 79.5,124.5C 78.8505,127.691 78.8505,130.691 79.5,133.5C 77.6735,133.789 76.0068,133.289 74.5,132C 73.9034,133.628 74.2367,135.295 75.5,137C 74.0842,139.265 72.0842,140.431 69.5,140.5C 69.3713,142.216 69.038,143.883 68.5,145.5C 67.5222,145.189 66.8555,144.522 66.5,143.5C 67.0933,141.618 67.7599,139.785 68.5,138C 67.1011,137.405 65.7678,137.572 64.5,138.5C 63.2473,135.08 64.5807,133.746 68.5,134.5C 68.5,133.5 68.5,132.5 68.5,131.5C 67.1266,131.657 65.7932,131.49 64.5,131C 66.5037,128.159 67.0037,124.993 66,121.5C 65.6174,122.056 65.1174,122.389 64.5,122.5C 63.5125,119.137 61.5125,118.137 58.5,119.5C 57.2867,119.253 56.62,118.586 56.5,117.5C 56.5,116.5 56.5,115.5 56.5,114.5C 58.4786,116.168 60.812,116.834 63.5,116.5C 63.2148,114.712 63.5481,113.045 64.5,111.5C 65.919,113.336 67.0857,115.336 68,117.5C 68.2784,116.584 68.7784,115.918 69.5,115.5 Z"/></g>
<g><path style="opacity:1" fill="#16547b" d="M 90.5,123.5 C 89.8295,126.338 88.4962,128.838 86.5,131C 87.2611,136.666 88.4277,136.832 90,131.5C 92.1526,128.648 94.6526,128.148 97.5,130C 97.1667,130.333 96.8333,130.667 96.5,131C 96.88,133.326 97.88,135.159 99.5,136.5C 96.5342,138.988 93.2009,140.988 89.5,142.5C 89.3601,140.876 90.0267,139.71 91.5,139C 90.8333,138.333 90.1667,137.667 89.5,137C 86.6677,136.674 84.001,137.174 81.5,138.5C 81.6347,136.446 80.968,134.779 79.5,133.5C 80.5,133.5 81.5,133.5 82.5,133.5C 82.3285,131.508 82.9951,129.842 84.5,128.5C 82.0217,127.278 81.0217,125.278 81.5,122.5C 83.3046,121.763 84.9713,120.763 86.5,119.5C 87.84,120.867 89.1733,122.2 90.5,123.5 Z"/></g>
<g><path style="opacity:1" fill="#1b597f" d="M 68.5,145.5 C 68.56,146.043 68.8933,146.376 69.5,146.5C 71.2895,145.123 73.2895,144.123 75.5,143.5C 76.7193,144.263 77.7193,145.263 78.5,146.5C 79.2508,145.624 79.7508,144.624 80,143.5C 81.3561,144.38 82.8561,144.714 84.5,144.5C 78.6656,148.921 72.3322,152.588 65.5,155.5C 64.0222,155.762 62.6888,155.429 61.5,154.5C 62.325,153.614 63.325,153.281 64.5,153.5C 64.9465,150.99 64.2798,148.99 62.5,147.5C 62.0825,146.778 61.4158,146.278 60.5,146C 61.7839,145.316 62.9505,145.483 64,146.5C 64.6924,145.975 65.1924,145.308 65.5,144.5C 63.8651,141.368 62.0318,138.368 60,135.5C 59.587,132.768 58.9203,130.101 58,127.5C 57.7104,129.044 57.0437,130.377 56,131.5C 55.5034,129.19 55.3367,126.857 55.5,124.5C 58.4797,124.241 60.313,125.574 61,128.5C 63.2645,127.084 64.4312,125.084 64.5,122.5C 65.1174,122.389 65.6174,122.056 66,121.5C 67.0037,124.993 66.5037,128.159 64.5,131C 65.7932,131.49 67.1266,131.657 68.5,131.5C 68.5,132.5 68.5,133.5 68.5,134.5C 64.5807,133.746 63.2473,135.08 64.5,138.5C 65.7678,137.572 67.1011,137.405 68.5,138C 67.7599,139.785 67.0933,141.618 66.5,143.5C 66.8555,144.522 67.5222,145.189 68.5,145.5 Z"/></g>
<g><path style="opacity:1" fill="#4580a1" d="M 39.5,122.5 C 41.8373,125.168 42.5039,128.168 41.5,131.5C 39.405,131.24 38.0717,130.074 37.5,128C 38.3195,126.2 38.9862,124.366 39.5,122.5 Z"/></g>
<g><path style="opacity:1" fill="#22638b" d="M 72.5,108.5 C 72.9382,108.435 73.2716,108.601 73.5,109C 70.2883,110.709 70.1216,112.209 73,113.5C 73.9733,111.36 75.4733,109.693 77.5,108.5C 79.3198,109.883 81.3198,110.883 83.5,111.5C 84.6256,112.858 84.6256,114.192 83.5,115.5C 81.5914,114.652 79.5914,114.318 77.5,114.5C 76.7741,118.307 78.1074,120.974 81.5,122.5C 81.0217,125.278 82.0217,127.278 84.5,128.5C 82.9951,129.842 82.3285,131.508 82.5,133.5C 81.5,133.5 80.5,133.5 79.5,133.5C 78.8505,130.691 78.8505,127.691 79.5,124.5C 77.3635,123.528 76.1968,121.861 76,119.5C 75.4169,121.002 74.5836,122.335 73.5,123.5C 71.6778,123.537 69.6778,123.204 67.5,122.5C 67.5,121.5 67.5,120.5 67.5,119.5C 69.1667,119.5 70.8333,119.5 72.5,119.5C 72.5,118.167 72.5,116.833 72.5,115.5C 71.5,115.5 70.5,115.5 69.5,115.5C 69.5,113.167 69.5,110.833 69.5,108.5C 70.5,108.5 71.5,108.5 72.5,108.5 Z"/></g>
<g><path style="opacity:1" fill="#2d6d93" d="M 34.5,107.5 C 39.1825,107.507 43.1825,109.174 46.5,112.5C 45.316,114.046 44.316,115.713 43.5,117.5C 42.1667,116.167 40.8333,116.167 39.5,117.5C 38.4104,116.609 38.4104,115.609 39.5,114.5C 38.675,113.614 37.675,113.281 36.5,113.5C 35.4508,116.47 34.2841,119.47 33,122.5C 31.187,121.391 30.3537,122.058 30.5,124.5C 28.5,124.5 26.5,124.5 24.5,124.5C 24.762,123.022 24.4287,121.689 23.5,120.5C 22.6737,122.959 22.007,125.459 21.5,128C 21.7483,129.749 22.7483,130.582 24.5,130.5C 19.5429,133.783 14.2095,134.283 8.5,132C 7.94404,131.617 7.61071,131.117 7.5,130.5C 7.38929,129.883 7.05596,129.383 6.5,129C 8.48838,128.82 10.4884,128.986 12.5,129.5C 12.2746,127.284 13.1079,125.617 15,124.5C 16.7058,125.308 17.5391,126.641 17.5,128.5C 18.5,128.5 19.5,128.5 20.5,128.5C 20.4332,126.599 20.7665,124.766 21.5,123C 19.9145,120.744 19.2479,118.244 19.5,115.5C 19.5,114.833 19.5,114.167 19.5,113.5C 19.8333,113.5 20.1667,113.5 20.5,113.5C 21.4345,114.568 21.7678,115.901 21.5,117.5C 23.1439,117.714 24.6439,117.38 26,116.5C 26.5112,114.122 27.1779,111.788 28,109.5C 28.2362,111.764 28.7362,113.931 29.5,116C 29.8333,116.167 30.1667,116.333 30.5,116.5C 31.4478,113.285 32.7811,112.952 34.5,115.5C 35.1667,112.833 36.8333,111.167 39.5,110.5C 37.3449,109.999 35.6782,108.999 34.5,107.5 Z"/></g>
<g><path style="opacity:1" fill="#206289" d="M 56.5,117.5 C 56.62,118.586 57.2867,119.253 58.5,119.5C 61.5125,118.137 63.5125,119.137 64.5,122.5C 64.4312,125.084 63.2645,127.084 61,128.5C 60.313,125.574 58.4797,124.241 55.5,124.5C 55.3367,126.857 55.5034,129.19 56,131.5C 57.0437,130.377 57.7104,129.044 58,127.5C 58.9203,130.101 59.587,132.768 60,135.5C 62.0318,138.368 63.8651,141.368 65.5,144.5C 65.1924,145.308 64.6924,145.975 64,146.5C 62.9505,145.483 61.7839,145.316 60.5,146C 61.4158,146.278 62.0825,146.778 62.5,147.5C 61.5,147.5 60.5,147.5 59.5,147.5C 59.5,146.167 59.5,144.833 59.5,143.5C 55.0794,145.106 52.746,143.439 52.5,138.5C 51.5,138.5 50.5,138.5 49.5,138.5C 48.7517,136.416 48.7517,134.416 49.5,132.5C 51.7368,131.868 53.4035,130.535 54.5,128.5C 53.689,127.784 53.0223,126.95 52.5,126C 53.1667,124 53.8333,122 54.5,120C 54.4301,119.235 54.0967,118.735 53.5,118.5C 54.1054,116.519 55.1054,116.185 56.5,117.5 Z"/></g>
<g><path style="opacity:1" fill="#0c4b72" d="M 79.5,133.5 C 80.968,134.779 81.6347,136.446 81.5,138.5C 84.001,137.174 86.6677,136.674 89.5,137C 90.1667,137.667 90.8333,138.333 91.5,139C 90.0267,139.71 89.3601,140.876 89.5,142.5C 88.0697,143.537 86.403,144.204 84.5,144.5C 82.8561,144.714 81.3561,144.38 80,143.5C 79.7508,144.624 79.2508,145.624 78.5,146.5C 77.7193,145.263 76.7193,144.263 75.5,143.5C 73.2895,144.123 71.2895,145.123 69.5,146.5C 68.8933,146.376 68.56,146.043 68.5,145.5C 69.038,143.883 69.3713,142.216 69.5,140.5C 72.0842,140.431 74.0842,139.265 75.5,137C 74.2367,135.295 73.9034,133.628 74.5,132C 76.0068,133.289 77.6735,133.789 79.5,133.5 Z"/></g>
<g><path style="opacity:1" fill="#3e7ea4" d="M 42.5,131.5 C 44.371,131.859 45.871,132.859 47,134.5C 47.4561,135.744 46.9561,136.577 45.5,137C 46.5634,138.188 47.8967,138.688 49.5,138.5C 50.5,138.5 51.5,138.5 52.5,138.5C 52.746,143.439 55.0794,145.106 59.5,143.5C 59.5,144.833 59.5,146.167 59.5,147.5C 60.5,147.5 61.5,147.5 62.5,147.5C 64.2798,148.99 64.9465,150.99 64.5,153.5C 63.325,153.281 62.325,153.614 61.5,154.5C 62.6888,155.429 64.0222,155.762 65.5,155.5C 63.5,156.5 61.5,157.5 59.5,158.5C 56.1667,158.5 52.8333,158.5 49.5,158.5C 37.0722,151.911 34.7389,142.911 42.5,131.5 Z"/></g>
</svg>
