<?xml version="1.0" encoding="UTF-8"?>
<!DOCTYPE svg PUBLIC "-//W3C//DTD SVG 1.1//EN" "http://www.w3.org/Graphics/SVG/1.1/DTD/svg11.dtd">
<svg xmlns="http://www.w3.org/2000/svg" version="1.1" width="223px" height="222px" style="shape-rendering:geometricPrecision; text-rendering:geometricPrecision; image-rendering:optimizeQuality; fill-rule:evenodd; clip-rule:evenodd" xmlns:xlink="http://www.w3.org/1999/xlink">
<g><path style="opacity:1" fill="#5e7594" d="M 127.5,68.5 C 126.07,68.5792 124.736,68.2458 123.5,67.5C 123.611,69.1086 123.278,70.7753 122.5,72.5C 120.847,71.4709 119.514,71.9709 118.5,74C 119.713,76.2619 121.046,78.4285 122.5,80.5C 115.561,77.9426 113.728,73.2759 117,66.5C 120.885,65.1849 124.385,65.8515 127.5,68.5 Z"/></g>
<g><path style="opacity:1" fill="#6f8caf" d="M 77.5,68.5 C 78.2625,69.2679 79.2625,69.7679 80.5,70C 77.2018,70.2994 76.8685,71.1327 79.5,72.5C 79.8333,72.5 80.1667,72.5 80.5,72.5C 80.5,73.1667 80.8333,73.5 81.5,73.5C 82.1667,73.5 82.8333,73.5 83.5,73.5C 85.4261,75.2927 87.7594,76.2927 90.5,76.5C 90.5,76.8333 90.5,77.1667 90.5,77.5C 89.5028,77.4701 88.8361,77.9701 88.5,79C 89.7547,80.8868 89.7547,82.7201 88.5,84.5C 80.3341,81.3388 75.0008,75.6721 72.5,67.5C 74.2915,67.366 75.9582,67.6993 77.5,68.5 Z"/></g>
<g><path style="opacity:1" fill="#8cafcf" d="M 77.5,68.5 C 82.5166,69.3928 87.1832,71.0595 91.5,73.5C 90.6618,73.8417 90.3284,74.5084 90.5,75.5C 88.2543,74.5448 85.921,73.8782 83.5,73.5C 82.8333,72.1667 82.1667,72.1667 81.5,73.5C 80.8333,73.5 80.5,73.1667 80.5,72.5C 80.1667,71.1667 79.8333,71.1667 79.5,72.5C 76.8685,71.1327 77.2018,70.2994 80.5,70C 79.2625,69.7679 78.2625,69.2679 77.5,68.5 Z"/></g>
<g><path style="opacity:1" fill="#21273b" d="M 169.5,71.5 C 169.953,72.4584 170.619,73.2917 171.5,74C 170.167,74.3333 168.833,74.6667 167.5,75C 166.92,76.3349 166.587,77.5015 166.5,78.5C 165.833,78.5 165.5,78.1667 165.5,77.5C 165.318,75.4086 165.652,73.4086 166.5,71.5C 167.425,70.4376 168.425,70.4376 169.5,71.5 Z"/></g>
<g><path style="opacity:1" fill="#7597ba" d="M 187.5,76.5 C 187.631,77.3764 187.298,78.0431 186.5,78.5C 184.925,77.5435 183.258,76.8769 181.5,76.5C 178.5,75.1667 175.5,73.8333 172.5,72.5C 172.5,71.8333 172.167,71.5 171.5,71.5C 170.833,71.5 170.167,71.5 169.5,71.5C 168.425,70.4376 167.425,70.4376 166.5,71.5C 165.652,73.4086 165.318,75.4086 165.5,77.5C 164.299,74.5948 164.466,71.5948 166,68.5C 167.57,67.6422 169.237,66.9755 171,66.5C 177.598,68.2071 183.098,71.5405 187.5,76.5 Z"/></g>
<g><path style="opacity:1" fill="#5b708e" d="M 127.5,68.5 C 133.021,71.0152 138.021,74.3485 142.5,78.5C 141.153,79.1712 139.986,79.1712 139,78.5C 138.692,79.3081 138.192,79.9747 137.5,80.5C 137.704,79.4706 137.204,78.4706 136,77.5C 135.667,78.1667 135.333,78.8333 135,79.5C 133.67,78.4178 132.17,77.7512 130.5,77.5C 130.5,77.1667 130.5,76.8333 130.5,76.5C 129.833,76.5 129.5,76.1667 129.5,75.5C 129.167,74.1667 128.833,74.1667 128.5,75.5C 126.483,74.4706 124.483,73.4706 122.5,72.5C 123.278,70.7753 123.611,69.1086 123.5,67.5C 124.736,68.2458 126.07,68.5792 127.5,68.5 Z"/></g>
<g><path style="opacity:1" fill="#6b86a7" d="M 51.5,79.5 C 50.5,79.5 49.5,79.5 48.5,79.5C 48.5,80.5 48.5,81.5 48.5,82.5C 47.5084,82.3284 46.8417,82.6618 46.5,83.5C 45.5084,83.6716 44.8417,83.3382 44.5,82.5C 44.6216,81.2931 43.6216,80.6264 41.5,80.5C 41.8333,81.1667 42.1667,81.8333 42.5,82.5C 40.874,82.0617 39.2073,81.7284 37.5,81.5C 35.9704,81.6399 34.9704,82.3065 34.5,83.5C 30.7458,82.1346 29.5791,79.4679 31,75.5C 33.5791,73.6533 36.4124,73.1533 39.5,74C 43.9495,75.0612 47.9495,76.8946 51.5,79.5 Z M 41.5,80.5 C 43.6216,80.6264 44.6216,81.2931 44.5,82.5C 43.8333,82.5 43.1667,82.5 42.5,82.5C 42.1667,81.8333 41.8333,81.1667 41.5,80.5 Z"/></g>
<g><path style="opacity:1" fill="#526889" d="M 130.5,77.5 C 132.17,77.7512 133.67,78.4178 135,79.5C 135.333,78.8333 135.667,78.1667 136,77.5C 137.204,78.4706 137.704,79.4706 137.5,80.5C 138.192,79.9747 138.692,79.3081 139,78.5C 139.986,79.1712 141.153,79.1712 142.5,78.5C 143.167,78.5 143.5,78.8333 143.5,79.5C 142.508,79.3284 141.842,79.6618 141.5,80.5C 139.364,81.5117 137.031,82.845 134.5,84.5C 131.252,82.7543 127.918,81.0877 124.5,79.5C 123.96,78.2519 123.293,77.0852 122.5,76C 125.322,75.5721 127.988,76.0721 130.5,77.5 Z"/></g>
<g><path style="opacity:1" fill="#6a86a7" d="M 91.5,73.5 C 95.3696,74.2633 98.3696,76.2633 100.5,79.5C 98.857,79.5198 97.5237,78.8532 96.5,77.5C 95.4291,79.3255 96.0958,80.4921 98.5,81C 97.9056,81.4643 97.2389,81.631 96.5,81.5C 95.1667,81.5 93.8333,81.5 92.5,81.5C 92.3253,83.6208 92.6586,85.6208 93.5,87.5C 91.326,87.2503 89.6594,86.2503 88.5,84.5C 89.7547,82.7201 89.7547,80.8868 88.5,79C 88.8361,77.9701 89.5028,77.4701 90.5,77.5C 93.1667,77.1667 93.1667,76.8333 90.5,76.5C 90.5,76.1667 90.5,75.8333 90.5,75.5C 90.3284,74.5084 90.6618,73.8417 91.5,73.5 Z"/></g>
<g><path style="opacity:0.999" fill="#4b6183" d="M 141.5,80.5 C 145.437,82.7611 147.77,86.0945 148.5,90.5C 146.5,90.5 144.5,90.5 142.5,90.5C 141.209,90.7373 140.209,90.404 139.5,89.5C 138.391,88.71 137.058,88.21 135.5,88C 134.663,86.9887 134.33,85.8221 134.5,84.5C 137.031,82.845 139.364,81.5117 141.5,80.5 Z"/></g>
<g><path style="opacity:1" fill="#41537a" d="M 180.5,81.5 C 181.906,81.9731 182.573,82.9731 182.5,84.5C 181.957,84.56 181.624,84.8933 181.5,85.5C 184.478,87.3477 184.812,89.3477 182.5,91.5C 180.929,89.585 178.929,88.585 176.5,88.5C 174.35,86.1766 172.35,83.6766 170.5,81C 171.212,79.558 172.379,78.7247 174,78.5C 176.281,79.7763 178.281,81.4429 180,83.5C 180.464,82.9056 180.631,82.2389 180.5,81.5 Z"/></g>
<g><path style="opacity:1" fill="#5d7898" d="M 100.5,79.5 C 103.268,81.0872 105.935,82.9205 108.5,85C 109.305,86.1127 109.972,87.2794 110.5,88.5C 110.821,90.0481 111.821,90.7148 113.5,90.5C 113.5,91.5 113.5,92.5 113.5,93.5C 111.833,94.8333 110.167,96.1667 108.5,97.5C 107.504,97.4142 106.671,97.7476 106,98.5C 105.626,97.5838 105.126,96.7504 104.5,96C 104.728,95.6012 105.062,95.4346 105.5,95.5C 107.93,94.3467 107.93,93.3467 105.5,92.5C 103.945,92.722 102.611,93.3887 101.5,94.5C 101.6,90.7592 100.6,87.0925 98.5,83.5C 95.7978,84.7978 95.1311,84.1312 96.5,81.5C 97.2389,81.631 97.9056,81.4643 98.5,81C 96.0958,80.4921 95.4291,79.3255 96.5,77.5C 97.5237,78.8532 98.857,79.5198 100.5,79.5 Z"/></g>
<g><path style="opacity:1" fill="#5e7898" d="M 51.5,79.5 C 57.9278,81.8604 62.9278,85.8604 66.5,91.5C 66.5,92.5 66.5,93.5 66.5,94.5C 68.1788,94.2852 69.1788,94.9519 69.5,96.5C 68.7005,98.5735 67.3671,100.24 65.5,101.5C 64.0413,101.567 62.7079,101.234 61.5,100.5C 60.6016,99.8423 59.6016,99.1757 58.5,98.5C 59.2458,97.2638 59.5792,95.9305 59.5,94.5C 58.5,94.5 57.5,94.5 56.5,94.5C 52.65,93.0722 48.9834,91.4056 45.5,89.5C 47.1439,89.2865 48.6439,89.6198 50,90.5C 50.956,89.4214 51.7894,88.2547 52.5,87C 50.6854,86.2432 49.0188,85.4098 47.5,84.5C 49.6977,84.5912 50.0311,83.9245 48.5,82.5C 48.5,81.5 48.5,80.5 48.5,79.5C 49.5,79.5 50.5,79.5 51.5,79.5 Z"/></g>
<g><path style="opacity:1" fill="#4c5d7a" d="M 122.5,72.5 C 124.483,73.4706 126.483,74.4706 128.5,75.5C 128.833,75.5 129.167,75.5 129.5,75.5C 129.5,76.1667 129.833,76.5 130.5,76.5C 130.5,76.8333 130.5,77.1667 130.5,77.5C 127.988,76.0721 125.322,75.5721 122.5,76C 123.293,77.0852 123.96,78.2519 124.5,79.5C 127.918,81.0877 131.252,82.7543 134.5,84.5C 134.33,85.8221 134.663,86.9887 135.5,88C 137.058,88.21 138.391,88.71 139.5,89.5C 138.833,89.5 138.167,89.5 137.5,89.5C 136.833,89.5 136.167,89.5 135.5,89.5C 131.304,86.2407 126.97,83.2407 122.5,80.5C 121.046,78.4285 119.713,76.2619 118.5,74C 119.514,71.9709 120.847,71.4709 122.5,72.5 Z"/></g>
<g><path style="opacity:0.996" fill="#3d4b65" d="M 169.5,71.5 C 170.167,71.5 170.833,71.5 171.5,71.5C 172.167,71.5 172.5,71.8333 172.5,72.5C 174.645,75.9194 177.312,78.9194 180.5,81.5C 180.631,82.2389 180.464,82.9056 180,83.5C 178.281,81.4429 176.281,79.7763 174,78.5C 172.379,78.7247 171.212,79.558 170.5,81C 172.35,83.6766 174.35,86.1766 176.5,88.5C 179.656,90.9243 182.656,93.591 185.5,96.5C 184.767,97.087 183.767,97.087 182.5,96.5C 176.059,91.3977 170.726,85.3977 166.5,78.5C 166.587,77.5015 166.92,76.3349 167.5,75C 168.833,74.6667 170.167,74.3333 171.5,74C 170.619,73.2917 169.953,72.4584 169.5,71.5 Z"/></g>
<g><path style="opacity:1" fill="#7ca2c6" d="M 181.5,76.5 C 183.258,76.8769 184.925,77.5435 186.5,78.5C 187.298,78.0431 187.631,77.3764 187.5,76.5C 189.836,78.0038 191.669,80.0038 193,82.5C 195.51,87.7934 196.343,93.1267 195.5,98.5C 194.746,96.4947 193.579,95.828 192,96.5C 190.441,94.7834 189.608,92.7834 189.5,90.5C 188.119,85.1139 185.452,80.4473 181.5,76.5 Z"/></g>
<g><path style="opacity:1" fill="#5a7292" d="M 42.5,82.5 C 43.1667,82.5 43.8333,82.5 44.5,82.5C 44.8417,83.3382 45.5084,83.6716 46.5,83.5C 47.1667,83.5 47.5,83.8333 47.5,84.5C 49.0188,85.4098 50.6854,86.2432 52.5,87C 51.7894,88.2547 50.956,89.4214 50,90.5C 48.6439,89.6198 47.1439,89.2865 45.5,89.5C 41.0551,88.7803 37.3884,86.7803 34.5,83.5C 34.9704,82.3065 35.9704,81.6399 37.5,81.5C 39.2073,81.7284 40.874,82.0617 42.5,82.5 Z"/></g>
<g><path style="opacity:1" fill="#6a89a1" d="M 110.5,88.5 C 119.019,90.4766 127.686,91.3099 136.5,91C 135.944,90.6174 135.611,90.1174 135.5,89.5C 136.167,89.5 136.833,89.5 137.5,89.5C 137.946,92.0101 137.28,94.0101 135.5,95.5C 134.167,95.5 132.833,95.5 131.5,95.5C 125.411,95.2249 119.411,94.5583 113.5,93.5C 113.5,92.5 113.5,91.5 113.5,90.5C 111.821,90.7148 110.821,90.0481 110.5,88.5 Z"/></g>
<g><path style="opacity:1" fill="#516581" d="M 141.5,80.5 C 141.842,79.6618 142.508,79.3284 143.5,79.5C 148.807,82.7993 152.14,87.466 153.5,93.5C 155.378,94.2076 157.045,95.3743 158.5,97C 157.906,97.4643 157.239,97.631 156.5,97.5C 152.567,96.8574 149.234,97.8574 146.5,100.5C 145.637,99.0597 145.637,97.7264 146.5,96.5C 145.349,95.269 144.183,95.269 143,96.5C 142.505,94.5273 142.338,92.5273 142.5,90.5C 144.5,90.5 146.5,90.5 148.5,90.5C 147.77,86.0945 145.437,82.7611 141.5,80.5 Z"/></g>
<g><path style="opacity:1" fill="#7594ae" d="M 97.5,89.5 C 99.7929,90.3013 99.4596,90.968 96.5,91.5C 95.0222,91.238 93.6888,91.5713 92.5,92.5C 93.6117,96.4598 91.945,98.1265 87.5,97.5C 88.6002,96.4415 89.9336,95.6082 91.5,95C 84.1842,95.2973 76.8509,95.7973 69.5,96.5C 69.1788,94.9519 68.1788,94.2852 66.5,94.5C 66.5,93.5 66.5,92.5 66.5,91.5C 67.3991,92.4715 68.5657,93.1382 70,93.5C 79.2947,92.0462 88.4614,90.7129 97.5,89.5 Z"/></g>
<g><path style="opacity:1" fill="#3f4a67" d="M 182.5,84.5 C 184.789,86.448 187.122,88.448 189.5,90.5C 189.608,92.7834 190.441,94.7834 192,96.5C 193.579,95.828 194.746,96.4947 195.5,98.5C 195.768,100.099 195.434,101.432 194.5,102.5C 193.288,104.264 193.621,105.93 195.5,107.5C 194.757,108.182 194.091,108.849 193.5,109.5C 193.5,110.167 193.167,110.5 192.5,110.5C 190.53,109.838 188.53,109.172 186.5,108.5C 185.702,108.043 185.369,107.376 185.5,106.5C 185.5,106.167 185.5,105.833 185.5,105.5C 185.5,103.833 185.5,102.167 185.5,100.5C 184.5,99.1667 183.5,97.8333 182.5,96.5C 183.767,97.087 184.767,97.087 185.5,96.5C 182.656,93.591 179.656,90.9243 176.5,88.5C 178.929,88.585 180.929,89.585 182.5,91.5C 184.812,89.3477 184.478,87.3477 181.5,85.5C 181.624,84.8933 181.957,84.56 182.5,84.5 Z"/></g>
<g><path style="opacity:1" fill="#566e8b" d="M 96.5,81.5 C 95.1311,84.1312 95.7978,84.7978 98.5,83.5C 100.6,87.0925 101.6,90.7592 101.5,94.5C 102.611,93.3887 103.945,92.722 105.5,92.5C 107.93,93.3467 107.93,94.3467 105.5,95.5C 105.44,94.9569 105.107,94.6236 104.5,94.5C 101.555,96.1431 98.5549,97.4764 95.5,98.5C 93.9365,95.8684 94.2699,93.5351 96.5,91.5C 99.4596,90.968 99.7929,90.3013 97.5,89.5C 95.847,89.3404 94.5137,88.6737 93.5,87.5C 92.6586,85.6208 92.3253,83.6208 92.5,81.5C 93.8333,81.5 95.1667,81.5 96.5,81.5 Z"/></g>
<g><path style="opacity:1" fill="#415069" d="M 137.5,89.5 C 138.167,89.5 138.833,89.5 139.5,89.5C 140.209,90.404 141.209,90.7373 142.5,90.5C 142.338,92.5273 142.505,94.5273 143,96.5C 144.183,95.269 145.349,95.269 146.5,96.5C 145.637,97.7264 145.637,99.0597 146.5,100.5C 145.71,101.401 144.71,102.068 143.5,102.5C 138.964,102.297 136.298,99.964 135.5,95.5C 137.28,94.0101 137.946,92.0101 137.5,89.5 Z"/></g>
<g><path style="opacity:1" fill="#6c8ba3" d="M 153.5,93.5 C 164.376,94.8857 175.043,97.2191 185.5,100.5C 185.5,102.167 185.5,103.833 185.5,105.5C 175.942,102.062 166.275,99.3957 156.5,97.5C 157.239,97.631 157.906,97.4643 158.5,97C 157.045,95.3743 155.378,94.2076 153.5,93.5 Z"/></g>
<g><path style="opacity:1" fill="#5b7190" d="M 46.5,98.5 C 46.0618,98.4346 45.7284,98.6012 45.5,99C 46.1667,99.3333 46.8333,99.6667 47.5,100C 46.5842,100.278 45.9175,100.778 45.5,101.5C 42.1267,104.19 38.46,106.523 34.5,108.5C 30.1927,108.269 28.526,106.269 29.5,102.5C 30.675,102.719 31.675,102.386 32.5,101.5C 28.1989,101.619 26.1989,99.6189 26.5,95.5C 32.9852,94.0348 39.6519,95.0348 46.5,98.5 Z"/></g>
<g><path style="opacity:1" fill="#6f8fb4" d="M 105.5,95.5 C 105.062,95.4346 104.728,95.6012 104.5,96C 105.126,96.7504 105.626,97.5838 106,98.5C 106.671,97.7476 107.504,97.4142 108.5,97.5C 105.337,102.327 101.004,105.66 95.5,107.5C 93.1853,106.456 91.1853,105.123 89.5,103.5C 91.751,102.182 93.751,100.516 95.5,98.5C 98.5549,97.4764 101.555,96.1431 104.5,94.5C 105.107,94.6236 105.44,94.9569 105.5,95.5 Z"/></g>
<g><path style="opacity:1" fill="#6684a8" d="M 96.5,91.5 C 94.2699,93.5351 93.9365,95.8684 95.5,98.5C 93.751,100.516 91.751,102.182 89.5,103.5C 88.5084,103.328 87.8417,103.662 87.5,104.5C 86.8333,104.5 86.5,104.833 86.5,105.5C 85.8333,105.5 85.1667,105.5 84.5,105.5C 84.1667,103.167 82.8333,101.833 80.5,101.5C 82.3356,99.412 84.6689,98.0787 87.5,97.5C 91.945,98.1265 93.6117,96.4598 92.5,92.5C 93.6888,91.5713 95.0222,91.238 96.5,91.5 Z"/></g>
<g><path style="opacity:1" fill="#6e8eb2" d="M 26.5,95.5 C 26.1989,99.6189 28.1989,101.619 32.5,101.5C 31.675,102.386 30.675,102.719 29.5,102.5C 28.9032,101.861 28.0698,101.528 27,101.5C 22.5237,102.462 18.0237,103.295 13.5,104C 12.3279,104.419 11.3279,105.085 10.5,106C 13.146,106.497 15.8127,106.664 18.5,106.5C 21.3402,106.807 22.1735,108.14 21,110.5C 21.6543,109.304 22.1543,109.304 22.5,110.5C 20.556,111.801 18.556,112.801 16.5,113.5C 6.75526,114.595 3.5886,110.595 7,101.5C 12.96,97.8828 19.46,95.8828 26.5,95.5 Z"/></g>
<g><path style="opacity:1" fill="#6684a7" d="M 131.5,95.5 C 132.833,95.5 134.167,95.5 135.5,95.5C 136.298,99.964 138.964,102.297 143.5,102.5C 141.853,104.326 139.853,105.66 137.5,106.5C 135.224,106.244 134.057,104.91 134,102.5C 133.632,103.91 132.799,104.91 131.5,105.5C 130.798,103.533 130.798,101.866 131.5,100.5C 129.22,101.702 126.886,102.702 124.5,103.5C 124.631,102.624 124.298,101.957 123.5,101.5C 122.583,102.127 121.583,102.461 120.5,102.5C 124.03,99.9044 127.697,97.5711 131.5,95.5 Z"/></g>
<g><path style="opacity:1" fill="#6a8bae" d="M 56.5,94.5 C 57.5,94.5 58.5,94.5 59.5,94.5C 59.5792,95.9305 59.2458,97.2638 58.5,98.5C 59.6016,99.1757 60.6016,99.8423 61.5,100.5C 61.5432,104.893 61.0432,105.226 60,101.5C 59.964,103.941 59.1307,105.941 57.5,107.5C 55.2906,106.894 53.124,106.227 51,105.5C 50.7003,103.934 51.2003,102.601 52.5,101.5C 53.463,100.637 53.463,99.9698 52.5,99.5C 50.2706,100.577 47.9372,101.244 45.5,101.5C 45.9175,100.778 46.5842,100.278 47.5,100C 46.8333,99.6667 46.1667,99.3333 45.5,99C 45.7284,98.6012 46.0618,98.4346 46.5,98.5C 49.984,97.3433 53.3173,96.01 56.5,94.5 Z"/></g>
<g><path style="opacity:1" fill="#7293b6" d="M 61.5,100.5 C 62.7079,101.234 64.0413,101.567 65.5,101.5C 61.3787,111.957 54.0453,118.957 43.5,122.5C 44.8695,120.932 45.8695,119.099 46.5,117C 43.8333,117.333 41.1667,117.667 38.5,118C 41.6207,116.694 44.2874,114.86 46.5,112.5C 46.56,113.043 46.8933,113.376 47.5,113.5C 48.7733,112.743 48.7733,112.077 47.5,111.5C 47.5,110.5 47.5,109.5 47.5,108.5C 46.1667,108.5 44.8333,108.5 43.5,108.5C 45.6367,105.027 48.6367,102.694 52.5,101.5C 51.2003,102.601 50.7003,103.934 51,105.5C 53.124,106.227 55.2906,106.894 57.5,107.5C 59.1307,105.941 59.964,103.941 60,101.5C 61.0432,105.226 61.5432,104.893 61.5,100.5 Z"/></g>
<g><path style="opacity:1" fill="#708fb3" d="M 137.5,106.5 C 133.309,109.458 128.642,111.458 123.5,112.5C 126.562,108.971 125.895,106.471 121.5,105C 122.737,104.768 123.737,104.268 124.5,103.5C 126.886,102.702 129.22,101.702 131.5,100.5C 130.798,101.866 130.798,103.533 131.5,105.5C 132.799,104.91 133.632,103.91 134,102.5C 134.057,104.91 135.224,106.244 137.5,106.5 Z"/></g>
<g><path style="opacity:1" fill="#7798bc" d="M 89.5,103.5 C 91.1853,105.123 93.1853,106.456 95.5,107.5C 91.6482,110.595 87.3148,112.928 82.5,114.5C 82.8333,111.5 81.5,110.167 78.5,110.5C 78.5,110.167 78.5,109.833 78.5,109.5C 78.5,108.833 78.8333,108.5 79.5,108.5C 79.8333,109.833 80.1667,109.833 80.5,108.5C 81.1667,108.5 81.5,108.167 81.5,107.5C 81.5,106.833 81.8333,106.5 82.5,106.5C 82.8417,105.662 83.5084,105.328 84.5,105.5C 85.1667,106.833 85.8333,106.833 86.5,105.5C 87.1667,105.5 87.5,105.167 87.5,104.5C 87.8417,103.662 88.5084,103.328 89.5,103.5 Z"/></g>
<g><path style="opacity:1" fill="#506382" d="M 124.5,103.5 C 123.737,104.268 122.737,104.768 121.5,105C 125.895,106.471 126.562,108.971 123.5,112.5C 121.786,113.738 119.786,114.405 117.5,114.5C 116.127,114.657 114.793,114.49 113.5,114C 118.665,112.039 120.332,108.539 118.5,103.5C 118.842,102.662 119.508,102.328 120.5,102.5C 121.583,102.461 122.583,102.127 123.5,101.5C 124.298,101.957 124.631,102.624 124.5,103.5 Z"/></g>
<g><path style="opacity:1" fill="#556b89" d="M 80.5,101.5 C 82.8333,101.833 84.1667,103.167 84.5,105.5C 83.5084,105.328 82.8417,105.662 82.5,106.5C 81.8333,106.5 81.5,106.833 81.5,107.5C 80.8333,107.5 80.5,107.833 80.5,108.5C 80.1667,108.5 79.8333,108.5 79.5,108.5C 78.8333,108.5 78.5,108.833 78.5,109.5C 77.1667,109.833 77.1667,110.167 78.5,110.5C 81.5,110.167 82.8333,111.5 82.5,114.5C 82.1667,114.5 81.8333,114.5 81.5,114.5C 80.0772,113.551 78.5772,112.551 77,111.5C 74.9091,111.579 72.7424,111.913 70.5,112.5C 70.1667,112.333 69.8333,112.167 69.5,112C 72.3224,109.145 71.9891,108.311 68.5,109.5C 72.1526,106.338 76.1526,103.672 80.5,101.5 Z"/></g>
<g><path style="opacity:1" fill="#5e7595" d="M 180.5,107.5 C 181.919,106.549 183.585,106.216 185.5,106.5C 185.369,107.376 185.702,108.043 186.5,108.5C 188.53,109.172 190.53,109.838 192.5,110.5C 190.368,112.955 187.701,114.621 184.5,115.5C 184.391,112.101 183.058,109.434 180.5,107.5 Z"/></g>
<g><path style="opacity:1" fill="#7191b5" d="M 29.5,102.5 C 28.526,106.269 30.1927,108.269 34.5,108.5C 29.0399,111.701 23.0399,113.368 16.5,113.5C 18.556,112.801 20.556,111.801 22.5,110.5C 22.1543,109.304 21.6543,109.304 21,110.5C 22.1735,108.14 21.3402,106.807 18.5,106.5C 21.9385,104.796 25.6052,103.462 29.5,102.5 Z"/></g>
<g><path style="opacity:1" fill="#597090" d="M 118.5,103.5 C 120.332,108.539 118.665,112.039 113.5,114C 114.793,114.49 116.127,114.657 117.5,114.5C 110.443,117.802 107.776,115.635 109.5,108C 112.522,106.489 115.522,104.989 118.5,103.5 Z"/></g>
<g><path style="opacity:1" fill="#4e6484" d="M 81.5,114.5 C 80.653,115.966 79.3197,116.8 77.5,117C 71.5078,120.11 67.1745,118.776 64.5,113C 65.2023,111.144 66.5357,109.977 68.5,109.5C 71.9891,108.311 72.3224,109.145 69.5,112C 69.8333,112.167 70.1667,112.333 70.5,112.5C 72.7424,111.913 74.9091,111.579 77,111.5C 78.5772,112.551 80.0772,113.551 81.5,114.5 Z"/></g>
<g><path style="opacity:1" fill="#4b5e7f" d="M 165.5,110.5 C 166.568,109.566 167.901,109.232 169.5,109.5C 170.476,110.815 171.476,112.148 172.5,113.5C 175.103,112.438 177.77,112.272 180.5,113C 177.833,113.667 177.833,114.333 180.5,115C 177.647,116.43 174.647,117.263 171.5,117.5C 171.631,116.624 171.298,115.957 170.5,115.5C 167.839,118.517 164.839,119.017 161.5,117C 164.06,115.227 166.393,113.227 168.5,111C 167.552,110.517 166.552,110.351 165.5,110.5 Z"/></g>
<g><path style="opacity:1" fill="#7798b1" d="M 194.5,102.5 C 194.369,103.376 194.702,104.043 195.5,104.5C 204.929,108.29 213.263,113.623 220.5,120.5C 219.635,121.583 218.635,121.749 217.5,121C 210.013,116.114 202.013,112.281 193.5,109.5C 194.091,108.849 194.757,108.182 195.5,107.5C 193.621,105.93 193.288,104.264 194.5,102.5 Z"/></g>
<g><path style="opacity:1" fill="#405070" d="M 165.5,110.5 C 166.552,110.351 167.552,110.517 168.5,111C 166.393,113.227 164.06,115.227 161.5,117C 164.839,119.017 167.839,118.517 170.5,115.5C 171.298,115.957 171.631,116.624 171.5,117.5C 170.152,119.48 168.152,120.647 165.5,121C 166.448,121.483 167.448,121.649 168.5,121.5C 164.354,122.647 160.02,122.814 155.5,122C 148.833,119 148.833,116 155.5,113C 158.824,112.057 162.157,111.224 165.5,110.5 Z"/></g>
<g><path style="opacity:1" fill="#576e8e" d="M 43.5,108.5 C 44.8333,108.5 46.1667,108.5 47.5,108.5C 47.5,109.5 47.5,110.5 47.5,111.5C 47.5,112.167 47.1667,112.5 46.5,112.5C 44.2874,114.86 41.6207,116.694 38.5,118C 41.1667,117.667 43.8333,117.333 46.5,117C 45.8695,119.099 44.8695,120.932 43.5,122.5C 40.3087,125.78 36.6421,126.613 32.5,125C 31.9781,124.439 31.6448,123.772 31.5,123C 34.2189,117.114 38.2189,112.28 43.5,108.5 Z"/></g>
<g><path style="opacity:0.957" fill="#3e465f" d="M 180.5,107.5 C 183.058,109.434 184.391,112.101 184.5,115.5C 180.062,119.62 174.729,121.62 168.5,121.5C 167.448,121.649 166.448,121.483 165.5,121C 168.152,120.647 170.152,119.48 171.5,117.5C 174.647,117.263 177.647,116.43 180.5,115C 177.833,114.333 177.833,113.667 180.5,113C 177.77,112.272 175.103,112.438 172.5,113.5C 171.476,112.148 170.476,110.815 169.5,109.5C 172.909,108.097 176.575,107.43 180.5,107.5 Z"/></g>
</svg>
