<?xml version="1.0" encoding="UTF-8"?>
<!DOCTYPE svg PUBLIC "-//W3C//DTD SVG 1.1//EN" "http://www.w3.org/Graphics/SVG/1.1/DTD/svg11.dtd">
<svg xmlns="http://www.w3.org/2000/svg" version="1.1" width="162px" height="154px" style="shape-rendering:geometricPrecision; text-rendering:geometricPrecision; image-rendering:optimizeQuality; fill-rule:evenodd; clip-rule:evenodd" xmlns:xlink="http://www.w3.org/1999/xlink">
<g><path style="opacity:1" fill="#6f96b5" d="M 157.5,-0.5 C 158.167,-0.5 158.833,-0.5 159.5,-0.5C 159.211,5.67175 157.544,11.3384 154.5,16.5C 154.598,13.7524 153.598,13.0857 151.5,14.5C 153.779,9.60829 155.779,4.60829 157.5,-0.5 Z"/></g>
<g><path style="opacity:1" fill="#557a9c" d="M 154.5,16.5 C 153.23,20.6381 151.563,24.6381 149.5,28.5C 150.243,29.1818 150.909,29.8485 151.5,30.5C 150.5,30.5 149.5,30.5 148.5,30.5C 148.5,28.8333 148.5,27.1667 148.5,25.5C 146.833,25.5 145.167,25.5 143.5,25.5C 140.57,26.299 137.57,26.6323 134.5,26.5C 137.986,25.4667 141.653,24.6334 145.5,24C 147.65,20.8533 149.65,17.6867 151.5,14.5C 153.598,13.0857 154.598,13.7524 154.5,16.5 Z"/></g>
<g><path style="opacity:1" fill="#2d4f82" d="M 143.5,25.5 C 143.068,26.7095 142.401,27.7095 141.5,28.5C 140.167,29.5 140.167,30.5 141.5,31.5C 140.833,32.1667 140.167,32.8333 139.5,33.5C 138.71,34.4013 137.71,35.0679 136.5,35.5C 136.5,32.8333 136.5,30.1667 136.5,27.5C 133.5,27.5 130.5,27.5 127.5,27.5C 129.607,26.5318 131.941,26.1984 134.5,26.5C 137.57,26.6323 140.57,26.299 143.5,25.5 Z"/></g>
<g><path style="opacity:1" fill="#021244" d="M 143.5,25.5 C 145.167,25.5 146.833,25.5 148.5,25.5C 148.5,27.1667 148.5,28.8333 148.5,30.5C 149.5,30.5 150.5,30.5 151.5,30.5C 152.167,30.5 152.5,30.8333 152.5,31.5C 153.72,33.2837 153.72,34.9504 152.5,36.5C 151.91,35.234 151.41,33.9007 151,32.5C 149.887,33.7111 148.72,33.7111 147.5,32.5C 146.833,33.1667 146.167,33.8333 145.5,34.5C 144.948,32.9974 144.948,31.3307 145.5,29.5C 143.901,29.7678 142.568,29.4345 141.5,28.5C 142.401,27.7095 143.068,26.7095 143.5,25.5 Z"/></g>
<g><path style="opacity:1" fill="#021142" d="M 126.5,27.5 C 126.833,27.5 127.167,27.5 127.5,27.5C 130.5,27.5 133.5,27.5 136.5,27.5C 136.5,30.1667 136.5,32.8333 136.5,35.5C 135.609,36.1098 134.609,36.4431 133.5,36.5C 131.43,36.4173 131.097,35.4173 132.5,33.5C 132.101,31.8034 131.601,30.1368 131,28.5C 128.429,30.6859 125.596,31.3525 122.5,30.5C 124.184,29.8503 125.517,28.8503 126.5,27.5 Z"/></g>
<g><path style="opacity:1" fill="#1b3a6e" d="M 126.5,27.5 C 125.517,28.8503 124.184,29.8503 122.5,30.5C 125.596,31.3525 128.429,30.6859 131,28.5C 131.601,30.1368 132.101,31.8034 132.5,33.5C 131.097,35.4173 131.43,36.4173 133.5,36.5C 130.992,38.9236 127.992,40.5903 124.5,41.5C 124.389,40.8826 124.056,40.3826 123.5,40C 115.193,40.6991 114.193,38.0324 120.5,32C 119.552,31.5172 118.552,31.3505 117.5,31.5C 120.053,29.4163 123.053,28.083 126.5,27.5 Z"/></g>
<g><path style="opacity:1" fill="#13265c" d="M 141.5,28.5 C 142.568,29.4345 143.901,29.7678 145.5,29.5C 144.948,31.3307 144.948,32.9974 145.5,34.5C 146.167,33.8333 146.833,33.1667 147.5,32.5C 148.72,33.7111 149.887,33.7111 151,32.5C 151.41,33.9007 151.91,35.234 152.5,36.5C 152.5,40.5 152.5,44.5 152.5,48.5C 151.71,47.3915 151.21,46.0581 151,44.5C 150.08,44.0698 149.247,43.7365 148.5,43.5C 149.609,41.7859 148.942,41.1192 146.5,41.5C 146.421,42.9305 146.754,44.2638 147.5,45.5C 144.97,49.3581 144.97,53.1915 147.5,57C 146.899,58.605 145.899,59.9384 144.5,61C 145.22,63.1223 146.387,63.6223 148,62.5C 148.41,63.9007 148.91,65.234 149.5,66.5C 149.38,67.5862 148.713,68.2528 147.5,68.5C 145.557,68.2133 144.223,67.2133 143.5,65.5C 142.84,64.036 142.507,62.3693 142.5,60.5C 143.255,52.7907 144.255,45.124 145.5,37.5C 143.31,36.0707 141.976,34.0707 141.5,31.5C 140.167,30.5 140.167,29.5 141.5,28.5 Z"/></g>
<g><path style="opacity:1" fill="#557b9e" d="M 141.5,31.5 C 141.976,34.0707 143.31,36.0707 145.5,37.5C 138.584,46.0986 131.584,54.7653 124.5,63.5C 123.9,62.0998 122.9,61.0998 121.5,60.5C 125.098,55.7262 128.931,51.0596 133,46.5C 135.084,42.6641 137.417,38.9974 140,35.5C 140.692,34.5632 140.525,33.8966 139.5,33.5C 140.167,32.8333 140.833,32.1667 141.5,31.5 Z"/></g>
<g><path style="opacity:1" fill="#132b61" d="M 117.5,31.5 C 118.552,31.3505 119.552,31.5172 120.5,32C 114.193,38.0324 115.193,40.6991 123.5,40C 124.056,40.3826 124.389,40.8826 124.5,41.5C 121.322,43.0086 117.989,44.342 114.5,45.5C 111.612,46.0102 109.279,45.3435 107.5,43.5C 108.219,37.4376 111.553,33.4376 117.5,31.5 Z"/></g>
<g><path style="opacity:1" fill="#688cb6" d="M 152.5,31.5 C 154.017,31.5106 155.184,32.1772 156,33.5C 157.993,35.8175 159.159,38.4842 159.5,41.5C 159.5,42.8333 159.5,44.1667 159.5,45.5C 158.5,45.5 157.5,45.5 156.5,45.5C 155.21,44.9423 154.377,43.9423 154,42.5C 153.819,45.6946 153.319,48.6946 152.5,51.5C 152.5,50.5 152.5,49.5 152.5,48.5C 152.5,44.5 152.5,40.5 152.5,36.5C 153.72,34.9504 153.72,33.2837 152.5,31.5 Z"/></g>
<g><path style="opacity:0.976" fill="#44557c" d="M 107.5,43.5 C 109.279,45.3435 111.612,46.0102 114.5,45.5C 112.052,46.4731 109.385,46.8064 106.5,46.5C 106.263,45.209 106.596,44.209 107.5,43.5 Z"/></g>
<g><path style="opacity:1" fill="#7aa3cc" d="M 159.5,41.5 C 160.167,42.5 160.833,43.5 161.5,44.5C 161.5,49.1667 161.5,53.8333 161.5,58.5C 161.167,58.5 160.833,58.5 160.5,58.5C 160.66,56.8008 160.494,55.1341 160,53.5C 158.811,55.2331 157.644,56.8998 156.5,58.5C 156.833,54.332 156.833,49.9987 156.5,45.5C 157.5,45.5 158.5,45.5 159.5,45.5C 159.5,44.1667 159.5,42.8333 159.5,41.5 Z"/></g>
<g><path style="opacity:1" fill="#0f316e" d="M 152.5,48.5 C 152.5,49.5 152.5,50.5 152.5,51.5C 152.628,55.8814 152.295,60.2147 151.5,64.5C 150.662,64.8417 150.328,65.5084 150.5,66.5C 150.167,66.5 149.833,66.5 149.5,66.5C 148.91,65.234 148.41,63.9007 148,62.5C 146.387,63.6223 145.22,63.1223 144.5,61C 145.899,59.9384 146.899,58.605 147.5,57C 144.97,53.1915 144.97,49.3581 147.5,45.5C 146.754,44.2638 146.421,42.9305 146.5,41.5C 148.942,41.1192 149.609,41.7859 148.5,43.5C 149.247,43.7365 150.08,44.0698 151,44.5C 151.21,46.0581 151.71,47.3915 152.5,48.5 Z"/></g>
<g><path style="opacity:1" fill="#224577" d="M 121.5,60.5 C 122.9,61.0998 123.9,62.0998 124.5,63.5C 125.451,64.9187 125.784,66.5853 125.5,68.5C 124.06,69.3629 122.726,69.3629 121.5,68.5C 120.148,69.5244 118.815,70.5244 117.5,71.5C 116.36,70.1986 115.027,69.0319 113.5,68C 116.876,67.6929 118.21,65.8595 117.5,62.5C 118.833,61.8333 120.167,61.1667 121.5,60.5 Z"/></g>
<g><path style="opacity:1" fill="#577eae" d="M 105.5,62.5 C 103.958,63.1408 102.624,64.1408 101.5,65.5C 103.124,66.8689 103.624,68.5355 103,70.5C 100.706,71.4217 98.5394,72.4217 96.5,73.5C 92.7539,74.2142 91.7539,73.0475 93.5,70C 93.2849,68.0922 92.2849,66.9256 90.5,66.5C 95.1142,64.1697 100.114,62.8364 105.5,62.5 Z"/></g>
<g><path style="opacity:1" fill="#476d9e" d="M 117.5,62.5 C 108.763,60.8976 105.763,64.231 108.5,72.5C 104.702,73.4834 100.702,73.8168 96.5,73.5C 98.5394,72.4217 100.706,71.4217 103,70.5C 103.624,68.5355 103.124,66.8689 101.5,65.5C 102.624,64.1408 103.958,63.1408 105.5,62.5C 109.5,61.1667 113.5,61.1667 117.5,62.5 Z"/></g>
<g><path style="opacity:1" fill="#092a5c" d="M 117.5,62.5 C 118.21,65.8595 116.876,67.6929 113.5,68C 115.027,69.0319 116.36,70.1986 117.5,71.5C 116.513,73.5511 115.18,75.2178 113.5,76.5C 113.616,73.0897 111.95,71.7564 108.5,72.5C 105.763,64.231 108.763,60.8976 117.5,62.5 Z"/></g>
<g><path style="opacity:1" fill="#6387b2" d="M 160.5,58.5 C 160.194,66.1543 156.694,71.4876 150,74.5C 148.334,73.6521 146.834,72.6521 145.5,71.5C 149.876,73.1308 151.543,71.4641 150.5,66.5C 150.328,65.5084 150.662,64.8417 151.5,64.5C 151.343,65.8734 151.51,67.2068 152,68.5C 153.509,65.0535 155.009,61.7202 156.5,58.5C 157.644,56.8998 158.811,55.2331 160,53.5C 160.494,55.1341 160.66,56.8008 160.5,58.5 Z"/></g>
<g><path style="opacity:1" fill="#59759b" d="M 86.5,67.5 C 84.9103,69.821 82.5769,70.821 79.5,70.5C 81.4261,68.7073 83.7594,67.7073 86.5,67.5 Z"/></g>
<g><path style="opacity:1" fill="#284d80" d="M 90.5,66.5 C 92.2849,66.9256 93.2849,68.0922 93.5,70C 91.7539,73.0475 92.7539,74.2142 96.5,73.5C 97.1667,74.1667 97.8333,74.8333 98.5,75.5C 91.7492,77.3216 84.7492,78.3216 77.5,78.5C 77.4809,76.9397 77.1476,75.4397 76.5,74C 76.7074,72.0503 77.7074,70.8836 79.5,70.5C 82.5769,70.821 84.9103,69.821 86.5,67.5C 87.7079,66.7659 89.0413,66.4326 90.5,66.5 Z"/></g>
<g><path style="opacity:1" fill="#1d4379" d="M 125.5,68.5 C 126.767,71.0613 126.767,73.728 125.5,76.5C 122.763,77.031 120.096,77.8644 117.5,79C 118.738,79.69 118.738,80.19 117.5,80.5C 115.386,81.784 114.386,83.784 114.5,86.5C 111.203,86.6713 110.869,86.0046 113.5,84.5C 112.873,83.5832 112.539,82.5832 112.5,81.5C 112.5,80.1667 112.5,78.8333 112.5,77.5C 113.167,77.5 113.5,77.1667 113.5,76.5C 115.18,75.2178 116.513,73.5511 117.5,71.5C 118.815,70.5244 120.148,69.5244 121.5,68.5C 122.726,69.3629 124.06,69.3629 125.5,68.5 Z"/></g>
<g><path style="opacity:1" fill="#0f1939" d="M 143.5,65.5 C 144.223,67.2133 145.557,68.2133 147.5,68.5C 148.713,68.2528 149.38,67.5862 149.5,66.5C 149.833,66.5 150.167,66.5 150.5,66.5C 151.543,71.4641 149.876,73.1308 145.5,71.5C 143.72,70.0101 143.054,68.0101 143.5,65.5 Z"/></g>
<g><path style="opacity:1" fill="#557b9f" d="M 108.5,72.5 C 111.95,71.7564 113.616,73.0897 113.5,76.5C 113.5,77.1667 113.167,77.5 112.5,77.5C 112.631,76.7611 112.464,76.0944 112,75.5C 106.622,81.3802 100.789,86.7135 94.5,91.5C 94.7148,89.8212 94.0481,88.8212 92.5,88.5C 96.6299,83.8688 100.963,79.3688 105.5,75C 103.249,75.2068 100.915,75.3735 98.5,75.5C 97.8333,74.8333 97.1667,74.1667 96.5,73.5C 100.702,73.8168 104.702,73.4834 108.5,72.5 Z"/></g>
<g><path style="opacity:1" fill="#294d7f" d="M 117.5,80.5 C 116.933,82.698 116.933,85.0314 117.5,87.5C 116.833,89.8333 116.167,92.1667 115.5,94.5C 115.167,94.5 114.833,94.5 114.5,94.5C 113.21,95.0577 112.377,96.0577 112,97.5C 111.992,94.6546 110.825,92.6546 108.5,91.5C 109.314,87.884 110.648,84.5507 112.5,81.5C 112.539,82.5832 112.873,83.5832 113.5,84.5C 110.869,86.0046 111.203,86.6713 114.5,86.5C 114.386,83.784 115.386,81.784 117.5,80.5 Z"/></g>
<g><path style="opacity:0.999" fill="#264b7d" d="M 125.5,76.5 C 125.391,81.7101 124.391,86.7101 122.5,91.5C 121.265,91.7214 120.265,92.3881 119.5,93.5C 118.893,93.3764 118.56,93.0431 118.5,92.5C 118.357,90.7376 118.691,89.0709 119.5,87.5C 119.03,86.537 118.363,86.537 117.5,87.5C 116.933,85.0314 116.933,82.698 117.5,80.5C 118.738,80.19 118.738,79.69 117.5,79C 120.096,77.8644 122.763,77.031 125.5,76.5 Z"/></g>
<g><path style="opacity:1" fill="#577ead" d="M 89.5,88.5 C 85.5911,87.7366 84.2578,89.0699 85.5,92.5C 80.8687,93.826 76.2021,94.826 71.5,95.5C 70.0813,94.5489 68.4147,94.2155 66.5,94.5C 68.5449,93.0772 69.5449,91.0772 69.5,88.5C 76.1741,85.9265 82.8408,85.9265 89.5,88.5 Z"/></g>
<g><path style="opacity:1" fill="#5982b1" d="M 69.5,88.5 C 69.5449,91.0772 68.5449,93.0772 66.5,94.5C 64.901,94.2322 63.5676,94.5655 62.5,95.5C 61.8333,95.5 61.5,95.8333 61.5,96.5C 59.8333,96.5 58.1667,96.5 56.5,96.5C 57.2341,95.2921 57.5674,93.9587 57.5,92.5C 55.1667,92.5 52.8333,92.5 50.5,92.5C 56.5528,90.4079 62.8861,89.0746 69.5,88.5 Z"/></g>
<g><path style="opacity:0.302" fill="#768baa" d="M 118.5,92.5 C 117.833,93.1667 117.167,93.8333 116.5,94.5C 116.167,94.5 115.833,94.5 115.5,94.5C 116.167,92.1667 116.833,89.8333 117.5,87.5C 118.363,86.537 119.03,86.537 119.5,87.5C 118.691,89.0709 118.357,90.7376 118.5,92.5 Z"/></g>
<g><path style="opacity:1" fill="#325989" d="M 89.5,88.5 C 90.5,88.5 91.5,88.5 92.5,88.5C 94.0481,88.8212 94.7148,89.8212 94.5,91.5C 94.7214,94.2788 94.388,96.9455 93.5,99.5C 90.7367,101.816 89.4033,100.816 89.5,96.5C 88.5,96.5 87.5,96.5 86.5,96.5C 86.2422,100.372 86.9089,104.039 88.5,107.5C 83.2502,110.612 81.2502,108.946 82.5,102.5C 83.404,101.791 83.7373,100.791 83.5,99.5C 80.5,99.5 77.5,99.5 74.5,99.5C 74.5,98.5 74.5,97.5 74.5,96.5C 73.209,96.7373 72.209,96.404 71.5,95.5C 76.2021,94.826 80.8687,93.826 85.5,92.5C 84.2578,89.0699 85.5911,87.7366 89.5,88.5 Z"/></g>
<g><path style="opacity:1" fill="#20487b" d="M 50.5,92.5 C 52.8333,92.5 55.1667,92.5 57.5,92.5C 57.5674,93.9587 57.2341,95.2921 56.5,96.5C 55.8333,96.5 55.1667,96.5 54.5,96.5C 53.5266,96.9867 52.5266,97.4867 51.5,98C 54.0385,98.7958 56.3718,98.6291 58.5,97.5C 59.5,97.5 60.5,97.5 61.5,97.5C 63.8466,98.6069 64.18,100.274 62.5,102.5C 57.5624,103.392 52.5624,103.726 47.5,103.5C 46.1667,103.5 44.8333,103.5 43.5,103.5C 43.1072,100.487 43.7739,97.8201 45.5,95.5C 46.8993,94.1103 48.5659,93.1103 50.5,92.5 Z"/></g>
<g><path style="opacity:0.271" fill="#93accb" d="M 62.5,95.5 C 63.5676,94.5655 64.901,94.2322 66.5,94.5C 68.4147,94.2155 70.0813,94.5489 71.5,95.5C 69.139,95.6741 66.8056,96.0074 64.5,96.5C 64.1583,95.6618 63.4916,95.3284 62.5,95.5 Z"/></g>
<g><path style="opacity:1" fill="#5075a6" d="M 71.5,95.5 C 72.209,96.404 73.209,96.7373 74.5,96.5C 74.5,97.5 74.5,98.5 74.5,99.5C 74.5,99.8333 74.5,100.167 74.5,100.5C 73.8333,100.5 73.5,100.833 73.5,101.5C 69.8455,101.942 66.1788,102.276 62.5,102.5C 64.18,100.274 63.8466,98.6069 61.5,97.5C 61.5,97.1667 61.5,96.8333 61.5,96.5C 62.5,96.5 63.5,96.5 64.5,96.5C 66.8056,96.0074 69.139,95.6741 71.5,95.5 Z"/></g>
<g><path style="opacity:0.973" fill="#4f6a8e" d="M 45.5,95.5 C 43.7739,97.8201 43.1072,100.487 43.5,103.5C 44.8333,103.5 46.1667,103.5 47.5,103.5C 45.1618,104.947 43.1618,104.447 41.5,102C 42.8333,100.667 42.8333,99.3333 41.5,98C 42.4709,96.5187 43.8042,95.6854 45.5,95.5 Z"/></g>
<g><path style="opacity:0.557" fill="#6e88a3" d="M 54.5,96.5 C 55.5676,97.4345 56.901,97.7678 58.5,97.5C 56.3718,98.6291 54.0385,98.7958 51.5,98C 52.5266,97.4867 53.5266,96.9867 54.5,96.5 Z"/></g>
<g><path style="opacity:1" fill="#466c9a" d="M 93.5,99.5 C 93.3532,104.922 92.0198,109.922 89.5,114.5C 88.5318,112.393 88.1984,110.059 88.5,107.5C 86.9089,104.039 86.2422,100.372 86.5,96.5C 87.5,96.5 88.5,96.5 89.5,96.5C 89.4033,100.816 90.7367,101.816 93.5,99.5 Z"/></g>
<g><path style="opacity:1" fill="#395988" d="M 108.5,91.5 C 108.151,95.0644 108.817,98.3978 110.5,101.5C 113.318,100.071 114.651,97.7376 114.5,94.5C 114.833,94.5 115.167,94.5 115.5,94.5C 115.833,95.8333 116.167,95.8333 116.5,94.5C 117.167,93.8333 117.833,93.1667 118.5,92.5C 118.56,93.0431 118.893,93.3764 119.5,93.5C 120.265,92.3881 121.265,91.7214 122.5,91.5C 121.771,96.2931 119.937,100.626 117,104.5C 112.546,107.67 109.213,106.67 107,101.5C 106.163,97.8524 106.663,94.519 108.5,91.5 Z"/></g>
<g><path style="opacity:1" fill="#0e3469" d="M 108.5,91.5 C 110.825,92.6546 111.992,94.6546 112,97.5C 112.377,96.0577 113.21,95.0577 114.5,94.5C 114.651,97.7376 113.318,100.071 110.5,101.5C 108.817,98.3978 108.151,95.0644 108.5,91.5 Z"/></g>
<g><path style="opacity:1" fill="#6087a9" d="M 74.5,99.5 C 77.5,99.5 80.5,99.5 83.5,99.5C 83.7373,100.791 83.404,101.791 82.5,102.5C 82.1034,101.475 81.4368,101.308 80.5,102C 72.7677,107.19 65.101,112.356 57.5,117.5C 57.3502,115.941 57.0169,114.274 56.5,112.5C 62.6857,109.578 68.3524,105.911 73.5,101.5C 74.1667,101.5 74.5,101.167 74.5,100.5C 74.5,100.167 74.5,99.8333 74.5,99.5 Z"/></g>
<g><path style="opacity:1" fill="#5f85b1" d="M 49.5,111.5 C 47.4176,111.472 45.5843,112.139 44,113.5C 41.5163,110.741 40.3497,111.074 40.5,114.5C 38.5,114.5 36.5,114.5 34.5,114.5C 33.8333,113.167 33.1667,113.167 32.5,114.5C 31.8333,114.5 31.5,114.833 31.5,115.5C 27.5633,115.207 23.73,115.54 20,116.5C 19.8333,116.167 19.6667,115.833 19.5,115.5C 21.5,114.5 23.5,113.5 25.5,112.5C 24.2723,110.679 22.6056,109.679 20.5,109.5C 30.3913,105.372 40.058,106.039 49.5,111.5 Z"/></g>
<g><path style="opacity:1" fill="#5379a7" d="M 82.5,102.5 C 81.2502,108.946 83.2502,110.612 88.5,107.5C 88.1984,110.059 88.5318,112.393 89.5,114.5C 89.7373,115.791 89.404,116.791 88.5,117.5C 87.596,116.791 87.2627,115.791 87.5,114.5C 87.6495,113.448 87.4828,112.448 87,111.5C 85.2589,114.309 84.0922,117.309 83.5,120.5C 82.6618,120.842 82.3284,121.508 82.5,122.5C 81.8333,122.5 81.5,122.833 81.5,123.5C 80.8333,123.5 80.5,123.833 80.5,124.5C 78.2893,126.495 77.9559,128.828 79.5,131.5C 78.7455,133.466 77.5788,133.8 76,132.5C 74.7154,121.65 76.882,111.65 82.5,102.5 Z"/></g>
<g><path style="opacity:1" fill="#5079aa" d="M 49.5,111.5 C 50.4916,111.328 51.1583,111.662 51.5,112.5C 50.5041,112.414 49.6708,112.748 49,113.5C 48.0913,115.658 47.9246,117.658 48.5,119.5C 43.9677,119.182 39.6344,119.515 35.5,120.5C 30.9677,120.818 26.6344,120.485 22.5,119.5C 25.5,119.5 28.5,119.5 31.5,119.5C 31.5,118.167 31.5,116.833 31.5,115.5C 31.5,114.833 31.8333,114.5 32.5,114.5C 33.1667,114.5 33.8333,114.5 34.5,114.5C 36.5,114.5 38.5,114.5 40.5,114.5C 40.3497,111.074 41.5163,110.741 44,113.5C 45.5843,112.139 47.4176,111.472 49.5,111.5 Z"/></g>
<g><path style="opacity:1" fill="#2b5283" d="M 20.5,109.5 C 22.6056,109.679 24.2723,110.679 25.5,112.5C 23.5,113.5 21.5,114.5 19.5,115.5C 19.6667,115.833 19.8333,116.167 20,116.5C 23.73,115.54 27.5633,115.207 31.5,115.5C 31.5,116.833 31.5,118.167 31.5,119.5C 28.5,119.5 25.5,119.5 22.5,119.5C 19.4318,119.453 16.4318,118.953 13.5,118C 9.9626,116.174 9.62926,113.84 12.5,111C 15.0627,109.921 17.7294,109.421 20.5,109.5 Z"/></g>
<g><path style="opacity:1" fill="#325a8c" d="M 56.5,112.5 C 57.0169,114.274 57.3502,115.941 57.5,117.5C 57.5,117.833 57.5,118.167 57.5,118.5C 57.7525,121.32 57.2525,123.986 56,126.5C 55.7104,124.956 55.0437,123.623 54,122.5C 52.1759,123.749 52.3426,124.915 54.5,126C 52.8016,125.503 51.1349,125.67 49.5,126.5C 48.5713,125.311 48.238,123.978 48.5,122.5C 52.0595,120.717 52.0595,119.717 48.5,119.5C 47.9246,117.658 48.0913,115.658 49,113.5C 49.6708,112.748 50.5041,112.414 51.5,112.5C 53.398,111.904 55.0646,111.904 56.5,112.5 Z"/></g>
<g><path style="opacity:1" fill="#678caf" d="M 35.5,120.5 C 39.6344,119.515 43.9677,119.182 48.5,119.5C 52.0595,119.717 52.0595,120.717 48.5,122.5C 48.1667,121.167 47.8333,121.167 47.5,122.5C 44.2464,124.029 40.913,125.362 37.5,126.5C 37.5,125.167 36.8333,124.5 35.5,124.5C 37.5976,123.065 39.9309,121.898 42.5,121C 40.1902,120.503 37.8568,120.337 35.5,120.5 Z"/></g>
<g><path style="opacity:1" fill="#7fa5c9" d="M 87.5,114.5 C 87.2627,115.791 87.596,116.791 88.5,117.5C 86.4942,122.855 83.4942,127.521 79.5,131.5C 77.9559,128.828 78.2893,126.495 80.5,124.5C 81.206,125.557 81.5393,125.224 81.5,123.5C 82.1667,123.5 82.5,123.167 82.5,122.5C 83.3382,122.158 83.6716,121.492 83.5,120.5C 84.8333,118.5 86.1667,116.5 87.5,114.5 Z"/></g>
<g><path style="opacity:1" fill="#416595" d="M 57.5,118.5 C 58.5621,126.015 56.8954,133.015 52.5,139.5C 51.0818,136.98 50.0818,134.313 49.5,131.5C 48.3077,129.887 47.3077,128.22 46.5,126.5C 46.8333,125.167 47.1667,123.833 47.5,122.5C 47.8333,122.5 48.1667,122.5 48.5,122.5C 48.238,123.978 48.5713,125.311 49.5,126.5C 51.1349,125.67 52.8016,125.503 54.5,126C 52.3426,124.915 52.1759,123.749 54,122.5C 55.0437,123.623 55.7104,124.956 56,126.5C 57.2525,123.986 57.7525,121.32 57.5,118.5 Z"/></g>
<g><path style="opacity:1" fill="#6286b3" d="M 19.5,126.5 C 18.6586,128.379 18.3253,130.379 18.5,132.5C 20.1667,132.5 21.8333,132.5 23.5,132.5C 23.8333,133.833 24.1667,133.833 24.5,132.5C 25.3888,134.025 24.7221,135.025 22.5,135.5C 22.0831,134.876 21.4164,134.543 20.5,134.5C 18.2383,135.467 15.905,136.134 13.5,136.5C 13.8039,135.85 14.1373,135.183 14.5,134.5C 12.4883,132.659 10.155,131.659 7.5,131.5C 11.0986,129.072 15.0986,127.406 19.5,126.5 Z"/></g>
<g><path style="opacity:1" fill="#355989" d="M 35.5,124.5 C 36.8333,124.5 37.5,125.167 37.5,126.5C 34.8982,132.374 30.8982,137.04 25.5,140.5C 22.5,140.833 21.1667,139.5 21.5,136.5C 21.5,135.833 21.8333,135.5 22.5,135.5C 24.7221,135.025 25.3888,134.025 24.5,132.5C 24.1667,132.5 23.8333,132.5 23.5,132.5C 21.8333,132.5 20.1667,132.5 18.5,132.5C 18.3253,130.379 18.6586,128.379 19.5,126.5C 24.7821,125.725 30.1155,125.058 35.5,124.5 Z"/></g>
<g><path style="opacity:1" fill="#5c82b0" d="M 7.5,131.5 C 10.155,131.659 12.4883,132.659 14.5,134.5C 14.1373,135.183 13.8039,135.85 13.5,136.5C 10.593,138.059 7.92636,140.059 5.5,142.5C 5.95689,143.298 6.62356,143.631 7.5,143.5C 6.79105,144.404 5.79105,144.737 4.5,144.5C 4.71351,142.856 4.38017,141.356 3.5,140C 5.61201,139.094 6.44534,137.594 6,135.5C 4.75814,136.872 3.25814,137.872 1.5,138.5C 0.525774,140.743 0.192441,143.076 0.5,145.5C 0.166667,145.5 -0.166667,145.5 -0.5,145.5C -0.5,142.833 -0.5,140.167 -0.5,137.5C 1.88382,135.115 4.55049,133.115 7.5,131.5 Z"/></g>
<g><path style="opacity:1" fill="#3c608f" d="M 46.5,126.5 C 47.3077,128.22 48.3077,129.887 49.5,131.5C 48.8902,132.391 48.5569,133.391 48.5,134.5C 48.6716,135.492 48.3382,136.158 47.5,136.5C 46.596,137.209 46.2627,138.209 46.5,139.5C 46.5,139.833 46.5,140.167 46.5,140.5C 45.8333,140.833 45.1667,141.167 44.5,141.5C 42.7475,144.146 41.7475,147.146 41.5,150.5C 40.1667,150.5 38.8333,150.5 37.5,150.5C 36.9569,150.44 36.6236,150.107 36.5,149.5C 38.5297,141.123 41.863,133.456 46.5,126.5 Z"/></g>
<g><path style="opacity:1" fill="#577ead" d="M 7.5,143.5 C 11.7495,140.412 16.4162,138.078 21.5,136.5C 21.1667,139.5 22.5,140.833 25.5,140.5C 19.0656,145.546 11.7323,148.046 3.5,148C 2.05773,147.623 1.05773,146.79 0.5,145.5C 0.192441,143.076 0.525774,140.743 1.5,138.5C 3.25814,137.872 4.75814,136.872 6,135.5C 6.44534,137.594 5.61201,139.094 3.5,140C 4.38017,141.356 4.71351,142.856 4.5,144.5C 5.79105,144.737 6.79105,144.404 7.5,143.5 Z"/></g>
<g><path style="opacity:1" fill="#5476a2" d="M 49.5,131.5 C 50.0818,134.313 51.0818,136.98 52.5,139.5C 51.0767,145.242 48.0767,149.909 43.5,153.5C 41.8333,153.5 40.1667,153.5 38.5,153.5C 37.8902,152.609 37.5569,151.609 37.5,150.5C 38.8333,150.5 40.1667,150.5 41.5,150.5C 41.7475,147.146 42.7475,144.146 44.5,141.5C 44.3505,142.552 44.5172,143.552 45,144.5C 45.7914,143.255 46.2914,141.922 46.5,140.5C 47.8333,140.167 47.8333,139.833 46.5,139.5C 46.2627,138.209 46.596,137.209 47.5,136.5C 47.3932,138.379 47.8932,138.712 49,137.5C 49.7401,136.251 49.5735,135.251 48.5,134.5C 48.5569,133.391 48.8902,132.391 49.5,131.5 Z"/></g>
</svg>
