<?xml version="1.0" encoding="UTF-8"?>
<!DOCTYPE svg PUBLIC "-//W3C//DTD SVG 1.1//EN" "http://www.w3.org/Graphics/SVG/1.1/DTD/svg11.dtd">
<svg xmlns="http://www.w3.org/2000/svg" version="1.1" width="156px" height="210px" style="shape-rendering:geometricPrecision; text-rendering:geometricPrecision; image-rendering:optimizeQuality; fill-rule:evenodd; clip-rule:evenodd" xmlns:xlink="http://www.w3.org/1999/xlink">
<g><path style="opacity:0.733" fill="#b8cdda" d="M 95.5,0.5 C 96.7095,0.932053 97.7095,1.59872 98.5,2.5C 96.5,3.83333 94.5,3.83333 92.5,2.5C 92.9731,1.09368 93.9731,0.427017 95.5,0.5 Z"/></g>
<g><path style="opacity:0.752" fill="#89a0a7" d="M 95.5,0.5 C 95.5,0.166667 95.5,-0.166667 95.5,-0.5C 98.5,-0.5 101.5,-0.5 104.5,-0.5C 105.6,0.60486 106.267,1.93819 106.5,3.5C 106.69,5.95888 105.69,7.62554 103.5,8.5C 102.5,8.5 101.5,8.5 100.5,8.5C 100.357,6.73759 100.691,5.07092 101.5,3.5C 100.675,2.61432 99.675,2.28099 98.5,2.5C 97.7095,1.59872 96.7095,0.932053 95.5,0.5 Z"/></g>
<g><path style="opacity:0.751" fill="#83999f" d="M 92.5,2.5 C 94.5,3.83333 96.5,3.83333 98.5,2.5C 96.1631,5.93046 96.4965,9.26379 99.5,12.5C 101.097,14.7564 100.431,16.0897 97.5,16.5C 97.631,15.7611 97.4643,15.0944 97,14.5C 96.2411,16.0629 95.0744,17.0629 93.5,17.5C 93.7512,15.8297 94.4178,14.3297 95.5,13C 94.572,12.6121 93.9054,11.9454 93.5,11C 95.7688,9.24161 95.9354,7.40827 94,5.5C 92.9702,7.3464 91.8036,9.01307 90.5,10.5C 88.8161,7.28202 89.4828,4.61535 92.5,2.5 Z"/></g>
<g><path style="opacity:0.749" fill="#7d929a" d="M 106.5,3.5 C 107.249,6.20102 108.249,8.86769 109.5,11.5C 109.646,13.9424 108.813,14.6091 107,13.5C 106.185,15.5507 105.352,16.884 104.5,17.5C 104.208,16.1264 103.875,14.7931 103.5,13.5C 102.167,11.8333 102.167,10.1667 103.5,8.5C 105.69,7.62554 106.69,5.95888 106.5,3.5 Z"/></g>
<g><path style="opacity:0.753" fill="#87969b" d="M 59.5,3.5 C 66.0836,3.26585 69.5836,6.26585 70,12.5C 66.5402,16.4463 63.0402,16.4463 59.5,12.5C 58.175,9.46924 58.175,6.46924 59.5,3.5 Z"/></g>
<g><path style="opacity:0.753" fill="#778f99" d="M 62.5,5.5 C 65.2496,5.61803 67.2496,6.95137 68.5,9.5C 65.8082,10.8546 62.8082,10.6879 59.5,9C 60.448,8.51722 61.448,8.35055 62.5,8.5C 62.5,7.5 62.5,6.5 62.5,5.5 Z"/></g>
<g><path style="opacity:0.74" fill="#7e95a0" d="M 98.5,2.5 C 99.675,2.28099 100.675,2.61432 101.5,3.5C 100.691,5.07092 100.357,6.73759 100.5,8.5C 101.5,8.5 102.5,8.5 103.5,8.5C 102.167,10.1667 102.167,11.8333 103.5,13.5C 102.833,13.1667 102.167,12.8333 101.5,12.5C 100.833,12.5 100.167,12.5 99.5,12.5C 96.4965,9.26379 96.1631,5.93046 98.5,2.5 Z"/></g>
<g><path style="opacity:0.751" fill="#899da3" d="M 150.5,8.5 C 148.417,9.58768 146.251,10.5877 144,11.5C 143.36,13.265 143.527,14.9317 144.5,16.5C 144.5,16.8333 144.5,17.1667 144.5,17.5C 143.609,18.1098 142.609,18.4431 141.5,18.5C 140.527,17.2086 139.527,17.2086 138.5,18.5C 137.818,17.7573 137.151,17.0906 136.5,16.5C 139.297,10.1108 143.964,7.4441 150.5,8.5 Z"/></g>
<g><path style="opacity:0.746" fill="#8fa5ad" d="M 150.5,8.5 C 151.88,8.96227 152.547,9.96227 152.5,11.5C 151.954,13.1347 151.62,14.8014 151.5,16.5C 151.663,18.8568 151.497,21.1902 151,23.5C 150.51,22.2068 150.343,20.8734 150.5,19.5C 150.725,17.2841 149.892,15.6174 148,14.5C 147.667,15.1667 147.333,15.8333 147,16.5C 146.23,15.4019 145.397,15.4019 144.5,16.5C 143.527,14.9317 143.36,13.265 144,11.5C 146.251,10.5877 148.417,9.58768 150.5,8.5 Z"/></g>
<g><path style="opacity:0.753" fill="#92a6ad" d="M 93.5,17.5 C 93.1667,17.5 92.8333,17.5 92.5,17.5C 91.3882,15.4006 90.7215,13.0673 90.5,10.5C 91.8036,9.01307 92.9702,7.3464 94,5.5C 95.9354,7.40827 95.7688,9.24161 93.5,11C 93.9054,11.9454 94.572,12.6121 95.5,13C 94.4178,14.3297 93.7512,15.8297 93.5,17.5 Z"/></g>
<g><path style="opacity:0.753" fill="#7c949e" d="M 99.5,12.5 C 100.167,12.5 100.833,12.5 101.5,12.5C 102.219,14.7638 102.552,17.0971 102.5,19.5C 100.227,18.2647 98.3938,18.5981 97,20.5C 96.805,19.1807 96.9717,17.8474 97.5,16.5C 100.431,16.0897 101.097,14.7564 99.5,12.5 Z"/></g>
<g><path style="opacity:0.745" fill="#85959b" d="M 109.5,11.5 C 110.124,11.9169 110.457,12.5836 110.5,13.5C 109.384,16.9017 107.384,19.5684 104.5,21.5C 103.646,19.965 103.646,18.6316 104.5,17.5C 105.352,16.884 106.185,15.5507 107,13.5C 108.813,14.6091 109.646,13.9424 109.5,11.5 Z"/></g>
<g><path style="opacity:0.753" fill="#90a9b3" d="M 150.5,19.5 C 149.683,21.9686 149.183,24.6353 149,27.5C 148.56,29.0762 147.727,30.4096 146.5,31.5C 147.609,33.2141 146.942,33.8808 144.5,33.5C 145.125,30.3732 146.125,27.3732 147.5,24.5C 148.021,21.3637 147.021,19.0304 144.5,17.5C 144.5,17.1667 144.5,16.8333 144.5,16.5C 145.397,15.4019 146.23,15.4019 147,16.5C 147.333,15.8333 147.667,15.1667 148,14.5C 149.892,15.6174 150.725,17.2841 150.5,19.5 Z"/></g>
<g><path style="opacity:0.752" fill="#899da2" d="M 101.5,12.5 C 102.167,12.8333 102.833,13.1667 103.5,13.5C 103.875,14.7931 104.208,16.1264 104.5,17.5C 103.646,18.6316 103.646,19.965 104.5,21.5C 102.034,22.6341 99.367,22.8007 96.5,22C 94.249,21.2525 92.9156,19.7525 92.5,17.5C 92.8333,17.5 93.1667,17.5 93.5,17.5C 95.0744,17.0629 96.2411,16.0629 97,14.5C 97.4643,15.0944 97.631,15.7611 97.5,16.5C 96.9717,17.8474 96.805,19.1807 97,20.5C 98.3938,18.5981 100.227,18.2647 102.5,19.5C 102.552,17.0971 102.219,14.7638 101.5,12.5 Z"/></g>
<g><path style="opacity:0.749" fill="#869fa8" d="M 144.5,17.5 C 147.021,19.0304 148.021,21.3637 147.5,24.5C 146.5,24.5 145.5,24.5 144.5,24.5C 144.5,23.5 144.5,22.5 144.5,21.5C 143.5,21.5 142.5,21.5 141.5,21.5C 141.5,20.5 141.5,19.5 141.5,18.5C 142.609,18.4431 143.609,18.1098 144.5,17.5 Z"/></g>
<g><path style="opacity:0.749" fill="#94a4a8" d="M 151.5,16.5 C 152.848,21.4064 152.682,26.4064 151,31.5C 148.93,34.4076 146.43,35.0743 143.5,33.5C 143.833,33.5 144.167,33.5 144.5,33.5C 146.942,33.8808 147.609,33.2141 146.5,31.5C 147.727,30.4096 148.56,29.0762 149,27.5C 149.183,24.6353 149.683,21.9686 150.5,19.5C 150.343,20.8734 150.51,22.2068 151,23.5C 151.497,21.1902 151.663,18.8568 151.5,16.5 Z"/></g>
<g><path style="opacity:0.714" fill="#869397" d="M 29.5,28.5 C 29.1156,25.9504 27.6156,24.6171 25,24.5C 21.4516,24.8405 20.285,26.5072 21.5,29.5C 20.7978,30.1157 19.7978,30.1157 18.5,29.5C 19.5122,24.4327 22.6789,22.0994 28,22.5C 31.8745,23.8702 32.3745,25.8702 29.5,28.5 Z"/></g>
<g><path style="opacity:0.732" fill="#849ba4" d="M 136.5,16.5 C 137.151,17.0906 137.818,17.7573 138.5,18.5C 139.527,17.2086 140.527,17.2086 141.5,18.5C 141.5,19.5 141.5,20.5 141.5,21.5C 142.5,21.5 143.5,21.5 144.5,21.5C 144.5,22.5 144.5,23.5 144.5,24.5C 145.5,24.5 146.5,24.5 147.5,24.5C 146.125,27.3732 145.125,30.3732 144.5,33.5C 144.167,33.5 143.833,33.5 143.5,33.5C 142.993,32.1411 141.993,31.1411 140.5,30.5C 141.833,29.1667 141.833,27.8333 140.5,26.5C 139.397,26.0024 138.397,25.6691 137.5,25.5C 140.167,24.5 140.167,23.5 137.5,22.5C 136.548,20.9547 136.215,19.288 136.5,17.5C 136.5,17.1667 136.5,16.8333 136.5,16.5 Z"/></g>
<g><path style="opacity:0.752" fill="#8197a0" d="M 29.5,28.5 C 29.6653,32.1817 29.4986,35.8484 29,39.5C 28.6232,40.9423 27.7899,41.9423 26.5,42.5C 26.9629,39.5176 27.2962,36.5176 27.5,33.5C 25.5446,32.5526 25.2113,31.2193 26.5,29.5C 25.675,28.6143 24.675,28.281 23.5,28.5C 23.7373,29.791 23.404,30.791 22.5,31.5C 22.6716,30.5084 22.3382,29.8417 21.5,29.5C 20.285,26.5072 21.4516,24.8405 25,24.5C 27.6156,24.6171 29.1156,25.9504 29.5,28.5 Z"/></g>
<g><path style="opacity:0.751" fill="#8c9aa1" d="M 136.5,17.5 C 136.215,19.288 136.548,20.9547 137.5,22.5C 140.167,23.5 140.167,24.5 137.5,25.5C 138.397,25.6691 139.397,26.0024 140.5,26.5C 141.833,27.8333 141.833,29.1667 140.5,30.5C 141.993,31.1411 142.993,32.1411 143.5,33.5C 141.16,32.914 138.993,31.914 137,30.5C 136.111,27.3135 135.278,24.1468 134.5,21C 135.085,19.6976 135.751,18.531 136.5,17.5 Z"/></g>
<g><path style="opacity:0.753" fill="#798e96" d="M 18.5,29.5 C 19.7978,30.1157 20.7978,30.1157 21.5,29.5C 22.3382,29.8417 22.6716,30.5084 22.5,31.5C 21.6993,33.0418 21.366,34.7085 21.5,36.5C 21.5,37.5 21.5,38.5 21.5,39.5C 20.1667,39.5 18.8333,39.5 17.5,39.5C 16.2763,35.9701 16.6096,32.6367 18.5,29.5 Z"/></g>
<g><path style="opacity:0.745" fill="#79909a" d="M 27.5,33.5 C 25.7454,34.9044 23.7454,35.9044 21.5,36.5C 21.366,34.7085 21.6993,33.0418 22.5,31.5C 23.404,30.791 23.7373,29.791 23.5,28.5C 24.675,28.281 25.675,28.6143 26.5,29.5C 25.2113,31.2193 25.5446,32.5526 27.5,33.5 Z"/></g>
<g><path style="opacity:0.742" fill="#859297" d="M 63.5,40.5 C 61.8333,35.1667 60.1667,35.1667 58.5,40.5C 57.7611,40.631 57.0944,40.4643 56.5,40C 57.5171,38.9505 57.6838,37.7839 57,36.5C 56.2904,37.9733 55.1238,38.6399 53.5,38.5C 56.098,34.3517 59.4313,33.685 63.5,36.5C 64.782,37.9584 64.782,39.2918 63.5,40.5 Z"/></g>
<g><path style="opacity:0.753" fill="#778b95" d="M 27.5,33.5 C 27.2962,36.5176 26.9629,39.5176 26.5,42.5C 22.9826,43.3278 19.9826,42.3278 17.5,39.5C 18.8333,39.5 20.1667,39.5 21.5,39.5C 21.5,38.5 21.5,37.5 21.5,36.5C 23.7454,35.9044 25.7454,34.9044 27.5,33.5 Z"/></g>
<g><path style="opacity:0.753" fill="#788e99" d="M 58.5,40.5 C 58.5,40.8333 58.5,41.1667 58.5,41.5C 56.9256,41.9371 55.7589,42.9371 55,44.5C 54.6174,43.944 54.1174,43.6107 53.5,43.5C 52.2905,43.0679 51.2905,42.4013 50.5,41.5C 50.5,39.5 51.5,38.5 53.5,38.5C 55.1238,38.6399 56.2904,37.9733 57,36.5C 57.6838,37.7839 57.5171,38.9505 56.5,40C 57.0944,40.4643 57.7611,40.631 58.5,40.5 Z"/></g>
<g><path style="opacity:0.676" fill="#718690" d="M 58.5,41.5 C 58.4287,44.6523 57.0954,46.9856 54.5,48.5C 50.8873,47.5891 50.554,45.9225 53.5,43.5C 54.1174,43.6107 54.6174,43.944 55,44.5C 55.7589,42.9371 56.9256,41.9371 58.5,41.5 Z"/></g>
<g><path style="opacity:0.753" fill="#7e96a0" d="M 63.5,40.5 C 63.5,40.8333 63.5,41.1667 63.5,41.5C 62.1938,41.879 60.8605,42.2124 59.5,42.5C 58.3469,45.2165 58.3469,48.2165 59.5,51.5C 58.791,52.404 57.791,52.7373 56.5,52.5C 57.2784,48.1113 56.4451,47.778 54,51.5C 53.5304,50.4232 53.6971,49.4232 54.5,48.5C 57.0954,46.9856 58.4287,44.6523 58.5,41.5C 58.5,41.1667 58.5,40.8333 58.5,40.5C 60.1667,35.1667 61.8333,35.1667 63.5,40.5 Z"/></g>
<g><path style="opacity:0.745" fill="#95a7a9" d="M 63.5,41.5 C 64.1186,45.3559 64.1186,49.0225 63.5,52.5C 63.2914,51.0783 62.7914,49.745 62,48.5C 61.7645,50.1193 60.9311,51.1193 59.5,51.5C 58.3469,48.2165 58.3469,45.2165 59.5,42.5C 60.8605,42.2124 62.1938,41.879 63.5,41.5 Z"/></g>
<g><path style="opacity:0.752" fill="#899fa4" d="M 112.5,47.5 C 111.889,49.7111 110.556,51.3777 108.5,52.5C 106.207,50.5779 103.541,49.2446 100.5,48.5C 103.665,47.6778 106.998,47.0111 110.5,46.5C 111.416,46.5427 112.083,46.8761 112.5,47.5 Z"/></g>
<g><path style="opacity:0.747" fill="#7a9099" d="M 100.5,48.5 C 103.541,49.2446 106.207,50.5779 108.5,52.5C 106.716,52.8925 105.05,53.5592 103.5,54.5C 103.158,53.6618 102.492,53.3284 101.5,53.5C 101.918,52.7784 102.584,52.2784 103.5,52C 101.406,50.6485 99.0728,50.1485 96.5,50.5C 97.5137,49.3263 98.847,48.6596 100.5,48.5 Z"/></g>
<g><path style="opacity:0.742" fill="#768b95" d="M 96.5,50.5 C 99.0728,50.1485 101.406,50.6485 103.5,52C 102.584,52.2784 101.918,52.7784 101.5,53.5C 99.2417,53.7751 98.9084,54.7751 100.5,56.5C 97.1763,57.1592 95.8429,59.1592 96.5,62.5C 95.6829,60.0314 95.1829,57.3647 95,54.5C 94.7679,55.7375 94.2679,56.7375 93.5,57.5C 92.8333,57.1667 92.1667,56.8333 91.5,56.5C 91.7329,54.9382 92.3995,53.6049 93.5,52.5C 93.9731,51.0937 94.9731,50.427 96.5,50.5 Z"/></g>
<g><path style="opacity:0.749" fill="#7b929c" d="M 50.5,41.5 C 51.2905,42.4013 52.2905,43.0679 53.5,43.5C 50.554,45.9225 50.8873,47.5891 54.5,48.5C 53.6971,49.4232 53.5304,50.4232 54,51.5C 56.4451,47.778 57.2784,48.1113 56.5,52.5C 55.8333,52.5 55.5,52.8333 55.5,53.5C 53.4677,52.9522 52.4677,51.6188 52.5,49.5C 51.5,49.5 50.5,49.5 49.5,49.5C 49.5,47.8333 49.5,46.1667 49.5,44.5C 49.2627,43.209 49.596,42.209 50.5,41.5 Z"/></g>
<g><path style="opacity:0.717" fill="#89a0ab" d="M 113.5,48.5 C 115.739,50.0012 115.739,51.3345 113.5,52.5C 114.603,52.9976 115.603,53.3309 116.5,53.5C 115.757,54.1818 115.091,54.8485 114.5,55.5C 112.131,55.8511 109.797,56.0178 107.5,56C 108.617,54.1079 110.284,53.2746 112.5,53.5C 112.216,51.5853 112.549,49.9187 113.5,48.5 Z"/></g>
<g><path style="opacity:0.745" fill="#718792" d="M 49.5,49.5 C 50.5,49.5 51.5,49.5 52.5,49.5C 52.4677,51.6188 53.4677,52.9522 55.5,53.5C 56.4709,54.9621 56.1376,56.2954 54.5,57.5C 53.448,57.6495 52.448,57.4828 51.5,57C 51.8333,56.6667 52.1667,56.3333 52.5,56C 51.086,54.0065 50.086,51.8398 49.5,49.5 Z"/></g>
<g><path style="opacity:0.733" fill="#7f97a0" d="M 112.5,47.5 C 112.833,47.5 113.167,47.5 113.5,47.5C 113.5,47.8333 113.5,48.1667 113.5,48.5C 112.549,49.9187 112.216,51.5853 112.5,53.5C 110.284,53.2746 108.617,54.1079 107.5,56C 109.797,56.0178 112.131,55.8511 114.5,55.5C 115.043,55.56 115.376,55.8933 115.5,56.5C 114.012,58.5772 112.012,59.5772 109.5,59.5C 108.486,58.3263 107.153,57.6596 105.5,57.5C 104.449,56.7777 103.782,55.7777 103.5,54.5C 105.05,53.5592 106.716,52.8925 108.5,52.5C 110.556,51.3777 111.889,49.7111 112.5,47.5 Z"/></g>
<g><path style="opacity:0.752" fill="#90aab2" d="M 63.5,52.5 C 61.5183,52.9954 59.5183,53.4954 57.5,54C 58.3081,54.3076 58.9747,54.8076 59.5,55.5C 58.4855,56.6815 57.3188,57.6815 56,58.5C 55.2352,58.4301 54.7352,58.0967 54.5,57.5C 56.1376,56.2954 56.4709,54.9621 55.5,53.5C 55.5,52.8333 55.8333,52.5 56.5,52.5C 57.791,52.7373 58.791,52.404 59.5,51.5C 60.9311,51.1193 61.7645,50.1193 62,48.5C 62.7914,49.745 63.2914,51.0783 63.5,52.5 Z"/></g>
<g><path style="opacity:0.753" fill="#8e9ea1" d="M 49.5,44.5 C 49.5,46.1667 49.5,47.8333 49.5,49.5C 50.086,51.8398 51.086,54.0065 52.5,56C 52.1667,56.3333 51.8333,56.6667 51.5,57C 52.448,57.4828 53.448,57.6495 54.5,57.5C 54.7352,58.0967 55.2352,58.4301 56,58.5C 57.3188,57.6815 58.4855,56.6815 59.5,55.5C 58.9747,54.8076 58.3081,54.3076 57.5,54C 59.5183,53.4954 61.5183,52.9954 63.5,52.5C 62.667,55.3567 61.3336,58.0234 59.5,60.5C 54.0803,62.0368 50.5803,60.0368 49,54.5C 48.1925,50.9733 48.3592,47.6399 49.5,44.5 Z"/></g>
<g><path style="opacity:0.749" fill="#7d949e" d="M 101.5,53.5 C 102.492,53.3284 103.158,53.6618 103.5,54.5C 101.16,55.5718 100.827,57.2385 102.5,59.5C 102.035,61.8083 100.701,63.1416 98.5,63.5C 99.4895,60.1612 98.8229,59.8279 96.5,62.5C 95.8429,59.1592 97.1763,57.1592 100.5,56.5C 98.9084,54.7751 99.2417,53.7751 101.5,53.5 Z"/></g>
<g><path style="opacity:0.737" fill="#939e9f" d="M 113.5,48.5 C 113.5,48.1667 113.5,47.8333 113.5,47.5C 116.077,48.9718 117.41,51.3052 117.5,54.5C 114.729,58.4809 112.729,62.8143 111.5,67.5C 111.318,65.4086 111.652,63.4086 112.5,61.5C 111.675,60.6143 110.675,60.281 109.5,60.5C 109.5,60.1667 109.5,59.8333 109.5,59.5C 112.012,59.5772 114.012,58.5772 115.5,56.5C 115.376,55.8933 115.043,55.56 114.5,55.5C 115.091,54.8485 115.757,54.1818 116.5,53.5C 115.603,53.3309 114.603,52.9976 113.5,52.5C 115.739,51.3345 115.739,50.0012 113.5,48.5 Z"/></g>
<g><path style="opacity:0.735" fill="#7c929b" d="M 145.5,55.5 C 146.5,55.5 147.5,55.5 148.5,55.5C 147.454,57.8817 147.454,60.2151 148.5,62.5C 147.041,62.4326 145.708,62.7659 144.5,63.5C 144.714,61.8561 144.38,60.3561 143.5,59C 145.991,58.3741 145.991,57.5407 143.5,56.5C 143.957,55.7025 144.624,55.3691 145.5,55.5 Z"/></g>
<g><path style="opacity:0.752" fill="#8ea0a2" d="M 141.5,56.5 C 140.984,61.0659 139.317,65.0659 136.5,68.5C 136.089,64.5371 136.922,60.8705 139,57.5C 139.671,56.7476 140.504,56.4142 141.5,56.5 Z"/></g>
<g><path style="opacity:0.753" fill="#889da3" d="M 155.5,54.5 C 155.5,55.1667 155.5,55.8333 155.5,56.5C 153.824,57.1834 153.157,58.5168 153.5,60.5C 152.417,60.4606 151.417,60.1272 150.5,59.5C 149.824,60.6016 149.158,61.6016 148.5,62.5C 147.454,60.2151 147.454,57.8817 148.5,55.5C 150.607,54.5318 152.941,54.1984 155.5,54.5 Z"/></g>
<g><path style="opacity:0.753" fill="#879b9e" d="M 93.5,52.5 C 92.3995,53.6049 91.7329,54.9382 91.5,56.5C 90.3054,56.8656 89.6387,57.699 89.5,59C 90.1476,60.4397 90.4809,61.9397 90.5,63.5C 89.032,64.7791 88.3653,66.4458 88.5,68.5C 86.7188,63.0634 87.3854,57.8967 90.5,53C 91.448,52.5172 92.448,52.3505 93.5,52.5 Z"/></g>
<g><path style="opacity:0.737" fill="#7b919b" d="M 91.5,56.5 C 92.1667,56.8333 92.8333,57.1667 93.5,57.5C 92.1667,59.5 92.1667,61.5 93.5,63.5C 93.5,64.5 93.5,65.5 93.5,66.5C 93.44,67.0431 93.1067,67.3764 92.5,67.5C 91.8281,66.0508 91.1614,64.7175 90.5,63.5C 90.4809,61.9397 90.1476,60.4397 89.5,59C 89.6387,57.699 90.3054,56.8656 91.5,56.5 Z"/></g>
<g><path style="opacity:0.753" fill="#8aa2ab" d="M 103.5,54.5 C 103.782,55.7777 104.449,56.7777 105.5,57.5C 105.657,58.8734 105.49,60.2068 105,61.5C 103.583,62.0779 102.75,63.0779 102.5,64.5C 101.222,64.7822 100.222,65.4489 99.5,66.5C 98.6618,66.1583 98.3284,65.4916 98.5,64.5C 98.5,64.1667 98.5,63.8333 98.5,63.5C 100.701,63.1416 102.035,61.8083 102.5,59.5C 100.827,57.2385 101.16,55.5718 103.5,54.5 Z"/></g>
<g><path style="opacity:0.753" fill="#6e8591" d="M 96.5,62.5 C 98.8229,59.8279 99.4895,60.1612 98.5,63.5C 98.5,63.8333 98.5,64.1667 98.5,64.5C 97.8826,64.6107 97.3826,64.944 97,65.5C 96.1841,64.1772 95.0174,63.5106 93.5,63.5C 92.1667,61.5 92.1667,59.5 93.5,57.5C 94.2679,56.7375 94.7679,55.7375 95,54.5C 95.1829,57.3647 95.6829,60.0314 96.5,62.5 Z"/></g>
<g><path style="opacity:0.75" fill="#92aab5" d="M 153.5,60.5 C 152.892,61.7997 152.225,63.1331 151.5,64.5C 151.608,65.4419 151.941,66.2753 152.5,67C 151.584,67.2784 150.918,67.7784 150.5,68.5C 149.833,68.5 149.167,68.5 148.5,68.5C 149.275,66.6119 149.275,64.6119 148.5,62.5C 149.158,61.6016 149.824,60.6016 150.5,59.5C 151.417,60.1272 152.417,60.4606 153.5,60.5 Z"/></g>
<g><path style="opacity:0.753" fill="#7e949e" d="M 145.5,55.5 C 144.624,55.3691 143.957,55.7025 143.5,56.5C 145.991,57.5407 145.991,58.3741 143.5,59C 144.38,60.3561 144.714,61.8561 144.5,63.5C 144.462,70.0414 143.796,70.0414 142.5,63.5C 141.702,63.9569 141.369,64.6236 141.5,65.5C 140.455,67.7701 139.121,69.7701 137.5,71.5C 137.167,71.5 136.833,71.5 136.5,71.5C 136.5,70.5 136.5,69.5 136.5,68.5C 139.317,65.0659 140.984,61.0659 141.5,56.5C 142.538,54.4805 143.872,54.1472 145.5,55.5 Z"/></g>
<g><path style="opacity:0.747" fill="#81959d" d="M 109.5,60.5 C 110.675,60.281 111.675,60.6143 112.5,61.5C 111.652,63.4086 111.318,65.4086 111.5,67.5C 111.562,73.4378 108.562,76.4378 102.5,76.5C 102.369,75.7611 102.536,75.0944 103,74.5C 104.518,74.9426 105.685,74.2759 106.5,72.5C 105.975,71.8076 105.308,71.3076 104.5,71C 105.737,70.7679 106.737,70.2679 107.5,69.5C 108.376,69.6309 109.043,69.2975 109.5,68.5C 108.289,67.2798 108.289,66.1131 109.5,65C 107.019,63.1962 107.019,61.6962 109.5,60.5 Z"/></g>
<g><path style="opacity:0.745" fill="#748b95" d="M 93.5,63.5 C 95.0174,63.5106 96.1841,64.1772 97,65.5C 97.3826,64.944 97.8826,64.6107 98.5,64.5C 98.3284,65.4916 98.6618,66.1583 99.5,66.5C 100.051,69.8067 100.384,73.1401 100.5,76.5C 99.5526,74.5446 98.2193,74.2113 96.5,75.5C 95.6143,74.675 95.281,73.675 95.5,72.5C 95.9746,69.9179 95.3079,67.9179 93.5,66.5C 93.5,65.5 93.5,64.5 93.5,63.5 Z"/></g>
<g><path style="opacity:0.746" fill="#7b919c" d="M 105.5,57.5 C 107.153,57.6596 108.486,58.3263 109.5,59.5C 109.5,59.8333 109.5,60.1667 109.5,60.5C 107.019,61.6962 107.019,63.1962 109.5,65C 108.289,66.1131 108.289,67.2798 109.5,68.5C 109.043,69.2975 108.376,69.6309 107.5,69.5C 106.696,67.8113 105.696,66.1446 104.5,64.5C 103.262,68.3107 102.596,68.3107 102.5,64.5C 102.75,63.0779 103.583,62.0779 105,61.5C 105.49,60.2068 105.657,58.8734 105.5,57.5 Z"/></g>
<g><path style="opacity:0.739" fill="#8aa2ab" d="M 148.5,62.5 C 149.275,64.6119 149.275,66.6119 148.5,68.5C 147.903,68.7352 147.57,69.2352 147.5,70C 148.429,71.0769 149.096,72.2436 149.5,73.5C 148.414,76.7051 146.914,77.0384 145,74.5C 144.617,75.056 144.117,75.3893 143.5,75.5C 143.243,72.0678 142.576,68.7345 141.5,65.5C 141.369,64.6236 141.702,63.9569 142.5,63.5C 143.796,70.0414 144.462,70.0414 144.5,63.5C 145.708,62.7659 147.041,62.4326 148.5,62.5 Z"/></g>
<g><path style="opacity:0.752" fill="#88a0a8" d="M 155.5,56.5 C 155.5,61.8333 155.5,67.1667 155.5,72.5C 155.167,72.5 154.833,72.5 154.5,72.5C 153.598,70.6593 152.264,69.326 150.5,68.5C 150.918,67.7784 151.584,67.2784 152.5,67C 151.941,66.2753 151.608,65.4419 151.5,64.5C 152.225,63.1331 152.892,61.7997 153.5,60.5C 153.157,58.5168 153.824,57.1834 155.5,56.5 Z"/></g>
<g><path style="opacity:0.752" fill="#6e8490" d="M 90.5,63.5 C 91.1614,64.7175 91.8281,66.0508 92.5,67.5C 93.1067,67.3764 93.44,67.0431 93.5,66.5C 95.3079,67.9179 95.9746,69.9179 95.5,72.5C 93.9519,72.1788 93.2852,71.1788 93.5,69.5C 91.7839,69.3713 90.1172,69.038 88.5,68.5C 88.3653,66.4458 89.032,64.7791 90.5,63.5 Z"/></g>
<g><path style="opacity:0.741" fill="#839ba4" d="M 102.5,64.5 C 102.596,68.3107 103.262,68.3107 104.5,64.5C 105.696,66.1446 106.696,67.8113 107.5,69.5C 106.737,70.2679 105.737,70.7679 104.5,71C 105.308,71.3076 105.975,71.8076 106.5,72.5C 105.685,74.2759 104.518,74.9426 103,74.5C 102.536,75.0944 102.369,75.7611 102.5,76.5C 101.833,76.5 101.167,76.5 100.5,76.5C 100.384,73.1401 100.051,69.8067 99.5,66.5C 100.222,65.4489 101.222,64.7822 102.5,64.5 Z"/></g>
<g><path style="opacity:0.753" fill="#94abb5" d="M 148.5,68.5 C 149.167,68.5 149.833,68.5 150.5,68.5C 152.264,69.326 153.598,70.6593 154.5,72.5C 153.185,74.5992 151.518,74.9326 149.5,73.5C 149.096,72.2436 148.429,71.0769 147.5,70C 147.57,69.2352 147.903,68.7352 148.5,68.5 Z"/></g>
<g><path style="opacity:0.753" fill="#8299a3" d="M 141.5,65.5 C 142.576,68.7345 143.243,72.0678 143.5,75.5C 143.44,76.0431 143.107,76.3764 142.5,76.5C 140.371,75.2064 138.704,73.5397 137.5,71.5C 139.121,69.7701 140.455,67.7701 141.5,65.5 Z"/></g>
<g><path style="opacity:0.75" fill="#84969d" d="M 88.5,68.5 C 90.1172,69.038 91.7839,69.3713 93.5,69.5C 93.2852,71.1788 93.9519,72.1788 95.5,72.5C 95.281,73.675 95.6143,74.675 96.5,75.5C 98.2193,74.2113 99.5526,74.5446 100.5,76.5C 101.167,76.5 101.833,76.5 102.5,76.5C 95.0138,78.8859 90.3471,76.2192 88.5,68.5 Z"/></g>
<g><path style="opacity:0.752" fill="#90a0a4" d="M 136.5,71.5 C 136.833,71.5 137.167,71.5 137.5,71.5C 138.704,73.5397 140.371,75.2064 142.5,76.5C 143.107,76.3764 143.44,76.0431 143.5,75.5C 144.117,75.3893 144.617,75.056 145,74.5C 146.914,77.0384 148.414,76.7051 149.5,73.5C 151.518,74.9326 153.185,74.5992 154.5,72.5C 153.485,76.79 150.652,79.1233 146,79.5C 140.4,79.4804 137.233,76.8138 136.5,71.5 Z"/></g>
<g><path style="opacity:0.745" fill="#8199a3" d="M 25.5,77.5 C 29.1488,77.4734 30.4821,78.9734 29.5,82C 30.7073,83.3002 31.3739,84.8002 31.5,86.5C 29.6776,86.8308 28.0109,87.4975 26.5,88.5C 25.9033,88.2648 25.5699,87.7648 25.5,87C 26.1667,85.6667 26.8333,84.3333 27.5,83C 24.9545,81.6849 24.2878,79.8515 25.5,77.5 Z"/></g>
<g><path style="opacity:0.741" fill="#88989d" d="M 25.5,77.5 C 30.6764,76.1304 33.6764,78.297 34.5,84C 34.4753,85.876 33.8086,87.376 32.5,88.5C 31.6618,88.1583 31.3284,87.4916 31.5,86.5C 31.3739,84.8002 30.7073,83.3002 29.5,82C 30.4821,78.9734 29.1488,77.4734 25.5,77.5 Z"/></g>
<g><path style="opacity:0.748" fill="#748a95" d="M 22.5,79.5 C 23.6953,81.7728 23.6953,84.1061 22.5,86.5C 23.9634,88.2888 24.9634,90.2888 25.5,92.5C 24.1667,92.5 22.8333,92.5 21.5,92.5C 20.0937,92.0269 19.427,91.0269 19.5,89.5C 20.807,87.7768 20.807,85.9435 19.5,84C 22.1899,83.6655 22.8565,82.4988 21.5,80.5C 21.5,79.8333 21.8333,79.5 22.5,79.5 Z"/></g>
<g><path style="opacity:0.748" fill="#869ca6" d="M 25.5,77.5 C 24.2878,79.8515 24.9545,81.6849 27.5,83C 26.8333,84.3333 26.1667,85.6667 25.5,87C 25.5699,87.7648 25.9033,88.2648 26.5,88.5C 28.1751,90.456 27.8418,91.7893 25.5,92.5C 24.9634,90.2888 23.9634,88.2888 22.5,86.5C 23.6953,84.1061 23.6953,81.7728 22.5,79.5C 22.9731,78.0937 23.9731,77.427 25.5,77.5 Z"/></g>
<g><path style="opacity:0.731" fill="#889ba2" d="M 21.5,80.5 C 22.8565,82.4988 22.1899,83.6655 19.5,84C 20.807,85.9435 20.807,87.7768 19.5,89.5C 18.7677,88.1917 17.9344,86.8584 17,85.5C 16.5078,86.549 16.6744,87.549 17.5,88.5C 17.1445,89.5223 16.4778,90.189 15.5,90.5C 15.5,89.5 15.5,88.5 15.5,87.5C 16.0291,83.9666 18.0291,81.6332 21.5,80.5 Z"/></g>
<g><path style="opacity:0.748" fill="#89969b" d="M 31.5,86.5 C 31.3284,87.4916 31.6618,88.1583 32.5,88.5C 32.1412,90.371 31.1412,91.871 29.5,93C 26.3244,93.8886 23.3244,95.0553 20.5,96.5C 20.4326,95.0413 20.7659,93.7079 21.5,92.5C 22.8333,92.5 24.1667,92.5 25.5,92.5C 27.8418,91.7893 28.1751,90.456 26.5,88.5C 28.0109,87.4975 29.6776,86.8308 31.5,86.5 Z"/></g>
<g><path style="opacity:0.733" fill="#829ba4" d="M 19.5,89.5 C 19.427,91.0269 20.0937,92.0269 21.5,92.5C 20.7659,93.7079 20.4326,95.0413 20.5,96.5C 18.8518,94.5707 17.1851,92.5707 15.5,90.5C 16.4778,90.189 17.1445,89.5223 17.5,88.5C 16.6744,87.549 16.5078,86.549 17,85.5C 17.9344,86.8584 18.7677,88.1917 19.5,89.5 Z"/></g>
<g><path style="opacity:0.748" fill="#85989e" d="M 67.5,90.5 C 64.8333,90.1667 62.1667,89.8333 59.5,89.5C 56.4076,91.5865 54.0743,94.2532 52.5,97.5C 51.4549,96.1224 50.1216,95.1224 48.5,94.5C 52.3391,88.9364 57.6725,86.7697 64.5,88C 65.9423,88.3768 66.9423,89.2101 67.5,90.5 Z"/></g>
<g><path style="opacity:0.737" fill="#909b9d" d="M 15.5,87.5 C 15.5,88.5 15.5,89.5 15.5,90.5C 17.1851,92.5707 18.8518,94.5707 20.5,96.5C 18.5112,97.8866 16.6779,97.5532 15,95.5C 14.1993,92.633 14.3659,89.9664 15.5,87.5 Z"/></g>
<g><path style="opacity:0.752" fill="#79919b" d="M 59.5,89.5 C 62.1667,89.8333 64.8333,90.1667 67.5,90.5C 66.1227,94.2053 63.456,96.5387 59.5,97.5C 59.8265,95.0042 59.8265,92.3376 59.5,89.5 Z"/></g>
<g><path style="opacity:0.747" fill="#83939a" d="M 48.5,94.5 C 50.1216,95.1224 51.4549,96.1224 52.5,97.5C 52.7409,100.034 51.7409,101.7 49.5,102.5C 48.4265,101.749 48.2599,100.749 49,99.5C 49.805,101.901 50.6383,101.734 51.5,99C 50.4479,97.8808 49.2812,97.3808 48,97.5C 46.5415,99.4319 45.3748,101.432 44.5,103.5C 44.5018,99.8355 45.8352,96.8355 48.5,94.5 Z"/></g>
<g><path style="opacity:0.749" fill="#738995" d="M 59.5,89.5 C 59.8265,92.3376 59.8265,95.0042 59.5,97.5C 59.5,97.8333 59.5,98.1667 59.5,98.5C 57.5,99.1667 56.1667,100.5 55.5,102.5C 54.7321,101.737 54.2321,100.737 54,99.5C 53.5,100.5 53,101.5 52.5,102.5C 51.3864,103.776 50.3864,103.776 49.5,102.5C 51.7409,101.7 52.7409,100.034 52.5,97.5C 54.0743,94.2532 56.4076,91.5865 59.5,89.5 Z"/></g>
<g><path style="opacity:0.737" fill="#85969d" d="M 67.5,90.5 C 71.1086,94.2541 71.4419,98.2541 68.5,102.5C 68.5,100.833 68.5,99.1667 68.5,97.5C 65.4239,98.0673 62.4239,98.4006 59.5,98.5C 59.5,98.1667 59.5,97.8333 59.5,97.5C 63.456,96.5387 66.1227,94.2053 67.5,90.5 Z"/></g>
<g><path style="opacity:0.733" fill="#7e96a0" d="M 68.5,102.5 C 65.3298,103.265 62.3298,104.265 59.5,105.5C 58.2101,104.942 57.3768,103.942 57,102.5C 56.6174,103.056 56.1174,103.389 55.5,103.5C 55.5,103.167 55.5,102.833 55.5,102.5C 56.1667,100.5 57.5,99.1667 59.5,98.5C 62.4239,98.4006 65.4239,98.0673 68.5,97.5C 68.5,99.1667 68.5,100.833 68.5,102.5 Z"/></g>
<g><path style="opacity:0.753" fill="#7b929d" d="M 49.5,102.5 C 50.3864,103.776 51.3864,103.776 52.5,102.5C 53,101.5 53.5,100.5 54,99.5C 54.2321,100.737 54.7321,101.737 55.5,102.5C 55.5,102.833 55.5,103.167 55.5,103.5C 54.1516,104.186 52.985,105.186 52,106.5C 50.9158,104.218 49.4158,103.884 47.5,105.5C 46.791,104.596 45.791,104.263 44.5,104.5C 44.5,104.167 44.5,103.833 44.5,103.5C 45.3748,101.432 46.5415,99.4319 48,97.5C 49.2812,97.3808 50.4479,97.8808 51.5,99C 50.6383,101.734 49.805,101.901 49,99.5C 48.2599,100.749 48.4265,101.749 49.5,102.5 Z"/></g>
<g><path style="opacity:0.753" fill="#869398" d="M 68.5,102.5 C 66.5,107.833 62.8333,111.5 57.5,113.5C 57.5,112.5 57.5,111.5 57.5,110.5C 58.4959,110.414 59.3292,110.748 60,111.5C 60.4017,110.128 60.9017,108.795 61.5,107.5C 61.1445,106.478 60.4778,105.811 59.5,105.5C 62.3298,104.265 65.3298,103.265 68.5,102.5 Z"/></g>
<g><path style="opacity:0.753" fill="#839aa3" d="M 103.5,106.5 C 104.802,108.028 106.469,109.028 108.5,109.5C 105.316,110.643 101.983,111.309 98.5,111.5C 98.5,110.167 98.5,108.833 98.5,107.5C 100.169,106.11 101.836,105.777 103.5,106.5 Z"/></g>
<g><path style="opacity:0.741" fill="#859799" d="M 44.5,104.5 C 45.791,104.263 46.791,104.596 47.5,105.5C 46.596,106.209 46.2627,107.209 46.5,108.5C 48.099,108.232 49.4324,108.566 50.5,109.5C 50.5,110.833 50.5,112.167 50.5,113.5C 46.9992,112.164 44.6659,109.664 43.5,106C 43.5699,105.235 43.9033,104.735 44.5,104.5 Z"/></g>
<g><path style="opacity:0.749" fill="#758c97" d="M 59.5,105.5 C 60.4778,105.811 61.1445,106.478 61.5,107.5C 60.9017,108.795 60.4017,110.128 60,111.5C 59.3292,110.748 58.4959,110.414 57.5,110.5C 56.5,110.5 55.5,110.5 54.5,110.5C 54.719,109.325 54.3857,108.325 53.5,107.5C 52.4822,108.193 51.4822,108.859 50.5,109.5C 49.4324,108.566 48.099,108.232 46.5,108.5C 46.2627,107.209 46.596,106.209 47.5,105.5C 49.4158,103.884 50.9158,104.218 52,106.5C 52.985,105.186 54.1516,104.186 55.5,103.5C 56.1174,103.389 56.6174,103.056 57,102.5C 57.3768,103.942 58.2101,104.942 59.5,105.5 Z"/></g>
<g><path style="opacity:0.743" fill="#7a929c" d="M 108.5,109.5 C 109.332,110.329 108.999,111.162 107.5,112C 106.255,112.791 104.922,113.291 103.5,113.5C 103.167,113.5 102.833,113.5 102.5,113.5C 101.391,113.557 100.391,113.89 99.5,114.5C 98.596,113.791 98.2627,112.791 98.5,111.5C 101.983,111.309 105.316,110.643 108.5,109.5 Z"/></g>
<g><path style="opacity:0.753" fill="#80939b" d="M 57.5,110.5 C 57.5,111.5 57.5,112.5 57.5,113.5C 55.1667,114.833 52.8333,114.833 50.5,113.5C 50.5,112.167 50.5,110.833 50.5,109.5C 51.4822,108.859 52.4822,108.193 53.5,107.5C 54.3857,108.325 54.719,109.325 54.5,110.5C 55.5,110.5 56.5,110.5 57.5,110.5 Z"/></g>
<g><path style="opacity:0.753" fill="#758a94" d="M 98.5,107.5 C 98.5,108.833 98.5,110.167 98.5,111.5C 98.2627,112.791 98.596,113.791 99.5,114.5C 98.5684,118.451 96.235,119.784 92.5,118.5C 91.6365,119.463 90.9698,119.463 90.5,118.5C 91.2758,116.644 92.6091,115.311 94.5,114.5C 93.8728,113.583 93.5394,112.583 93.5,111.5C 94.5846,109.413 96.2512,108.08 98.5,107.5 Z"/></g>
<g><path style="opacity:0.741" fill="#91a9b2" d="M 102.5,113.5 C 102.833,113.5 103.167,113.5 103.5,113.5C 104.263,114.268 105.263,114.768 106.5,115C 107.252,115.671 107.586,116.504 107.5,117.5C 107.649,118.552 107.483,119.552 107,120.5C 105.333,119.5 104,118.167 103,116.5C 102.617,117.056 102.117,117.389 101.5,117.5C 101.167,117.5 100.833,117.5 100.5,117.5C 101.167,116.167 101.833,114.833 102.5,113.5 Z"/></g>
<g><path style="opacity:0.753" fill="#8fa2a9" d="M 103.5,106.5 C 106.939,106.589 109.772,107.922 112,110.5C 112.584,114.095 113.418,117.595 114.5,121C 113.956,121.717 113.289,122.217 112.5,122.5C 112.217,121.711 111.717,121.044 111,120.5C 110.107,121.711 109.274,121.711 108.5,120.5C 110.465,118.481 110.631,116.481 109,114.5C 108.768,115.737 108.268,116.737 107.5,117.5C 107.586,116.504 107.252,115.671 106.5,115C 105.263,114.768 104.263,114.268 103.5,113.5C 104.922,113.291 106.255,112.791 107.5,112C 108.999,111.162 109.332,110.329 108.5,109.5C 106.469,109.028 104.802,108.028 103.5,106.5 Z"/></g>
<g><path style="opacity:0.753" fill="#84979f" d="M 155.5,117.5 C 155.5,119.5 155.5,121.5 155.5,123.5C 154.527,124.791 153.527,124.791 152.5,123.5C 151.824,124.602 151.158,125.602 150.5,126.5C 148.763,124.206 147.596,121.54 147,118.5C 146.184,117.177 145.017,116.511 143.5,116.5C 144.777,115.102 146.443,114.436 148.5,114.5C 151.029,115.025 153.362,116.025 155.5,117.5 Z"/></g>
<g><path style="opacity:0.753" fill="#7a8e98" d="M 143.5,116.5 C 145.017,116.511 146.184,117.177 147,118.5C 147.596,121.54 148.763,124.206 150.5,126.5C 149.778,126.082 149.278,125.416 149,124.5C 148.617,125.056 148.117,125.389 147.5,125.5C 146.817,123.824 145.483,123.157 143.5,123.5C 143.754,121.599 143.42,120.933 142.5,121.5C 141.167,121.5 139.833,121.5 138.5,121.5C 139.189,118.811 140.856,117.144 143.5,116.5 Z"/></g>
<g><path style="opacity:0.704" fill="#889ca4" d="M 112.5,122.5 C 112.415,124.929 111.415,126.929 109.5,128.5C 108.005,129.705 106.672,129.705 105.5,128.5C 107.318,121.955 106.484,121.289 103,126.5C 102.667,126.167 102.333,125.833 102,125.5C 102.239,122.751 102.072,120.085 101.5,117.5C 102.117,117.389 102.617,117.056 103,116.5C 104,118.167 105.333,119.5 107,120.5C 107.483,119.552 107.649,118.552 107.5,117.5C 108.268,116.737 108.768,115.737 109,114.5C 110.631,116.481 110.465,118.481 108.5,120.5C 109.274,121.711 110.107,121.711 111,120.5C 111.717,121.044 112.217,121.711 112.5,122.5 Z"/></g>
<g><path style="opacity:0.753" fill="#7e929c" d="M 93.5,111.5 C 93.5394,112.583 93.8728,113.583 94.5,114.5C 92.6091,115.311 91.2758,116.644 90.5,118.5C 90.9698,119.463 91.6365,119.463 92.5,118.5C 92.5,119.5 92.5,120.5 92.5,121.5C 92.5,123.167 92.5,124.833 92.5,126.5C 90.5275,123.916 89.5275,120.916 89.5,117.5C 90.3403,115.147 91.6736,113.147 93.5,111.5 Z"/></g>
<g><path style="opacity:0.752" fill="#718794" d="M 138.5,121.5 C 139.833,121.5 141.167,121.5 142.5,121.5C 142.5,123.167 142.5,124.833 142.5,126.5C 141.094,126.973 140.427,127.973 140.5,129.5C 139.504,129.586 138.671,129.252 138,128.5C 137.505,126.527 137.338,124.527 137.5,122.5C 137.5,121.833 137.833,121.5 138.5,121.5 Z"/></g>
<g><path style="opacity:0.753" fill="#7f97a1" d="M 102.5,113.5 C 101.833,114.833 101.167,116.167 100.5,117.5C 99.6521,119.093 98.3187,120.26 96.5,121C 100.483,121.23 101.149,122.563 98.5,125C 96.2554,124.455 94.2554,123.289 92.5,121.5C 92.5,120.5 92.5,119.5 92.5,118.5C 96.235,119.784 98.5684,118.451 99.5,114.5C 100.391,113.89 101.391,113.557 102.5,113.5 Z"/></g>
<g><path style="opacity:0.749" fill="#8ea6b0" d="M 100.5,117.5 C 100.833,117.5 101.167,117.5 101.5,117.5C 102.072,120.085 102.239,122.751 102,125.5C 102.333,125.833 102.667,126.167 103,126.5C 106.484,121.289 107.318,121.955 105.5,128.5C 104.5,128.5 103.5,128.5 102.5,128.5C 99.9641,127.651 97.4641,126.651 95,125.5C 94.3992,127.359 93.5659,127.692 92.5,126.5C 92.5,124.833 92.5,123.167 92.5,121.5C 94.2554,123.289 96.2554,124.455 98.5,125C 101.149,122.563 100.483,121.23 96.5,121C 98.3187,120.26 99.6521,119.093 100.5,117.5 Z"/></g>
<g><path style="opacity:0.745" fill="#6c828e" d="M 147.5,125.5 C 148.11,126.391 148.443,127.391 148.5,128.5C 146.765,127.943 145.098,127.61 143.5,127.5C 143.5,126.833 143.167,126.5 142.5,126.5C 142.5,124.833 142.5,123.167 142.5,121.5C 143.42,120.933 143.754,121.599 143.5,123.5C 145.483,123.157 146.817,123.824 147.5,125.5 Z"/></g>
<g><path style="opacity:0.752" fill="#93a6ae" d="M 89.5,117.5 C 89.5275,120.916 90.5275,123.916 92.5,126.5C 93.5659,127.692 94.3992,127.359 95,125.5C 97.4641,126.651 99.9641,127.651 102.5,128.5C 100.73,129.764 99.0632,131.264 97.5,133C 90.9679,134.476 87.6346,131.81 87.5,125C 87.8669,122.292 88.5335,119.792 89.5,117.5 Z"/></g>
<g><path style="opacity:0.751" fill="#92a0a8" d="M 155.5,123.5 C 155.5,124.833 155.5,126.167 155.5,127.5C 153.588,129.657 151.921,131.991 150.5,134.5C 150.741,132.114 150.075,130.114 148.5,128.5C 148.443,127.391 148.11,126.391 147.5,125.5C 148.117,125.389 148.617,125.056 149,124.5C 149.278,125.416 149.778,126.082 150.5,126.5C 151.158,125.602 151.824,124.602 152.5,123.5C 153.527,124.791 154.527,124.791 155.5,123.5 Z"/></g>
<g><path style="opacity:0.751" fill="#7c8c93" d="M 137.5,122.5 C 137.338,124.527 137.505,126.527 138,128.5C 138.671,129.252 139.504,129.586 140.5,129.5C 140.5,130.167 140.5,130.833 140.5,131.5C 140.662,133.527 140.495,135.527 140,137.5C 139.576,134.975 138.41,132.975 136.5,131.5C 136.19,128.287 136.523,125.287 137.5,122.5 Z"/></g>
<g><path style="opacity:0.753" fill="#79919b" d="M 142.5,126.5 C 143.167,126.5 143.5,126.833 143.5,127.5C 143.5,128.5 143.5,129.5 143.5,130.5C 144.5,130.5 145.5,130.5 146.5,130.5C 146.5,132.167 146.5,133.833 146.5,135.5C 145.833,135.167 145.167,134.833 144.5,134.5C 143.965,132.554 142.632,131.554 140.5,131.5C 140.5,130.833 140.5,130.167 140.5,129.5C 140.427,127.973 141.094,126.973 142.5,126.5 Z"/></g>
<g><path style="opacity:0.748" fill="#778b94" d="M 143.5,127.5 C 145.098,127.61 146.765,127.943 148.5,128.5C 150.075,130.114 150.741,132.114 150.5,134.5C 150.167,135.5 149.5,136.167 148.5,136.5C 148.158,135.662 147.492,135.328 146.5,135.5C 146.5,133.833 146.5,132.167 146.5,130.5C 145.5,130.5 144.5,130.5 143.5,130.5C 143.5,129.5 143.5,128.5 143.5,127.5 Z"/></g>
<g><path style="opacity:0.751" fill="#83949c" d="M 144.5,134.5 C 145.167,134.833 145.833,135.167 146.5,135.5C 147.492,135.328 148.158,135.662 148.5,136.5C 148.52,140.493 146.853,142.159 143.5,141.5C 140.662,139.694 140.995,138.694 144.5,138.5C 144.5,137.167 144.5,135.833 144.5,134.5 Z"/></g>
<g><path style="opacity:0.752" fill="#9ca5a2" d="M 7.5,134.5 C 11.3616,132.652 14.3616,133.652 16.5,137.5C 15.8551,138.646 15.0217,139.646 14,140.5C 13.8213,144.025 13.3213,147.359 12.5,150.5C 12.2065,146.563 12.5399,142.73 13.5,139C 11.6652,138.072 11.3318,136.906 12.5,135.5C 12.0431,134.702 11.3764,134.369 10.5,134.5C 9.5,134.5 8.5,134.5 7.5,134.5 Z"/></g>
<g><path style="opacity:0.751" fill="#8a9ca3" d="M 136.5,131.5 C 138.41,132.975 139.576,134.975 140,137.5C 140.495,135.527 140.662,133.527 140.5,131.5C 142.632,131.554 143.965,132.554 144.5,134.5C 144.5,135.833 144.5,137.167 144.5,138.5C 140.995,138.694 140.662,139.694 143.5,141.5C 138.934,142.975 135.934,141.308 134.5,136.5C 135.028,134.664 135.694,132.997 136.5,131.5 Z"/></g>
<g><path style="opacity:0.752" fill="#809198" d="M 7.5,134.5 C 7.77089,136.38 7.10422,137.713 5.5,138.5C 3.35231,138.389 3.01897,139.056 4.5,140.5C 3.49953,142.813 2.16619,144.813 0.5,146.5C 0.166667,146.5 -0.166667,146.5 -0.5,146.5C -0.5,144.5 -0.5,142.5 -0.5,140.5C 1.76169,138.028 4.42835,136.028 7.5,134.5 Z"/></g>
<g><path style="opacity:0.749" fill="#738a95" d="M 7.5,134.5 C 8.5,134.5 9.5,134.5 10.5,134.5C 9.62311,137.411 9.62311,140.411 10.5,143.5C 10.4146,145.333 9.7479,146.666 8.5,147.5C 7.19322,148.153 5.85989,148.82 4.5,149.5C 3.70245,149.043 3.36912,148.376 3.5,147.5C 4.39209,145.054 5.89209,144.388 8,145.5C 8.66667,144.167 8.66667,142.833 8,141.5C 7.58605,141.957 7.08605,142.291 6.5,142.5C 5.57131,141.311 5.23798,139.978 5.5,138.5C 7.10422,137.713 7.77089,136.38 7.5,134.5 Z"/></g>
<g><path style="opacity:0.753" fill="#879da5" d="M 5.5,138.5 C 5.23798,139.978 5.57131,141.311 6.5,142.5C 7.08605,142.291 7.58605,141.957 8,141.5C 8.66667,142.833 8.66667,144.167 8,145.5C 5.89209,144.388 4.39209,145.054 3.5,147.5C 2.66175,147.842 2.32842,148.508 2.5,149.5C 1.09368,149.027 0.427017,148.027 0.5,146.5C 2.16619,144.813 3.49953,142.813 4.5,140.5C 3.01897,139.056 3.35231,138.389 5.5,138.5 Z"/></g>
<g><path style="opacity:0.744" fill="#829297" d="M 53.5,143.5 C 51.8657,144.972 50.3657,146.638 49,148.5C 47.6667,147.833 46.6667,146.833 46,145.5C 45.3292,146.252 44.4959,146.586 43.5,146.5C 44.9025,145.069 46.5692,143.902 48.5,143C 50.3869,142.22 52.0536,142.387 53.5,143.5 Z"/></g>
<g><path style="opacity:0.748" fill="#8da3aa" d="M 10.5,134.5 C 11.3764,134.369 12.0431,134.702 12.5,135.5C 11.3318,136.906 11.6652,138.072 13.5,139C 12.5399,142.73 12.2065,146.563 12.5,150.5C 12.0423,153.309 10.7089,153.976 8.5,152.5C 9.56205,150.901 9.56205,149.234 8.5,147.5C 9.7479,146.666 10.4146,145.333 10.5,143.5C 9.62311,140.411 9.62311,137.411 10.5,134.5 Z"/></g>
<g><path style="opacity:0.751" fill="#869ea7" d="M 53.5,143.5 C 54.1667,143.5 54.5,143.833 54.5,144.5C 53.9688,146.624 52.6355,148.124 50.5,149C 51.4132,150.414 51.4132,151.914 50.5,153.5C 50.7373,154.791 50.404,155.791 49.5,156.5C 49.6602,154.801 49.4935,153.134 49,151.5C 48.6667,152.167 48.3333,152.833 48,153.5C 46.0966,149.926 43.5966,149.593 40.5,152.5C 41.1495,150.565 41.4828,148.565 41.5,146.5C 42.1667,146.5 42.8333,146.5 43.5,146.5C 44.4959,146.586 45.3292,146.252 46,145.5C 46.6667,146.833 47.6667,147.833 49,148.5C 50.3657,146.638 51.8657,144.972 53.5,143.5 Z"/></g>
<g><path style="opacity:0.749" fill="#83989d" d="M 3.5,147.5 C 3.36912,148.376 3.70245,149.043 4.5,149.5C 5.85989,148.82 7.19322,148.153 8.5,147.5C 9.56205,149.234 9.56205,150.901 8.5,152.5C 5.56933,153.703 3.56933,152.703 2.5,149.5C 2.32842,148.508 2.66175,147.842 3.5,147.5 Z"/></g>
<g><path style="opacity:0.719" fill="#94a3a5" d="M 54.5,144.5 C 55.1386,145.097 55.472,145.93 55.5,147C 54.3143,152.273 53.3143,157.44 52.5,162.5C 52.665,159.15 52.4983,155.817 52,152.5C 51.6174,153.056 51.1174,153.389 50.5,153.5C 51.4132,151.914 51.4132,150.414 50.5,149C 52.6355,148.124 53.9688,146.624 54.5,144.5 Z"/></g>
<g><path style="opacity:0.753" fill="#92a4a2" d="M 41.5,146.5 C 41.4828,148.565 41.1495,150.565 40.5,152.5C 39.7659,153.708 39.4326,155.041 39.5,156.5C 39.1667,156.5 38.8333,156.5 38.5,156.5C 36.5759,152.336 37.5759,149.002 41.5,146.5 Z"/></g>
<g><path style="opacity:0.753" fill="#889ea6" d="M 100.5,152.5 C 105.908,154.126 107.241,157.126 104.5,161.5C 104.288,159.616 103.288,158.283 101.5,157.5C 102.326,156.549 102.492,155.549 102,154.5C 100.583,155.078 99.7496,156.078 99.5,157.5C 98.5,157.5 97.5,157.5 96.5,157.5C 96.6567,158.873 96.49,160.207 96,161.5C 95.8784,159.563 95.045,158.23 93.5,157.5C 95.0423,156.859 96.3757,155.859 97.5,154.5C 96.9747,153.808 96.3081,153.308 95.5,153C 97.1341,152.506 98.8008,152.34 100.5,152.5 Z"/></g>
<g><path style="opacity:0.752" fill="#748995" d="M 49.5,156.5 C 49.5,156.833 49.5,157.167 49.5,157.5C 46.7448,156.521 44.7448,157.521 43.5,160.5C 43.1667,158.167 41.8333,156.833 39.5,156.5C 39.4326,155.041 39.7659,153.708 40.5,152.5C 43.5966,149.593 46.0966,149.926 48,153.5C 48.3333,152.833 48.6667,152.167 49,151.5C 49.4935,153.134 49.6602,154.801 49.5,156.5 Z"/></g>
<g><path style="opacity:0.751" fill="#90a2a9" d="M 38.5,156.5 C 38.8333,156.5 39.1667,156.5 39.5,156.5C 41.8333,156.833 43.1667,158.167 43.5,160.5C 42.193,162.223 42.193,164.057 43.5,166C 42.244,166.417 41.5774,167.25 41.5,168.5C 40.0337,167.653 39.2004,166.32 39,164.5C 38.5026,161.854 38.3359,159.187 38.5,156.5 Z"/></g>
<g><path style="opacity:0.744" fill="#8da1a8" d="M 100.5,152.5 C 98.8008,152.34 97.1341,152.506 95.5,153C 96.3081,153.308 96.9747,153.808 97.5,154.5C 96.3757,155.859 95.0423,156.859 93.5,157.5C 93.7529,159.827 93.0863,161.827 91.5,163.5C 93.0298,165.226 94.0298,167.226 94.5,169.5C 94.1445,170.522 93.4778,171.189 92.5,171.5C 92.1959,169.204 91.1959,168.871 89.5,170.5C 89.5,169.167 88.8333,168.5 87.5,168.5C 87.2174,161.837 89.5507,156.337 94.5,152C 96.7116,151.211 98.7116,151.378 100.5,152.5 Z"/></g>
<g><path style="opacity:0.75" fill="#8ca4ae" d="M 52.5,162.5 C 52.5,162.833 52.5,163.167 52.5,163.5C 51.391,163.443 50.391,163.11 49.5,162.5C 48.9285,160.64 48.9285,158.973 49.5,157.5C 49.5,157.167 49.5,156.833 49.5,156.5C 50.404,155.791 50.7373,154.791 50.5,153.5C 51.1174,153.389 51.6174,153.056 52,152.5C 52.4983,155.817 52.665,159.15 52.5,162.5 Z"/></g>
<g><path style="opacity:0.71" fill="#9ab2bb" d="M 104.5,161.5 C 104.5,161.833 104.5,162.167 104.5,162.5C 103.662,162.842 103.328,163.508 103.5,164.5C 101.57,164.229 100.236,163.229 99.5,161.5C 99.5,160.167 99.5,158.833 99.5,157.5C 99.7496,156.078 100.583,155.078 102,154.5C 102.492,155.549 102.326,156.549 101.5,157.5C 103.288,158.283 104.288,159.616 104.5,161.5 Z"/></g>
<g><path style="opacity:0.751" fill="#758c97" d="M 93.5,157.5 C 95.045,158.23 95.8784,159.563 96,161.5C 96.49,160.207 96.6567,158.873 96.5,157.5C 97.5,157.5 98.5,157.5 99.5,157.5C 99.5,158.833 99.5,160.167 99.5,161.5C 99.5,163.5 99.5,165.5 99.5,167.5C 96.1469,167.345 95.8136,168.012 98.5,169.5C 96.8624,170.705 96.5291,172.038 97.5,173.5C 97.1583,174.338 96.4916,174.672 95.5,174.5C 95.2942,172.451 94.4609,172.117 93,173.5C 92.5357,172.906 92.369,172.239 92.5,171.5C 93.4778,171.189 94.1445,170.522 94.5,169.5C 94.0298,167.226 93.0298,165.226 91.5,163.5C 93.0863,161.827 93.7529,159.827 93.5,157.5 Z"/></g>
<g><path style="opacity:0.747" fill="#879da7" d="M 49.5,157.5 C 48.9285,158.973 48.9285,160.64 49.5,162.5C 48.8153,164.414 48.3153,166.414 48,168.5C 47.0255,166.122 46.3589,166.456 46,169.5C 45.3292,170.252 44.4959,170.586 43.5,170.5C 42.1667,170.5 41.5,169.833 41.5,168.5C 41.5774,167.25 42.244,166.417 43.5,166C 42.193,164.057 42.193,162.223 43.5,160.5C 44.7448,157.521 46.7448,156.521 49.5,157.5 Z"/></g>
<g><path style="opacity:0.749" fill="#97a8ad" d="M 49.5,162.5 C 50.391,163.11 51.391,163.443 52.5,163.5C 51.2738,168.785 48.2738,171.118 43.5,170.5C 44.4959,170.586 45.3292,170.252 46,169.5C 46.3589,166.456 47.0255,166.122 48,168.5C 48.3153,166.414 48.8153,164.414 49.5,162.5 Z"/></g>
<g><path style="opacity:0.722" fill="#8299a2" d="M 99.5,161.5 C 100.236,163.229 101.57,164.229 103.5,164.5C 103.838,167.157 103.171,169.49 101.5,171.5C 100.667,170.5 99.8333,169.5 99,168.5C 98.6012,168.728 98.4346,169.062 98.5,169.5C 95.8136,168.012 96.1469,167.345 99.5,167.5C 99.5,165.5 99.5,163.5 99.5,161.5 Z"/></g>
<g><path style="opacity:0.751" fill="#8aa0a9" d="M 92.5,171.5 C 91.5222,171.811 90.8555,172.478 90.5,173.5C 94.0359,175.426 94.3692,177.76 91.5,180.5C 88.6333,180.631 86.9666,179.297 86.5,176.5C 87.4959,176.586 88.3292,176.252 89,175.5C 88.904,173.619 89.0707,171.953 89.5,170.5C 91.1959,168.871 92.1959,169.204 92.5,171.5 Z"/></g>
<g><path style="opacity:0.749" fill="#798b94" d="M 87.5,168.5 C 88.8333,168.5 89.5,169.167 89.5,170.5C 89.0707,171.953 88.904,173.619 89,175.5C 88.3292,176.252 87.4959,176.586 86.5,176.5C 85.8476,175.551 85.5143,174.385 85.5,173C 85.3068,170.992 85.9735,169.492 87.5,168.5 Z"/></g>
<g><path style="opacity:0.741" fill="#8fa0a6" d="M 104.5,162.5 C 104.813,166.042 104.479,169.375 103.5,172.5C 101.621,173.341 99.6208,173.675 97.5,173.5C 96.5291,172.038 96.8624,170.705 98.5,169.5C 98.4346,169.062 98.6012,168.728 99,168.5C 99.8333,169.5 100.667,170.5 101.5,171.5C 103.171,169.49 103.838,167.157 103.5,164.5C 103.328,163.508 103.662,162.842 104.5,162.5 Z"/></g>
<g><path style="opacity:0.753" fill="#8c9ca3" d="M 103.5,172.5 C 102.004,179.233 98.0043,181.899 91.5,180.5C 95.3986,179.954 96.7319,177.954 95.5,174.5C 96.4916,174.672 97.1583,174.338 97.5,173.5C 99.6208,173.675 101.621,173.341 103.5,172.5 Z"/></g>
<g><path style="opacity:0.75" fill="#8fa8b1" d="M 92.5,171.5 C 92.369,172.239 92.5357,172.906 93,173.5C 94.4609,172.117 95.2942,172.451 95.5,174.5C 96.7319,177.954 95.3986,179.954 91.5,180.5C 94.3692,177.76 94.0359,175.426 90.5,173.5C 90.8555,172.478 91.5222,171.811 92.5,171.5 Z"/></g>
<g><path style="opacity:0.729" fill="#94acb4" d="M 132.5,180.5 C 133.209,179.596 134.209,179.263 135.5,179.5C 136.833,179.5 138.167,179.5 139.5,179.5C 139.5,180.833 139.5,182.167 139.5,183.5C 142.853,183.345 143.186,184.012 140.5,185.5C 139.034,186.347 138.2,187.68 138,189.5C 137.329,190.252 136.496,190.586 135.5,190.5C 135.663,188.143 135.497,185.81 135,183.5C 134.764,181.881 133.931,180.881 132.5,180.5 Z"/></g>
<g><path style="opacity:0.753" fill="#9eafb1" d="M 135.5,179.5 C 140.452,178.9 143.452,181.4 144.5,187C 144.472,188.07 144.139,188.903 143.5,189.5C 142.9,188.1 141.9,187.1 140.5,186.5C 140.5,186.167 140.5,185.833 140.5,185.5C 143.186,184.012 142.853,183.345 139.5,183.5C 139.5,182.167 139.5,180.833 139.5,179.5C 138.167,179.5 136.833,179.5 135.5,179.5 Z"/></g>
<g><path style="opacity:0.753" fill="#8da5ad" d="M 132.5,180.5 C 133.931,180.881 134.764,181.881 135,183.5C 135.497,185.81 135.663,188.143 135.5,190.5C 135.027,191.906 134.027,192.573 132.5,192.5C 132.631,191.761 132.464,191.094 132,190.5C 131.667,191.833 131.333,193.167 131,194.5C 130.082,191.937 130.582,189.77 132.5,188C 130.947,185.86 129.947,186.027 129.5,188.5C 128.833,188.5 128.167,188.5 127.5,188.5C 126.731,184.275 128.398,181.609 132.5,180.5 Z"/></g>
<g><path style="opacity:0.751" fill="#8099a1" d="M 140.5,185.5 C 140.5,185.833 140.5,186.167 140.5,186.5C 140.674,188.861 141.007,191.194 141.5,193.5C 139.011,193.241 137.344,194.241 136.5,196.5C 135.833,196.5 135.167,196.5 134.5,196.5C 133.833,195.167 133.167,193.833 132.5,192.5C 134.027,192.573 135.027,191.906 135.5,190.5C 136.496,190.586 137.329,190.252 138,189.5C 138.2,187.68 139.034,186.347 140.5,185.5 Z"/></g>
<g><path style="opacity:0.753" fill="#869ea8" d="M 132.5,192.5 C 133.167,193.833 133.833,195.167 134.5,196.5C 133.504,196.414 132.671,196.748 132,197.5C 129.749,194.983 128.916,191.983 129.5,188.5C 129.947,186.027 130.947,185.86 132.5,188C 130.582,189.77 130.082,191.937 131,194.5C 131.333,193.167 131.667,191.833 132,190.5C 132.464,191.094 132.631,191.761 132.5,192.5 Z"/></g>
<g><path style="opacity:0.753" fill="#92a7ad" d="M 140.5,186.5 C 141.9,187.1 142.9,188.1 143.5,189.5C 142.381,191.938 142.381,194.438 143.5,197C 143.392,198.681 142.725,199.848 141.5,200.5C 141.082,199.778 140.416,199.278 139.5,199C 140.753,194.653 139.92,194.486 137,198.5C 136.536,197.906 136.369,197.239 136.5,196.5C 137.344,194.241 139.011,193.241 141.5,193.5C 141.007,191.194 140.674,188.861 140.5,186.5 Z"/></g>
<g><path style="opacity:0.753" fill="#899da2" d="M 77.5,200.5 C 76.8485,199.909 76.1818,199.243 75.5,198.5C 74.8933,198.624 74.56,198.957 74.5,199.5C 71.7952,199.62 71.1285,198.62 72.5,196.5C 72.1924,195.692 71.6924,195.025 71,194.5C 70.502,197.482 70.3354,200.482 70.5,203.5C 69.1667,200.833 67.8333,198.167 66.5,195.5C 69.8204,192.929 73.3204,192.929 77,195.5C 78.0363,197.299 78.2029,198.966 77.5,200.5 Z"/></g>
<g><path style="opacity:0.752" fill="#899ca1" d="M 26.5,200.5 C 26.0825,199.778 25.4158,199.278 24.5,199C 25.4506,198.282 25.6172,197.449 25,196.5C 22.7944,198.811 20.961,198.811 19.5,196.5C 23.4708,191.108 27.1374,191.275 30.5,197C 29.9283,199.074 28.595,200.24 26.5,200.5 Z"/></g>
<g><path style="opacity:0.753" fill="#91a2a2" d="M 19.5,196.5 C 20.961,198.811 22.7944,198.811 25,196.5C 25.6172,197.449 25.4506,198.282 24.5,199C 25.4158,199.278 26.0825,199.778 26.5,200.5C 24.0521,201.473 21.3854,201.806 18.5,201.5C 18.2155,199.585 18.5489,197.919 19.5,196.5 Z"/></g>
<g><path style="opacity:0.753" fill="#8b9da5" d="M 127.5,188.5 C 128.167,188.5 128.833,188.5 129.5,188.5C 128.916,191.983 129.749,194.983 132,197.5C 132.671,196.748 133.504,196.414 134.5,196.5C 135.167,196.5 135.833,196.5 136.5,196.5C 136.369,197.239 136.536,197.906 137,198.5C 139.92,194.486 140.753,194.653 139.5,199C 140.416,199.278 141.082,199.778 141.5,200.5C 139.712,201.622 137.712,201.789 135.5,201C 131.788,199.531 128.955,197.031 127,193.5C 126.36,191.735 126.527,190.068 127.5,188.5 Z"/></g>
<g><path style="opacity:0.753" fill="#768e98" d="M 77.5,200.5 C 77.5,200.833 77.5,201.167 77.5,201.5C 72.8313,210.523 71.8313,209.857 74.5,199.5C 74.56,198.957 74.8933,198.624 75.5,198.5C 76.1818,199.243 76.8485,199.909 77.5,200.5 Z"/></g>
<g><path style="opacity:0.742" fill="#798d96" d="M 66.5,195.5 C 67.8333,198.167 69.1667,200.833 70.5,203.5C 70.5,204.833 70.5,206.167 70.5,207.5C 69.5,207.5 68.5,207.5 67.5,207.5C 67.6641,204.813 67.4974,202.146 67,199.5C 66.3292,198.748 65.4959,198.414 64.5,198.5C 64.9321,197.29 65.5987,196.29 66.5,195.5 Z"/></g>
<g><path style="opacity:0.753" fill="#738693" d="M 64.5,198.5 C 65.4959,198.414 66.3292,198.748 67,199.5C 67.4974,202.146 67.6641,204.813 67.5,207.5C 65.0411,207.69 63.3745,206.69 62.5,204.5C 62.9707,202.421 63.6373,200.421 64.5,198.5 Z"/></g>
<g><path style="opacity:0.753" fill="#84969d" d="M 74.5,199.5 C 71.8313,209.857 72.8313,210.523 77.5,201.5C 79.179,204.762 78.5123,207.429 75.5,209.5C 73.1667,209.5 70.8333,209.5 68.5,209.5C 66.7078,208.691 64.7078,208.191 62.5,208C 61.2089,206.708 61.2089,205.542 62.5,204.5C 63.3745,206.69 65.0411,207.69 67.5,207.5C 68.5,207.5 69.5,207.5 70.5,207.5C 70.5,206.167 70.5,204.833 70.5,203.5C 70.3354,200.482 70.502,197.482 71,194.5C 71.6924,195.025 72.1924,195.692 72.5,196.5C 71.1285,198.62 71.7952,199.62 74.5,199.5 Z"/></g>
</svg>
